%TF.GenerationSoftware,KiCad,Pcbnew,10.0.6*%
%TF.CreationDate,2026-10-08T08:34:56-05:00*%
%TF.ProjectId,make_music,6d616b65-5f6d-4757-9369-632e6b696361,P0*%
%TF.SameCoordinates,Original*%
%TF.FileFunction,Soldermask,Top*%
%TF.FilePolarity,Negative*%
%FSLAX46Y46*%
G04 Gerber Fmt 4.6, Leading zero omitted, Abs format (unit mm)*
G04 Created by KiCad (PCBNEW 10.0.6) date 2026-10-08 08:34:56*
%MOMM*%
%LPD*%
G01*
G04 APERTURE LIST*
G04 Aperture macros list*
%AMRoundRect*
0 Rectangle with rounded corners*
0 $1 Rounding radius*
0 $2 $3 $4 $5 $6 $7 $8 $9 X,Y pos of 4 corners*
0 Add a 4 corners polygon primitive as box body*
4,1,4,$2,$3,$4,$5,$6,$7,$8,$9,$2,$3,0*
0 Add four circle primitives for the rounded corners*
1,1,$1+$1,$2,$3*
1,1,$1+$1,$4,$5*
1,1,$1+$1,$6,$7*
1,1,$1+$1,$8,$9*
0 Add four rect primitives between the rounded corners*
20,1,$1+$1,$2,$3,$4,$5,0*
20,1,$1+$1,$4,$5,$6,$7,0*
20,1,$1+$1,$6,$7,$8,$9,0*
20,1,$1+$1,$8,$9,$2,$3,0*%
%AMFreePoly0*
4,1,172,0.252456,0.549940,0.257357,0.549699,0.262237,0.549218,0.267091,0.548498,0.271903,0.547541,0.276662,0.546349,0.281358,0.544924,0.285978,0.543271,0.290511,0.541394,0.294947,0.539296,0.299277,0.536981,0.303486,0.534458,0.307558,0.531737,0.311499,0.528815,0.315306,0.525691,0.318941,0.522395,0.322395,0.518941,0.325691,0.515306,0.328815,0.511499,0.331737,0.507558,
0.334458,0.503486,0.336981,0.499277,0.339296,0.494947,0.341394,0.490511,0.343271,0.485978,0.344924,0.481358,0.346349,0.476662,0.347541,0.471903,0.348498,0.467091,0.349218,0.462237,0.349699,0.457357,0.349940,0.452456,0.350000,0.450000,0.350000,-0.100000,0.349940,-0.102456,0.349699,-0.107357,0.349218,-0.112237,0.348498,-0.117091,0.347541,-0.121903,0.346349,-0.126662,
0.344924,-0.131358,0.343271,-0.135978,0.341394,-0.140511,0.339296,-0.144947,0.336981,-0.149277,0.334458,-0.153486,0.331737,-0.157558,0.328815,-0.161499,0.325691,-0.165306,0.322395,-0.168941,0.318941,-0.172395,0.315306,-0.175691,0.311499,-0.178815,0.307558,-0.181737,0.303486,-0.184458,0.299277,-0.186981,0.294947,-0.189296,0.290511,-0.191394,0.285978,-0.193271,0.281358,-0.194924,
0.276662,-0.196349,0.271903,-0.197541,0.267091,-0.198498,0.262237,-0.199218,0.257357,-0.199699,0.252456,-0.199940,0.250000,-0.200000,-0.250000,-0.200000,-0.252456,-0.199940,-0.257357,-0.199699,-0.262237,-0.199218,-0.267091,-0.198498,-0.271903,-0.197541,-0.276662,-0.196349,-0.281358,-0.194924,-0.285978,-0.193271,-0.290511,-0.191394,-0.294947,-0.189296,-0.299277,-0.186981,-0.303486,-0.184458,
-0.307558,-0.181737,-0.311499,-0.178815,-0.315306,-0.175691,-0.318941,-0.172395,-0.322395,-0.168941,-0.325691,-0.165306,-0.328815,-0.161499,-0.331737,-0.157558,-0.334458,-0.153486,-0.336981,-0.149277,-0.339296,-0.144947,-0.341394,-0.140511,-0.343271,-0.135978,-0.344924,-0.131358,-0.346349,-0.126662,-0.347541,-0.121903,-0.348498,-0.117091,-0.349218,-0.112237,-0.349699,-0.107357,-0.349940,-0.102456,
-0.350000,-0.100000,-0.350000,0.100000,-0.349940,0.102456,-0.349699,0.107357,-0.349218,0.112237,-0.348498,0.117091,-0.347541,0.121903,-0.346349,0.126662,-0.344924,0.131358,-0.343271,0.135978,-0.341394,0.140511,-0.339296,0.144947,-0.336981,0.149277,-0.334458,0.153486,-0.331737,0.157558,-0.328815,0.161499,-0.325691,0.165306,-0.322395,0.168941,-0.318941,0.172395,-0.315306,0.175691,
-0.311499,0.178815,-0.307558,0.181737,-0.303486,0.184458,-0.299277,0.186981,-0.294947,0.189296,-0.290511,0.191394,-0.285978,0.193271,-0.281358,0.194924,-0.276662,0.196349,-0.271903,0.197541,-0.267091,0.198498,-0.262237,0.199218,-0.257357,0.199699,-0.252456,0.199940,-0.250000,0.200000,0.000000,0.200000,0.000000,0.450000,0.000060,0.452456,0.000301,0.457357,0.000782,0.462237,
0.001502,0.467091,0.002459,0.471903,0.003651,0.476662,0.005076,0.481358,0.006729,0.485978,0.008606,0.490511,0.010704,0.494947,0.013019,0.499277,0.015542,0.503486,0.018263,0.507558,0.021185,0.511499,0.024309,0.515306,0.027605,0.518941,0.031059,0.522395,0.034694,0.525691,0.038501,0.528815,0.042442,0.531737,0.046514,0.534458,0.050723,0.536981,0.055053,0.539296,
0.059489,0.541394,0.064022,0.543271,0.068642,0.544924,0.073338,0.546349,0.078097,0.547541,0.082909,0.548498,0.087763,0.549218,0.092643,0.549699,0.097544,0.549940,0.100000,0.550000,0.250000,0.550000,0.252456,0.549940,0.252456,0.549940,$1*%
%AMFreePoly1*
4,1,172,0.252456,0.199940,0.257357,0.199699,0.262237,0.199218,0.267091,0.198498,0.271903,0.197541,0.276662,0.196349,0.281358,0.194924,0.285978,0.193271,0.290511,0.191394,0.294947,0.189296,0.299277,0.186981,0.303486,0.184458,0.307558,0.181737,0.311499,0.178815,0.315306,0.175691,0.318941,0.172395,0.322395,0.168941,0.325691,0.165306,0.328815,0.161499,0.331737,0.157558,
0.334458,0.153486,0.336981,0.149277,0.339296,0.144947,0.341394,0.140511,0.343271,0.135978,0.344924,0.131358,0.346349,0.126662,0.347541,0.121903,0.348498,0.117091,0.349218,0.112237,0.349699,0.107357,0.349940,0.102456,0.350000,0.100000,0.350000,-0.450000,0.349940,-0.452456,0.349699,-0.457357,0.349218,-0.462237,0.348498,-0.467091,0.347541,-0.471903,0.346349,-0.476662,
0.344924,-0.481358,0.343271,-0.485978,0.341394,-0.490511,0.339296,-0.494947,0.336981,-0.499277,0.334458,-0.503486,0.331737,-0.507558,0.328815,-0.511499,0.325691,-0.515306,0.322395,-0.518941,0.318941,-0.522395,0.315306,-0.525691,0.311499,-0.528815,0.307558,-0.531737,0.303486,-0.534458,0.299277,-0.536981,0.294947,-0.539296,0.290511,-0.541394,0.285978,-0.543271,0.281358,-0.544924,
0.276662,-0.546349,0.271903,-0.547541,0.267091,-0.548498,0.262237,-0.549218,0.257357,-0.549699,0.252456,-0.549940,0.250000,-0.550000,0.100000,-0.550000,0.097544,-0.549940,0.092643,-0.549699,0.087763,-0.549218,0.082909,-0.548498,0.078097,-0.547541,0.073338,-0.546349,0.068642,-0.544924,0.064022,-0.543271,0.059489,-0.541394,0.055053,-0.539296,0.050723,-0.536981,0.046514,-0.534458,
0.042442,-0.531737,0.038501,-0.528815,0.034694,-0.525691,0.031059,-0.522395,0.027605,-0.518941,0.024309,-0.515306,0.021185,-0.511499,0.018263,-0.507558,0.015542,-0.503486,0.013019,-0.499277,0.010704,-0.494947,0.008606,-0.490511,0.006729,-0.485978,0.005076,-0.481358,0.003651,-0.476662,0.002459,-0.471903,0.001502,-0.467091,0.000782,-0.462237,0.000301,-0.457357,0.000060,-0.452456,
0.000000,-0.450000,0.000000,-0.200000,-0.250000,-0.200000,-0.252456,-0.199940,-0.257357,-0.199699,-0.262237,-0.199218,-0.267091,-0.198498,-0.271903,-0.197541,-0.276662,-0.196349,-0.281358,-0.194924,-0.285978,-0.193271,-0.290511,-0.191394,-0.294947,-0.189296,-0.299277,-0.186981,-0.303486,-0.184458,-0.307558,-0.181737,-0.311499,-0.178815,-0.315306,-0.175691,-0.318941,-0.172395,-0.322395,-0.168941,
-0.325691,-0.165306,-0.328815,-0.161499,-0.331737,-0.157558,-0.334458,-0.153486,-0.336981,-0.149277,-0.339296,-0.144947,-0.341394,-0.140511,-0.343271,-0.135978,-0.344924,-0.131358,-0.346349,-0.126662,-0.347541,-0.121903,-0.348498,-0.117091,-0.349218,-0.112237,-0.349699,-0.107357,-0.349940,-0.102456,-0.350000,-0.100000,-0.350000,0.100000,-0.349940,0.102456,-0.349699,0.107357,-0.349218,0.112237,
-0.348498,0.117091,-0.347541,0.121903,-0.346349,0.126662,-0.344924,0.131358,-0.343271,0.135978,-0.341394,0.140511,-0.339296,0.144947,-0.336981,0.149277,-0.334458,0.153486,-0.331737,0.157558,-0.328815,0.161499,-0.325691,0.165306,-0.322395,0.168941,-0.318941,0.172395,-0.315306,0.175691,-0.311499,0.178815,-0.307558,0.181737,-0.303486,0.184458,-0.299277,0.186981,-0.294947,0.189296,
-0.290511,0.191394,-0.285978,0.193271,-0.281358,0.194924,-0.276662,0.196349,-0.271903,0.197541,-0.267091,0.198498,-0.262237,0.199218,-0.257357,0.199699,-0.252456,0.199940,-0.250000,0.200000,0.250000,0.200000,0.252456,0.199940,0.252456,0.199940,$1*%
%AMFreePoly2*
4,1,172,0.252456,0.199940,0.257357,0.199699,0.262237,0.199218,0.267091,0.198498,0.271903,0.197541,0.276662,0.196349,0.281358,0.194924,0.285978,0.193271,0.290511,0.191394,0.294947,0.189296,0.299277,0.186981,0.303486,0.184458,0.307558,0.181737,0.311499,0.178815,0.315306,0.175691,0.318941,0.172395,0.322395,0.168941,0.325691,0.165306,0.328815,0.161499,0.331737,0.157558,
0.334458,0.153486,0.336981,0.149277,0.339296,0.144947,0.341394,0.140511,0.343271,0.135978,0.344924,0.131358,0.346349,0.126662,0.347541,0.121903,0.348498,0.117091,0.349218,0.112237,0.349699,0.107357,0.349940,0.102456,0.350000,0.100000,0.350000,-0.100000,0.349940,-0.102456,0.349699,-0.107357,0.349218,-0.112237,0.348498,-0.117091,0.347541,-0.121903,0.346349,-0.126662,
0.344924,-0.131358,0.343271,-0.135978,0.341394,-0.140511,0.339296,-0.144947,0.336981,-0.149277,0.334458,-0.153486,0.331737,-0.157558,0.328815,-0.161499,0.325691,-0.165306,0.322395,-0.168941,0.318941,-0.172395,0.315306,-0.175691,0.311499,-0.178815,0.307558,-0.181737,0.303486,-0.184458,0.299277,-0.186981,0.294947,-0.189296,0.290511,-0.191394,0.285978,-0.193271,0.281358,-0.194924,
0.276662,-0.196349,0.271903,-0.197541,0.267091,-0.198498,0.262237,-0.199218,0.257357,-0.199699,0.252456,-0.199940,0.250000,-0.200000,0.000000,-0.200000,0.000000,-0.450000,-0.000060,-0.452456,-0.000301,-0.457357,-0.000782,-0.462237,-0.001502,-0.467091,-0.002459,-0.471903,-0.003651,-0.476662,-0.005076,-0.481358,-0.006729,-0.485978,-0.008606,-0.490511,-0.010704,-0.494947,-0.013019,-0.499277,
-0.015542,-0.503486,-0.018263,-0.507558,-0.021185,-0.511499,-0.024309,-0.515306,-0.027605,-0.518941,-0.031059,-0.522395,-0.034694,-0.525691,-0.038501,-0.528815,-0.042442,-0.531737,-0.046514,-0.534458,-0.050723,-0.536981,-0.055053,-0.539296,-0.059489,-0.541394,-0.064022,-0.543271,-0.068642,-0.544924,-0.073338,-0.546349,-0.078097,-0.547541,-0.082909,-0.548498,-0.087763,-0.549218,-0.092643,-0.549699,
-0.097544,-0.549940,-0.100000,-0.550000,-0.250000,-0.550000,-0.252456,-0.549940,-0.257357,-0.549699,-0.262237,-0.549218,-0.267091,-0.548498,-0.271903,-0.547541,-0.276662,-0.546349,-0.281358,-0.544924,-0.285978,-0.543271,-0.290511,-0.541394,-0.294947,-0.539296,-0.299277,-0.536981,-0.303486,-0.534458,-0.307558,-0.531737,-0.311499,-0.528815,-0.315306,-0.525691,-0.318941,-0.522395,-0.322395,-0.518941,
-0.325691,-0.515306,-0.328815,-0.511499,-0.331737,-0.507558,-0.334458,-0.503486,-0.336981,-0.499277,-0.339296,-0.494947,-0.341394,-0.490511,-0.343271,-0.485978,-0.344924,-0.481358,-0.346349,-0.476662,-0.347541,-0.471903,-0.348498,-0.467091,-0.349218,-0.462237,-0.349699,-0.457357,-0.349940,-0.452456,-0.350000,-0.450000,-0.350000,0.100000,-0.349940,0.102456,-0.349699,0.107357,-0.349218,0.112237,
-0.348498,0.117091,-0.347541,0.121903,-0.346349,0.126662,-0.344924,0.131358,-0.343271,0.135978,-0.341394,0.140511,-0.339296,0.144947,-0.336981,0.149277,-0.334458,0.153486,-0.331737,0.157558,-0.328815,0.161499,-0.325691,0.165306,-0.322395,0.168941,-0.318941,0.172395,-0.315306,0.175691,-0.311499,0.178815,-0.307558,0.181737,-0.303486,0.184458,-0.299277,0.186981,-0.294947,0.189296,
-0.290511,0.191394,-0.285978,0.193271,-0.281358,0.194924,-0.276662,0.196349,-0.271903,0.197541,-0.267091,0.198498,-0.262237,0.199218,-0.257357,0.199699,-0.252456,0.199940,-0.250000,0.200000,0.250000,0.200000,0.252456,0.199940,0.252456,0.199940,$1*%
%AMFreePoly3*
4,1,172,-0.097544,0.549940,-0.092643,0.549699,-0.087763,0.549218,-0.082909,0.548498,-0.078097,0.547541,-0.073338,0.546349,-0.068642,0.544924,-0.064022,0.543271,-0.059489,0.541394,-0.055053,0.539296,-0.050723,0.536981,-0.046514,0.534458,-0.042442,0.531737,-0.038501,0.528815,-0.034694,0.525691,-0.031059,0.522395,-0.027605,0.518941,-0.024309,0.515306,-0.021185,0.511499,-0.018263,0.507558,
-0.015542,0.503486,-0.013019,0.499277,-0.010704,0.494947,-0.008606,0.490511,-0.006729,0.485978,-0.005076,0.481358,-0.003651,0.476662,-0.002459,0.471903,-0.001502,0.467091,-0.000782,0.462237,-0.000301,0.457357,-0.000060,0.452456,0.000000,0.450000,0.000000,0.200000,0.250000,0.200000,0.252456,0.199940,0.257357,0.199699,0.262237,0.199218,0.267091,0.198498,0.271903,0.197541,
0.276662,0.196349,0.281358,0.194924,0.285978,0.193271,0.290511,0.191394,0.294947,0.189296,0.299277,0.186981,0.303486,0.184458,0.307558,0.181737,0.311499,0.178815,0.315306,0.175691,0.318941,0.172395,0.322395,0.168941,0.325691,0.165306,0.328815,0.161499,0.331737,0.157558,0.334458,0.153486,0.336981,0.149277,0.339296,0.144947,0.341394,0.140511,0.343271,0.135978,
0.344924,0.131358,0.346349,0.126662,0.347541,0.121903,0.348498,0.117091,0.349218,0.112237,0.349699,0.107357,0.349940,0.102456,0.350000,0.100000,0.350000,-0.100000,0.349940,-0.102456,0.349699,-0.107357,0.349218,-0.112237,0.348498,-0.117091,0.347541,-0.121903,0.346349,-0.126662,0.344924,-0.131358,0.343271,-0.135978,0.341394,-0.140511,0.339296,-0.144947,0.336981,-0.149277,
0.334458,-0.153486,0.331737,-0.157558,0.328815,-0.161499,0.325691,-0.165306,0.322395,-0.168941,0.318941,-0.172395,0.315306,-0.175691,0.311499,-0.178815,0.307558,-0.181737,0.303486,-0.184458,0.299277,-0.186981,0.294947,-0.189296,0.290511,-0.191394,0.285978,-0.193271,0.281358,-0.194924,0.276662,-0.196349,0.271903,-0.197541,0.267091,-0.198498,0.262237,-0.199218,0.257357,-0.199699,
0.252456,-0.199940,0.250000,-0.200000,-0.250000,-0.200000,-0.252456,-0.199940,-0.257357,-0.199699,-0.262237,-0.199218,-0.267091,-0.198498,-0.271903,-0.197541,-0.276662,-0.196349,-0.281358,-0.194924,-0.285978,-0.193271,-0.290511,-0.191394,-0.294947,-0.189296,-0.299277,-0.186981,-0.303486,-0.184458,-0.307558,-0.181737,-0.311499,-0.178815,-0.315306,-0.175691,-0.318941,-0.172395,-0.322395,-0.168941,
-0.325691,-0.165306,-0.328815,-0.161499,-0.331737,-0.157558,-0.334458,-0.153486,-0.336981,-0.149277,-0.339296,-0.144947,-0.341394,-0.140511,-0.343271,-0.135978,-0.344924,-0.131358,-0.346349,-0.126662,-0.347541,-0.121903,-0.348498,-0.117091,-0.349218,-0.112237,-0.349699,-0.107357,-0.349940,-0.102456,-0.350000,-0.100000,-0.350000,0.450000,-0.349940,0.452456,-0.349699,0.457357,-0.349218,0.462237,
-0.348498,0.467091,-0.347541,0.471903,-0.346349,0.476662,-0.344924,0.481358,-0.343271,0.485978,-0.341394,0.490511,-0.339296,0.494947,-0.336981,0.499277,-0.334458,0.503486,-0.331737,0.507558,-0.328815,0.511499,-0.325691,0.515306,-0.322395,0.518941,-0.318941,0.522395,-0.315306,0.525691,-0.311499,0.528815,-0.307558,0.531737,-0.303486,0.534458,-0.299277,0.536981,-0.294947,0.539296,
-0.290511,0.541394,-0.285978,0.543271,-0.281358,0.544924,-0.276662,0.546349,-0.271903,0.547541,-0.267091,0.548498,-0.262237,0.549218,-0.257357,0.549699,-0.252456,0.549940,-0.250000,0.550000,-0.100000,0.550000,-0.097544,0.549940,-0.097544,0.549940,$1*%
G04 Aperture macros list end*
%ADD10FreePoly0,0.000000*%
%ADD11RoundRect,0.100000X-0.250000X-0.075000X0.250000X-0.075000X0.250000X0.075000X-0.250000X0.075000X0*%
%ADD12FreePoly1,0.000000*%
%ADD13RoundRect,0.100000X-0.100000X-1.150000X0.100000X-1.150000X0.100000X1.150000X-0.100000X1.150000X0*%
%ADD14FreePoly2,0.000000*%
%ADD15FreePoly3,0.000000*%
%ADD16C,3.200000*%
%ADD17RoundRect,0.200000X-0.200000X-0.275000X0.200000X-0.275000X0.200000X0.275000X-0.200000X0.275000X0*%
%ADD18R,0.950000X1.000000*%
%ADD19RoundRect,0.250000X0.250000X0.475000X-0.250000X0.475000X-0.250000X-0.475000X0.250000X-0.475000X0*%
%ADD20R,3.200000X3.200000*%
%ADD21RoundRect,0.250000X-0.250000X-0.475000X0.250000X-0.475000X0.250000X0.475000X-0.250000X0.475000X0*%
%ADD22R,1.800000X1.800000*%
%ADD23C,1.800000*%
%ADD24R,1.520000X1.520000*%
%ADD25C,1.520000*%
%ADD26RoundRect,0.225000X-0.225000X-0.250000X0.225000X-0.250000X0.225000X0.250000X-0.225000X0.250000X0*%
%ADD27R,3.750000X5.600000*%
%ADD28R,1.700000X1.800000*%
%ADD29C,2.000000*%
%ADD30R,2.100000X1.800000*%
%ADD31RoundRect,0.200000X0.200000X0.275000X-0.200000X0.275000X-0.200000X-0.275000X0.200000X-0.275000X0*%
%ADD32RoundRect,0.250000X-0.350000X-0.625000X0.350000X-0.625000X0.350000X0.625000X-0.350000X0.625000X0*%
%ADD33O,1.200000X1.750000*%
G04 APERTURE END LIST*
D10*
%TO.C,U2*%
X219100000Y64700000D03*
D11*
X219100000Y64225000D03*
X219100000Y63775000D03*
D12*
X219100000Y63300000D03*
D13*
X219750000Y64000000D03*
X220250000Y64000000D03*
D14*
X220900000Y63300000D03*
D11*
X220900000Y63775000D03*
X220900000Y64225000D03*
D15*
X220900000Y64700000D03*
%TD*%
D16*
%TO.C,MH7*%
X150000000Y77000000D03*
%TD*%
%TO.C,MH4*%
X324000000Y6000000D03*
%TD*%
D17*
%TO.C,R7*%
X223175000Y65700000D03*
X224825000Y65700000D03*
%TD*%
D18*
%TO.C,C4*%
X177660000Y45000000D03*
X179260000Y45000000D03*
%TD*%
D16*
%TO.C,MH9*%
X8000000Y46000000D03*
%TD*%
D19*
%TO.C,C16*%
X219950000Y53000000D03*
X218050000Y53000000D03*
%TD*%
D16*
%TO.C,MH6*%
X210000000Y103000000D03*
%TD*%
D20*
%TO.C,S1*%
X250000000Y60300000D03*
D16*
X250000000Y65000000D03*
X250000000Y69700000D03*
%TD*%
%TO.C,MH5*%
X150000000Y103000000D03*
%TD*%
D18*
%TO.C,C7*%
X279660000Y45000000D03*
X281260000Y45000000D03*
%TD*%
D16*
%TO.C,MH13*%
X257000000Y6000000D03*
%TD*%
D21*
%TO.C,C14*%
X220250000Y59500000D03*
X222150000Y59500000D03*
%TD*%
D22*
%TO.C,J9*%
X271460000Y45000000D03*
D23*
X274000000Y45000000D03*
X276540000Y45000000D03*
%TD*%
D18*
%TO.C,C2*%
X109660000Y45000000D03*
X111260000Y45000000D03*
%TD*%
D22*
%TO.C,J4*%
X101460000Y45000000D03*
D23*
X104000000Y45000000D03*
X106540000Y45000000D03*
%TD*%
D22*
%TO.C,J13*%
X58460000Y71000000D03*
D23*
X61000000Y71000000D03*
X63540000Y71000000D03*
%TD*%
D22*
%TO.C,J5*%
X135460000Y45000000D03*
D23*
X138000000Y45000000D03*
X140540000Y45000000D03*
%TD*%
D17*
%TO.C,R3*%
X214175000Y67000000D03*
X215825000Y67000000D03*
%TD*%
D24*
%TO.C,J1*%
X111110000Y118700000D03*
D25*
X111110000Y116160000D03*
X111110000Y113620000D03*
X111110000Y111080000D03*
X111110000Y108540000D03*
X111110000Y106000000D03*
X111110000Y103460000D03*
X111110000Y100920000D03*
X111110000Y98380000D03*
X111110000Y95840000D03*
X111110000Y93300000D03*
X111110000Y90760000D03*
X111110000Y88220000D03*
X111110000Y85680000D03*
X111110000Y83140000D03*
X111110000Y80600000D03*
X111110000Y78060000D03*
X111110000Y75520000D03*
X111110000Y72980000D03*
X111110000Y70440000D03*
%TD*%
D18*
%TO.C,C1*%
X75660000Y45000000D03*
X77260000Y45000000D03*
%TD*%
D26*
%TO.C,C15*%
X226225000Y62000000D03*
X227775000Y62000000D03*
%TD*%
D18*
%TO.C,C9*%
X29660000Y85000000D03*
X31260000Y85000000D03*
%TD*%
%TO.C,C5*%
X211660000Y45000000D03*
X213260000Y45000000D03*
%TD*%
D16*
%TO.C,MH16*%
X189000000Y47000000D03*
%TD*%
%TO.C,MH10*%
X45000000Y37000000D03*
%TD*%
D22*
%TO.C,J7*%
X203460000Y45000000D03*
D23*
X206000000Y45000000D03*
X208540000Y45000000D03*
%TD*%
D27*
%TO.C,F1*%
X223125000Y90000000D03*
X236875000Y90000000D03*
%TD*%
D22*
%TO.C,J6*%
X169460000Y45000000D03*
D23*
X172000000Y45000000D03*
X174540000Y45000000D03*
%TD*%
D16*
%TO.C,MH14*%
X291000000Y6000000D03*
%TD*%
%TO.C,MH2*%
X324000000Y114000000D03*
%TD*%
D18*
%TO.C,C12*%
X104660000Y71000000D03*
X106260000Y71000000D03*
%TD*%
D17*
%TO.C,R2*%
X96175000Y77000000D03*
X97825000Y77000000D03*
%TD*%
D18*
%TO.C,C6*%
X245660000Y45000000D03*
X247260000Y45000000D03*
%TD*%
D22*
%TO.C,J12*%
X21460000Y45000000D03*
D23*
X24000000Y45000000D03*
X26540000Y45000000D03*
%TD*%
D18*
%TO.C,C10*%
X29660000Y45000000D03*
X31260000Y45000000D03*
%TD*%
D17*
%TO.C,R5*%
X214175000Y61500000D03*
X215825000Y61500000D03*
%TD*%
D22*
%TO.C,J15*%
X50000000Y108000000D03*
D23*
X50000000Y105460000D03*
X50000000Y102920000D03*
X50000000Y100380000D03*
X50000000Y97840000D03*
X50000000Y95300000D03*
X50000000Y92760000D03*
X50000000Y90220000D03*
X50000000Y87680000D03*
X50000000Y85140000D03*
X50000000Y82600000D03*
X50000000Y80060000D03*
X50000000Y77520000D03*
X50000000Y74980000D03*
X50000000Y72440000D03*
X50000000Y69900000D03*
%TD*%
D18*
%TO.C,C11*%
X66660000Y71000000D03*
X68260000Y71000000D03*
%TD*%
%TO.C,C8*%
X313660000Y45000000D03*
X315260000Y45000000D03*
%TD*%
D17*
%TO.C,R1*%
X58175000Y77000000D03*
X59825000Y77000000D03*
%TD*%
D16*
%TO.C,MH1*%
X6000000Y114000000D03*
%TD*%
D28*
%TO.C,D2*%
X224210000Y56500000D03*
X227790000Y56500000D03*
%TD*%
D29*
%TO.C,TP1*%
X137000000Y117000000D03*
%TD*%
D30*
%TO.C,D3*%
X225800000Y68500000D03*
X230200000Y68500000D03*
%TD*%
D18*
%TO.C,C3*%
X143660000Y45000000D03*
X145260000Y45000000D03*
%TD*%
D31*
%TO.C,R6*%
X215825000Y59500000D03*
X214175000Y59500000D03*
%TD*%
D24*
%TO.C,J2*%
X128890000Y70440000D03*
D25*
X128890000Y72980000D03*
X128890000Y75520000D03*
X128890000Y78060000D03*
X128890000Y80600000D03*
X128890000Y83140000D03*
X128890000Y85680000D03*
X128890000Y88220000D03*
X128890000Y90760000D03*
X128890000Y93300000D03*
X128890000Y95840000D03*
X128890000Y98380000D03*
X128890000Y100920000D03*
X128890000Y103460000D03*
X128890000Y106000000D03*
X128890000Y108540000D03*
X128890000Y111080000D03*
X128890000Y113620000D03*
X128890000Y116160000D03*
X128890000Y118700000D03*
%TD*%
D16*
%TO.C,MH15*%
X155000000Y47000000D03*
%TD*%
D17*
%TO.C,R8*%
X223175000Y62000000D03*
X224825000Y62000000D03*
%TD*%
D16*
%TO.C,MH12*%
X155000000Y6000000D03*
%TD*%
D22*
%TO.C,J14*%
X96460000Y71000000D03*
D23*
X99000000Y71000000D03*
X101540000Y71000000D03*
%TD*%
D22*
%TO.C,J8*%
X237460000Y45000000D03*
D23*
X240000000Y45000000D03*
X242540000Y45000000D03*
%TD*%
D22*
%TO.C,J11*%
X21460000Y85000000D03*
D23*
X24000000Y85000000D03*
X26540000Y85000000D03*
%TD*%
D16*
%TO.C,MH3*%
X6000000Y6000000D03*
%TD*%
D22*
%TO.C,J3*%
X67460000Y45000000D03*
D23*
X70000000Y45000000D03*
X72540000Y45000000D03*
%TD*%
D16*
%TO.C,MH11*%
X50000000Y6000000D03*
%TD*%
D19*
%TO.C,C13*%
X219750000Y68500000D03*
X217850000Y68500000D03*
%TD*%
D31*
%TO.C,R4*%
X215825000Y65000000D03*
X214175000Y65000000D03*
%TD*%
D22*
%TO.C,J10*%
X305460000Y45000000D03*
D23*
X308000000Y45000000D03*
X310540000Y45000000D03*
%TD*%
D16*
%TO.C,MH17*%
X291000000Y47000000D03*
%TD*%
%TO.C,MH8*%
X210000000Y77000000D03*
%TD*%
D32*
%TO.C,H1*%
X229000000Y100000000D03*
D33*
X231000000Y100000000D03*
%TD*%
M02*
