M48
; DRILL file KiCad 10.0.6 date 2026-10-09T13:40:35
; FORMAT={-:-/ absolute / metric / decimal}
; #@! TF.CreationDate,2026-10-09T13:40:35-05:00
; #@! TF.GenerationSoftware,Kicad,Pcbnew,10.0.6
; #@! TF.FileFunction,Plated,1,2,PTH
FMAT,2
METRIC
; #@! TA.AperFunction,Plated,PTH,ViaDrill
T1C0.400
; #@! TA.AperFunction,Plated,PTH,ViaDrill
T2C0.600
; #@! TA.AperFunction,Plated,PTH,ComponentDrill
T3C0.750
; #@! TA.AperFunction,Plated,PTH,ComponentDrill
T4C1.020
; #@! TA.AperFunction,Plated,PTH,ComponentDrill
T5C1.800
%
G90
G05
T1
X52.26Y-55.0
X52.26Y-95.0
X79.665Y-38.798
X89.26Y-69.0
X98.26Y-95.0
X123.2Y-68.3
X127.26Y-69.0
X132.26Y-95.0
X154.652Y-87.934
X156.335Y-88.776
X159.42Y-59.475
X164.347Y-56.86
X166.26Y-95.0
X200.26Y-95.0
X233.3Y-75.0
X233.3Y-80.5
X234.26Y-95.0
X236.85Y-70.5
X237.15Y-87.0
X237.75Y-77.6
X243.2Y-80.5
X244.0Y-76.225
X245.7Y-74.3
X248.7Y-78.0
X249.0Y-83.5
X252.0Y-72.5
X268.26Y-95.0
X283.023Y-38.72
X302.26Y-95.0
X336.26Y-95.0
T2
X115.088Y-61.913
X124.0Y-94.0
X240.25Y-83.5
T3
X289.0Y-40.0
X291.0Y-40.0
T4
X41.46Y-55.0
X41.46Y-95.0
X44.0Y-55.0
X44.0Y-95.0
X46.54Y-55.0
X46.54Y-95.0
X70.0Y-32.0
X70.0Y-34.54
X70.0Y-37.08
X70.0Y-39.62
X70.0Y-42.16
X70.0Y-44.7
X70.0Y-47.24
X70.0Y-49.78
X70.0Y-52.32
X70.0Y-54.86
X70.0Y-57.4
X70.0Y-59.94
X70.0Y-62.48
X70.0Y-65.02
X70.0Y-67.56
X70.0Y-70.1
X78.46Y-69.0
X81.0Y-69.0
X83.54Y-69.0
X87.46Y-98.0
X90.0Y-98.0
X92.54Y-98.0
X116.46Y-69.0
X119.0Y-69.0
X121.46Y-98.0
X121.54Y-69.0
X124.0Y-98.0
X126.54Y-98.0
X131.11Y-21.3
X131.11Y-23.84
X131.11Y-26.38
X131.11Y-28.92
X131.11Y-31.46
X131.11Y-34.0
X131.11Y-36.54
X131.11Y-39.08
X131.11Y-41.62
X131.11Y-44.16
X131.11Y-46.7
X131.11Y-49.24
X131.11Y-51.78
X131.11Y-54.32
X131.11Y-56.86
X131.11Y-59.4
X131.11Y-61.94
X131.11Y-64.48
X131.11Y-67.02
X131.11Y-69.56
X148.89Y-21.3
X148.89Y-23.84
X148.89Y-26.38
X148.89Y-28.92
X148.89Y-31.46
X148.89Y-34.0
X148.89Y-36.54
X148.89Y-39.08
X148.89Y-41.62
X148.89Y-44.16
X148.89Y-46.7
X148.89Y-49.24
X148.89Y-51.78
X148.89Y-54.32
X148.89Y-56.86
X148.89Y-59.4
X148.89Y-61.94
X148.89Y-64.48
X148.89Y-67.02
X148.89Y-69.56
X155.46Y-95.0
X158.0Y-95.0
X160.54Y-95.0
X189.46Y-95.0
X192.0Y-95.0
X194.54Y-95.0
X223.46Y-95.0
X226.0Y-95.0
X228.54Y-95.0
X257.46Y-95.0
X260.0Y-95.0
X262.54Y-95.0
X291.46Y-95.0
X294.0Y-95.0
X296.54Y-95.0
X325.46Y-95.0
X328.0Y-95.0
X330.54Y-95.0
T5
X270.0Y-70.3
X270.0Y-75.0
X270.0Y-79.7
M30
