%TF.GenerationSoftware,KiCad,Pcbnew,10.0.6*%
%TF.CreationDate,2026-10-08T08:39:05-05:00*%
%TF.ProjectId,make_music,6d616b65-5f6d-4757-9369-632e6b696361,P1 routed - review hold*%
%TF.SameCoordinates,PX1312d00PY8583b00*%
%TF.FileFunction,Paste,Top*%
%TF.FilePolarity,Positive*%
%FSLAX46Y46*%
G04 Gerber Fmt 4.6, Leading zero omitted, Abs format (unit mm)*
G04 Created by KiCad (PCBNEW 10.0.6) date 2026-10-08 08:39:05*
%MOMM*%
%LPD*%
G01*
G04 APERTURE LIST*
G04 Aperture macros list*
%AMRoundRect*
0 Rectangle with rounded corners*
0 $1 Rounding radius*
0 $2 $3 $4 $5 $6 $7 $8 $9 X,Y pos of 4 corners*
0 Add a 4 corners polygon primitive as box body*
4,1,4,$2,$3,$4,$5,$6,$7,$8,$9,$2,$3,0*
0 Add four circle primitives for the rounded corners*
1,1,$1+$1,$2,$3*
1,1,$1+$1,$4,$5*
1,1,$1+$1,$6,$7*
1,1,$1+$1,$8,$9*
0 Add four rect primitives between the rounded corners*
20,1,$1+$1,$2,$3,$4,$5,0*
20,1,$1+$1,$4,$5,$6,$7,0*
20,1,$1+$1,$6,$7,$8,$9,0*
20,1,$1+$1,$8,$9,$2,$3,0*%
G04 Aperture macros list end*
%ADD10C,0.000000*%
%ADD11RoundRect,0.050000X-0.250000X-0.075000X0.250000X-0.075000X0.250000X0.075000X-0.250000X0.075000X0*%
%ADD12RoundRect,0.200000X-0.200000X-0.275000X0.200000X-0.275000X0.200000X0.275000X-0.200000X0.275000X0*%
%ADD13R,0.950000X1.000000*%
%ADD14RoundRect,0.250000X0.250000X0.475000X-0.250000X0.475000X-0.250000X-0.475000X0.250000X-0.475000X0*%
%ADD15RoundRect,0.250000X-0.250000X-0.475000X0.250000X-0.475000X0.250000X0.475000X-0.250000X0.475000X0*%
%ADD16RoundRect,0.225000X-0.225000X-0.250000X0.225000X-0.250000X0.225000X0.250000X-0.225000X0.250000X0*%
%ADD17R,3.750000X5.600000*%
%ADD18R,1.700000X1.800000*%
%ADD19R,2.100000X1.800000*%
%ADD20RoundRect,0.200000X0.200000X0.275000X-0.200000X0.275000X-0.200000X-0.275000X0.200000X-0.275000X0*%
G04 APERTURE END LIST*
D10*
%TO.C,U2*%
G36*
X219354901Y65199759D02*
G01*
X219359755Y65199039D01*
X219364514Y65197847D01*
X219369134Y65196194D01*
X219373570Y65194096D01*
X219377779Y65191573D01*
X219381720Y65188651D01*
X219385355Y65185355D01*
X219388651Y65181720D01*
X219391573Y65177779D01*
X219394096Y65173570D01*
X219396194Y65169134D01*
X219397847Y65164514D01*
X219399039Y65159755D01*
X219399759Y65154901D01*
X219400000Y65150000D01*
X219400000Y64600000D01*
X219399759Y64595099D01*
X219399039Y64590245D01*
X219397847Y64585486D01*
X219396194Y64580866D01*
X219394096Y64576430D01*
X219391573Y64572221D01*
X219388651Y64568280D01*
X219385355Y64564645D01*
X219381720Y64561349D01*
X219377779Y64558427D01*
X219373570Y64555904D01*
X219369134Y64553806D01*
X219364514Y64552153D01*
X219359755Y64550961D01*
X219354901Y64550241D01*
X219350000Y64550000D01*
X219225000Y64550000D01*
X219220099Y64550241D01*
X219215245Y64550961D01*
X219210486Y64552153D01*
X219205866Y64553806D01*
X219201430Y64555904D01*
X219197221Y64558427D01*
X219193280Y64561349D01*
X219189645Y64564645D01*
X219186349Y64568280D01*
X219183427Y64572221D01*
X219180904Y64576430D01*
X219178806Y64580866D01*
X219177153Y64585486D01*
X219175961Y64590245D01*
X219175241Y64595099D01*
X219175000Y64600000D01*
X219175000Y65150000D01*
X219175241Y65154901D01*
X219175961Y65159755D01*
X219177153Y65164514D01*
X219178806Y65169134D01*
X219180904Y65173570D01*
X219183427Y65177779D01*
X219186349Y65181720D01*
X219189645Y65185355D01*
X219193280Y65188651D01*
X219197221Y65191573D01*
X219201430Y65194096D01*
X219205866Y65196194D01*
X219210486Y65197847D01*
X219215245Y65199039D01*
X219220099Y65199759D01*
X219225000Y65200000D01*
X219350000Y65200000D01*
X219354901Y65199759D01*
G37*
G36*
X219354901Y64824759D02*
G01*
X219359755Y64824039D01*
X219364514Y64822847D01*
X219369134Y64821194D01*
X219373570Y64819096D01*
X219377779Y64816573D01*
X219381720Y64813651D01*
X219385355Y64810355D01*
X219388651Y64806720D01*
X219391573Y64802779D01*
X219394096Y64798570D01*
X219396194Y64794134D01*
X219397847Y64789514D01*
X219399039Y64784755D01*
X219399759Y64779901D01*
X219400000Y64775000D01*
X219400000Y64600000D01*
X219399759Y64595099D01*
X219399039Y64590245D01*
X219397847Y64585486D01*
X219396194Y64580866D01*
X219394096Y64576430D01*
X219391573Y64572221D01*
X219388651Y64568280D01*
X219385355Y64564645D01*
X219381720Y64561349D01*
X219377779Y64558427D01*
X219373570Y64555904D01*
X219369134Y64553806D01*
X219364514Y64552153D01*
X219359755Y64550961D01*
X219354901Y64550241D01*
X219350000Y64550000D01*
X218850000Y64550000D01*
X218845099Y64550241D01*
X218840245Y64550961D01*
X218835486Y64552153D01*
X218830866Y64553806D01*
X218826430Y64555904D01*
X218822221Y64558427D01*
X218818280Y64561349D01*
X218814645Y64564645D01*
X218811349Y64568280D01*
X218808427Y64572221D01*
X218805904Y64576430D01*
X218803806Y64580866D01*
X218802153Y64585486D01*
X218800961Y64590245D01*
X218800241Y64595099D01*
X218800000Y64600000D01*
X218800000Y64775000D01*
X218800241Y64779901D01*
X218800961Y64784755D01*
X218802153Y64789514D01*
X218803806Y64794134D01*
X218805904Y64798570D01*
X218808427Y64802779D01*
X218811349Y64806720D01*
X218814645Y64810355D01*
X218818280Y64813651D01*
X218822221Y64816573D01*
X218826430Y64819096D01*
X218830866Y64821194D01*
X218835486Y64822847D01*
X218840245Y64824039D01*
X218845099Y64824759D01*
X218850000Y64825000D01*
X219350000Y64825000D01*
X219354901Y64824759D01*
G37*
G36*
X219354901Y63449759D02*
G01*
X219359755Y63449039D01*
X219364514Y63447847D01*
X219369134Y63446194D01*
X219373570Y63444096D01*
X219377779Y63441573D01*
X219381720Y63438651D01*
X219385355Y63435355D01*
X219388651Y63431720D01*
X219391573Y63427779D01*
X219394096Y63423570D01*
X219396194Y63419134D01*
X219397847Y63414514D01*
X219399039Y63409755D01*
X219399759Y63404901D01*
X219400000Y63400000D01*
X219400000Y63225000D01*
X219399759Y63220099D01*
X219399039Y63215245D01*
X219397847Y63210486D01*
X219396194Y63205866D01*
X219394096Y63201430D01*
X219391573Y63197221D01*
X219388651Y63193280D01*
X219385355Y63189645D01*
X219381720Y63186349D01*
X219377779Y63183427D01*
X219373570Y63180904D01*
X219369134Y63178806D01*
X219364514Y63177153D01*
X219359755Y63175961D01*
X219354901Y63175241D01*
X219350000Y63175000D01*
X218850000Y63175000D01*
X218845099Y63175241D01*
X218840245Y63175961D01*
X218835486Y63177153D01*
X218830866Y63178806D01*
X218826430Y63180904D01*
X218822221Y63183427D01*
X218818280Y63186349D01*
X218814645Y63189645D01*
X218811349Y63193280D01*
X218808427Y63197221D01*
X218805904Y63201430D01*
X218803806Y63205866D01*
X218802153Y63210486D01*
X218800961Y63215245D01*
X218800241Y63220099D01*
X218800000Y63225000D01*
X218800000Y63400000D01*
X218800241Y63404901D01*
X218800961Y63409755D01*
X218802153Y63414514D01*
X218803806Y63419134D01*
X218805904Y63423570D01*
X218808427Y63427779D01*
X218811349Y63431720D01*
X218814645Y63435355D01*
X218818280Y63438651D01*
X218822221Y63441573D01*
X218826430Y63444096D01*
X218830866Y63446194D01*
X218835486Y63447847D01*
X218840245Y63449039D01*
X218845099Y63449759D01*
X218850000Y63450000D01*
X219350000Y63450000D01*
X219354901Y63449759D01*
G37*
G36*
X219354901Y63449759D02*
G01*
X219359755Y63449039D01*
X219364514Y63447847D01*
X219369134Y63446194D01*
X219373570Y63444096D01*
X219377779Y63441573D01*
X219381720Y63438651D01*
X219385355Y63435355D01*
X219388651Y63431720D01*
X219391573Y63427779D01*
X219394096Y63423570D01*
X219396194Y63419134D01*
X219397847Y63414514D01*
X219399039Y63409755D01*
X219399759Y63404901D01*
X219400000Y63400000D01*
X219400000Y62850000D01*
X219399759Y62845099D01*
X219399039Y62840245D01*
X219397847Y62835486D01*
X219396194Y62830866D01*
X219394096Y62826430D01*
X219391573Y62822221D01*
X219388651Y62818280D01*
X219385355Y62814645D01*
X219381720Y62811349D01*
X219377779Y62808427D01*
X219373570Y62805904D01*
X219369134Y62803806D01*
X219364514Y62802153D01*
X219359755Y62800961D01*
X219354901Y62800241D01*
X219350000Y62800000D01*
X219225000Y62800000D01*
X219220099Y62800241D01*
X219215245Y62800961D01*
X219210486Y62802153D01*
X219205866Y62803806D01*
X219201430Y62805904D01*
X219197221Y62808427D01*
X219193280Y62811349D01*
X219189645Y62814645D01*
X219186349Y62818280D01*
X219183427Y62822221D01*
X219180904Y62826430D01*
X219178806Y62830866D01*
X219177153Y62835486D01*
X219175961Y62840245D01*
X219175241Y62845099D01*
X219175000Y62850000D01*
X219175000Y63400000D01*
X219175241Y63404901D01*
X219175961Y63409755D01*
X219177153Y63414514D01*
X219178806Y63419134D01*
X219180904Y63423570D01*
X219183427Y63427779D01*
X219186349Y63431720D01*
X219189645Y63435355D01*
X219193280Y63438651D01*
X219197221Y63441573D01*
X219201430Y63444096D01*
X219205866Y63446194D01*
X219210486Y63447847D01*
X219215245Y63449039D01*
X219220099Y63449759D01*
X219225000Y63450000D01*
X219350000Y63450000D01*
X219354901Y63449759D01*
G37*
G36*
X219844901Y65159759D02*
G01*
X219849755Y65159039D01*
X219854514Y65157847D01*
X219859134Y65156194D01*
X219863570Y65154096D01*
X219867779Y65151573D01*
X219871720Y65148651D01*
X219875355Y65145355D01*
X219878651Y65141720D01*
X219881573Y65137779D01*
X219884096Y65133570D01*
X219886194Y65129134D01*
X219887847Y65124514D01*
X219889039Y65119755D01*
X219889759Y65114901D01*
X219890000Y65110000D01*
X219890000Y64150000D01*
X219889759Y64145099D01*
X219889039Y64140245D01*
X219887847Y64135486D01*
X219886194Y64130866D01*
X219884096Y64126430D01*
X219881573Y64122221D01*
X219878651Y64118280D01*
X219875355Y64114645D01*
X219871720Y64111349D01*
X219867779Y64108427D01*
X219863570Y64105904D01*
X219859134Y64103806D01*
X219854514Y64102153D01*
X219849755Y64100961D01*
X219844901Y64100241D01*
X219840000Y64100000D01*
X219660000Y64100000D01*
X219655099Y64100241D01*
X219650245Y64100961D01*
X219645486Y64102153D01*
X219640866Y64103806D01*
X219636430Y64105904D01*
X219632221Y64108427D01*
X219628280Y64111349D01*
X219624645Y64114645D01*
X219621349Y64118280D01*
X219618427Y64122221D01*
X219615904Y64126430D01*
X219613806Y64130866D01*
X219612153Y64135486D01*
X219610961Y64140245D01*
X219610241Y64145099D01*
X219610000Y64150000D01*
X219610000Y65110000D01*
X219610241Y65114901D01*
X219610961Y65119755D01*
X219612153Y65124514D01*
X219613806Y65129134D01*
X219615904Y65133570D01*
X219618427Y65137779D01*
X219621349Y65141720D01*
X219624645Y65145355D01*
X219628280Y65148651D01*
X219632221Y65151573D01*
X219636430Y65154096D01*
X219640866Y65156194D01*
X219645486Y65157847D01*
X219650245Y65159039D01*
X219655099Y65159759D01*
X219660000Y65160000D01*
X219840000Y65160000D01*
X219844901Y65159759D01*
G37*
G36*
X219844901Y63899759D02*
G01*
X219849755Y63899039D01*
X219854514Y63897847D01*
X219859134Y63896194D01*
X219863570Y63894096D01*
X219867779Y63891573D01*
X219871720Y63888651D01*
X219875355Y63885355D01*
X219878651Y63881720D01*
X219881573Y63877779D01*
X219884096Y63873570D01*
X219886194Y63869134D01*
X219887847Y63864514D01*
X219889039Y63859755D01*
X219889759Y63854901D01*
X219890000Y63850000D01*
X219890000Y62890000D01*
X219889759Y62885099D01*
X219889039Y62880245D01*
X219887847Y62875486D01*
X219886194Y62870866D01*
X219884096Y62866430D01*
X219881573Y62862221D01*
X219878651Y62858280D01*
X219875355Y62854645D01*
X219871720Y62851349D01*
X219867779Y62848427D01*
X219863570Y62845904D01*
X219859134Y62843806D01*
X219854514Y62842153D01*
X219849755Y62840961D01*
X219844901Y62840241D01*
X219840000Y62840000D01*
X219660000Y62840000D01*
X219655099Y62840241D01*
X219650245Y62840961D01*
X219645486Y62842153D01*
X219640866Y62843806D01*
X219636430Y62845904D01*
X219632221Y62848427D01*
X219628280Y62851349D01*
X219624645Y62854645D01*
X219621349Y62858280D01*
X219618427Y62862221D01*
X219615904Y62866430D01*
X219613806Y62870866D01*
X219612153Y62875486D01*
X219610961Y62880245D01*
X219610241Y62885099D01*
X219610000Y62890000D01*
X219610000Y63850000D01*
X219610241Y63854901D01*
X219610961Y63859755D01*
X219612153Y63864514D01*
X219613806Y63869134D01*
X219615904Y63873570D01*
X219618427Y63877779D01*
X219621349Y63881720D01*
X219624645Y63885355D01*
X219628280Y63888651D01*
X219632221Y63891573D01*
X219636430Y63894096D01*
X219640866Y63896194D01*
X219645486Y63897847D01*
X219650245Y63899039D01*
X219655099Y63899759D01*
X219660000Y63900000D01*
X219840000Y63900000D01*
X219844901Y63899759D01*
G37*
G36*
X220344901Y65159759D02*
G01*
X220349755Y65159039D01*
X220354514Y65157847D01*
X220359134Y65156194D01*
X220363570Y65154096D01*
X220367779Y65151573D01*
X220371720Y65148651D01*
X220375355Y65145355D01*
X220378651Y65141720D01*
X220381573Y65137779D01*
X220384096Y65133570D01*
X220386194Y65129134D01*
X220387847Y65124514D01*
X220389039Y65119755D01*
X220389759Y65114901D01*
X220390000Y65110000D01*
X220390000Y64150000D01*
X220389759Y64145099D01*
X220389039Y64140245D01*
X220387847Y64135486D01*
X220386194Y64130866D01*
X220384096Y64126430D01*
X220381573Y64122221D01*
X220378651Y64118280D01*
X220375355Y64114645D01*
X220371720Y64111349D01*
X220367779Y64108427D01*
X220363570Y64105904D01*
X220359134Y64103806D01*
X220354514Y64102153D01*
X220349755Y64100961D01*
X220344901Y64100241D01*
X220340000Y64100000D01*
X220160000Y64100000D01*
X220155099Y64100241D01*
X220150245Y64100961D01*
X220145486Y64102153D01*
X220140866Y64103806D01*
X220136430Y64105904D01*
X220132221Y64108427D01*
X220128280Y64111349D01*
X220124645Y64114645D01*
X220121349Y64118280D01*
X220118427Y64122221D01*
X220115904Y64126430D01*
X220113806Y64130866D01*
X220112153Y64135486D01*
X220110961Y64140245D01*
X220110241Y64145099D01*
X220110000Y64150000D01*
X220110000Y65110000D01*
X220110241Y65114901D01*
X220110961Y65119755D01*
X220112153Y65124514D01*
X220113806Y65129134D01*
X220115904Y65133570D01*
X220118427Y65137779D01*
X220121349Y65141720D01*
X220124645Y65145355D01*
X220128280Y65148651D01*
X220132221Y65151573D01*
X220136430Y65154096D01*
X220140866Y65156194D01*
X220145486Y65157847D01*
X220150245Y65159039D01*
X220155099Y65159759D01*
X220160000Y65160000D01*
X220340000Y65160000D01*
X220344901Y65159759D01*
G37*
G36*
X220344901Y63899759D02*
G01*
X220349755Y63899039D01*
X220354514Y63897847D01*
X220359134Y63896194D01*
X220363570Y63894096D01*
X220367779Y63891573D01*
X220371720Y63888651D01*
X220375355Y63885355D01*
X220378651Y63881720D01*
X220381573Y63877779D01*
X220384096Y63873570D01*
X220386194Y63869134D01*
X220387847Y63864514D01*
X220389039Y63859755D01*
X220389759Y63854901D01*
X220390000Y63850000D01*
X220390000Y62890000D01*
X220389759Y62885099D01*
X220389039Y62880245D01*
X220387847Y62875486D01*
X220386194Y62870866D01*
X220384096Y62866430D01*
X220381573Y62862221D01*
X220378651Y62858280D01*
X220375355Y62854645D01*
X220371720Y62851349D01*
X220367779Y62848427D01*
X220363570Y62845904D01*
X220359134Y62843806D01*
X220354514Y62842153D01*
X220349755Y62840961D01*
X220344901Y62840241D01*
X220340000Y62840000D01*
X220160000Y62840000D01*
X220155099Y62840241D01*
X220150245Y62840961D01*
X220145486Y62842153D01*
X220140866Y62843806D01*
X220136430Y62845904D01*
X220132221Y62848427D01*
X220128280Y62851349D01*
X220124645Y62854645D01*
X220121349Y62858280D01*
X220118427Y62862221D01*
X220115904Y62866430D01*
X220113806Y62870866D01*
X220112153Y62875486D01*
X220110961Y62880245D01*
X220110241Y62885099D01*
X220110000Y62890000D01*
X220110000Y63850000D01*
X220110241Y63854901D01*
X220110961Y63859755D01*
X220112153Y63864514D01*
X220113806Y63869134D01*
X220115904Y63873570D01*
X220118427Y63877779D01*
X220121349Y63881720D01*
X220124645Y63885355D01*
X220128280Y63888651D01*
X220132221Y63891573D01*
X220136430Y63894096D01*
X220140866Y63896194D01*
X220145486Y63897847D01*
X220150245Y63899039D01*
X220155099Y63899759D01*
X220160000Y63900000D01*
X220340000Y63900000D01*
X220344901Y63899759D01*
G37*
G36*
X220779901Y65199759D02*
G01*
X220784755Y65199039D01*
X220789514Y65197847D01*
X220794134Y65196194D01*
X220798570Y65194096D01*
X220802779Y65191573D01*
X220806720Y65188651D01*
X220810355Y65185355D01*
X220813651Y65181720D01*
X220816573Y65177779D01*
X220819096Y65173570D01*
X220821194Y65169134D01*
X220822847Y65164514D01*
X220824039Y65159755D01*
X220824759Y65154901D01*
X220825000Y65150000D01*
X220825000Y64600000D01*
X220824759Y64595099D01*
X220824039Y64590245D01*
X220822847Y64585486D01*
X220821194Y64580866D01*
X220819096Y64576430D01*
X220816573Y64572221D01*
X220813651Y64568280D01*
X220810355Y64564645D01*
X220806720Y64561349D01*
X220802779Y64558427D01*
X220798570Y64555904D01*
X220794134Y64553806D01*
X220789514Y64552153D01*
X220784755Y64550961D01*
X220779901Y64550241D01*
X220775000Y64550000D01*
X220650000Y64550000D01*
X220645099Y64550241D01*
X220640245Y64550961D01*
X220635486Y64552153D01*
X220630866Y64553806D01*
X220626430Y64555904D01*
X220622221Y64558427D01*
X220618280Y64561349D01*
X220614645Y64564645D01*
X220611349Y64568280D01*
X220608427Y64572221D01*
X220605904Y64576430D01*
X220603806Y64580866D01*
X220602153Y64585486D01*
X220600961Y64590245D01*
X220600241Y64595099D01*
X220600000Y64600000D01*
X220600000Y65150000D01*
X220600241Y65154901D01*
X220600961Y65159755D01*
X220602153Y65164514D01*
X220603806Y65169134D01*
X220605904Y65173570D01*
X220608427Y65177779D01*
X220611349Y65181720D01*
X220614645Y65185355D01*
X220618280Y65188651D01*
X220622221Y65191573D01*
X220626430Y65194096D01*
X220630866Y65196194D01*
X220635486Y65197847D01*
X220640245Y65199039D01*
X220645099Y65199759D01*
X220650000Y65200000D01*
X220775000Y65200000D01*
X220779901Y65199759D01*
G37*
G36*
X220779901Y63449759D02*
G01*
X220784755Y63449039D01*
X220789514Y63447847D01*
X220794134Y63446194D01*
X220798570Y63444096D01*
X220802779Y63441573D01*
X220806720Y63438651D01*
X220810355Y63435355D01*
X220813651Y63431720D01*
X220816573Y63427779D01*
X220819096Y63423570D01*
X220821194Y63419134D01*
X220822847Y63414514D01*
X220824039Y63409755D01*
X220824759Y63404901D01*
X220825000Y63400000D01*
X220825000Y62850000D01*
X220824759Y62845099D01*
X220824039Y62840245D01*
X220822847Y62835486D01*
X220821194Y62830866D01*
X220819096Y62826430D01*
X220816573Y62822221D01*
X220813651Y62818280D01*
X220810355Y62814645D01*
X220806720Y62811349D01*
X220802779Y62808427D01*
X220798570Y62805904D01*
X220794134Y62803806D01*
X220789514Y62802153D01*
X220784755Y62800961D01*
X220779901Y62800241D01*
X220775000Y62800000D01*
X220650000Y62800000D01*
X220645099Y62800241D01*
X220640245Y62800961D01*
X220635486Y62802153D01*
X220630866Y62803806D01*
X220626430Y62805904D01*
X220622221Y62808427D01*
X220618280Y62811349D01*
X220614645Y62814645D01*
X220611349Y62818280D01*
X220608427Y62822221D01*
X220605904Y62826430D01*
X220603806Y62830866D01*
X220602153Y62835486D01*
X220600961Y62840245D01*
X220600241Y62845099D01*
X220600000Y62850000D01*
X220600000Y63400000D01*
X220600241Y63404901D01*
X220600961Y63409755D01*
X220602153Y63414514D01*
X220603806Y63419134D01*
X220605904Y63423570D01*
X220608427Y63427779D01*
X220611349Y63431720D01*
X220614645Y63435355D01*
X220618280Y63438651D01*
X220622221Y63441573D01*
X220626430Y63444096D01*
X220630866Y63446194D01*
X220635486Y63447847D01*
X220640245Y63449039D01*
X220645099Y63449759D01*
X220650000Y63450000D01*
X220775000Y63450000D01*
X220779901Y63449759D01*
G37*
G36*
X221154901Y64824759D02*
G01*
X221159755Y64824039D01*
X221164514Y64822847D01*
X221169134Y64821194D01*
X221173570Y64819096D01*
X221177779Y64816573D01*
X221181720Y64813651D01*
X221185355Y64810355D01*
X221188651Y64806720D01*
X221191573Y64802779D01*
X221194096Y64798570D01*
X221196194Y64794134D01*
X221197847Y64789514D01*
X221199039Y64784755D01*
X221199759Y64779901D01*
X221200000Y64775000D01*
X221200000Y64600000D01*
X221199759Y64595099D01*
X221199039Y64590245D01*
X221197847Y64585486D01*
X221196194Y64580866D01*
X221194096Y64576430D01*
X221191573Y64572221D01*
X221188651Y64568280D01*
X221185355Y64564645D01*
X221181720Y64561349D01*
X221177779Y64558427D01*
X221173570Y64555904D01*
X221169134Y64553806D01*
X221164514Y64552153D01*
X221159755Y64550961D01*
X221154901Y64550241D01*
X221150000Y64550000D01*
X220650000Y64550000D01*
X220645099Y64550241D01*
X220640245Y64550961D01*
X220635486Y64552153D01*
X220630866Y64553806D01*
X220626430Y64555904D01*
X220622221Y64558427D01*
X220618280Y64561349D01*
X220614645Y64564645D01*
X220611349Y64568280D01*
X220608427Y64572221D01*
X220605904Y64576430D01*
X220603806Y64580866D01*
X220602153Y64585486D01*
X220600961Y64590245D01*
X220600241Y64595099D01*
X220600000Y64600000D01*
X220600000Y64775000D01*
X220600241Y64779901D01*
X220600961Y64784755D01*
X220602153Y64789514D01*
X220603806Y64794134D01*
X220605904Y64798570D01*
X220608427Y64802779D01*
X220611349Y64806720D01*
X220614645Y64810355D01*
X220618280Y64813651D01*
X220622221Y64816573D01*
X220626430Y64819096D01*
X220630866Y64821194D01*
X220635486Y64822847D01*
X220640245Y64824039D01*
X220645099Y64824759D01*
X220650000Y64825000D01*
X221150000Y64825000D01*
X221154901Y64824759D01*
G37*
G36*
X221154901Y63449759D02*
G01*
X221159755Y63449039D01*
X221164514Y63447847D01*
X221169134Y63446194D01*
X221173570Y63444096D01*
X221177779Y63441573D01*
X221181720Y63438651D01*
X221185355Y63435355D01*
X221188651Y63431720D01*
X221191573Y63427779D01*
X221194096Y63423570D01*
X221196194Y63419134D01*
X221197847Y63414514D01*
X221199039Y63409755D01*
X221199759Y63404901D01*
X221200000Y63400000D01*
X221200000Y63225000D01*
X221199759Y63220099D01*
X221199039Y63215245D01*
X221197847Y63210486D01*
X221196194Y63205866D01*
X221194096Y63201430D01*
X221191573Y63197221D01*
X221188651Y63193280D01*
X221185355Y63189645D01*
X221181720Y63186349D01*
X221177779Y63183427D01*
X221173570Y63180904D01*
X221169134Y63178806D01*
X221164514Y63177153D01*
X221159755Y63175961D01*
X221154901Y63175241D01*
X221150000Y63175000D01*
X220650000Y63175000D01*
X220645099Y63175241D01*
X220640245Y63175961D01*
X220635486Y63177153D01*
X220630866Y63178806D01*
X220626430Y63180904D01*
X220622221Y63183427D01*
X220618280Y63186349D01*
X220614645Y63189645D01*
X220611349Y63193280D01*
X220608427Y63197221D01*
X220605904Y63201430D01*
X220603806Y63205866D01*
X220602153Y63210486D01*
X220600961Y63215245D01*
X220600241Y63220099D01*
X220600000Y63225000D01*
X220600000Y63400000D01*
X220600241Y63404901D01*
X220600961Y63409755D01*
X220602153Y63414514D01*
X220603806Y63419134D01*
X220605904Y63423570D01*
X220608427Y63427779D01*
X220611349Y63431720D01*
X220614645Y63435355D01*
X220618280Y63438651D01*
X220622221Y63441573D01*
X220626430Y63444096D01*
X220630866Y63446194D01*
X220635486Y63447847D01*
X220640245Y63449039D01*
X220645099Y63449759D01*
X220650000Y63450000D01*
X221150000Y63450000D01*
X221154901Y63449759D01*
G37*
%TD*%
D11*
%TO.C,U2*%
X219100000Y64225000D03*
X219100000Y63775000D03*
X220900000Y63775000D03*
X220900000Y64225000D03*
%TD*%
D12*
%TO.C,R7*%
X223175000Y65700000D03*
X224825000Y65700000D03*
%TD*%
D13*
%TO.C,C4*%
X177660000Y45000000D03*
X179260000Y45000000D03*
%TD*%
D14*
%TO.C,C16*%
X219950000Y53000000D03*
X218050000Y53000000D03*
%TD*%
D13*
%TO.C,C7*%
X279660000Y45000000D03*
X281260000Y45000000D03*
%TD*%
D15*
%TO.C,C14*%
X220250000Y59500000D03*
X222150000Y59500000D03*
%TD*%
D13*
%TO.C,C2*%
X109660000Y45000000D03*
X111260000Y45000000D03*
%TD*%
D12*
%TO.C,R3*%
X214175000Y67000000D03*
X215825000Y67000000D03*
%TD*%
D13*
%TO.C,C1*%
X75660000Y45000000D03*
X77260000Y45000000D03*
%TD*%
D16*
%TO.C,C15*%
X226225000Y62000000D03*
X227775000Y62000000D03*
%TD*%
D13*
%TO.C,C9*%
X29660000Y85000000D03*
X31260000Y85000000D03*
%TD*%
%TO.C,C5*%
X211660000Y45000000D03*
X213260000Y45000000D03*
%TD*%
D17*
%TO.C,F1*%
X223125000Y90000000D03*
X236875000Y90000000D03*
%TD*%
D13*
%TO.C,C12*%
X104660000Y71000000D03*
X106260000Y71000000D03*
%TD*%
D12*
%TO.C,R2*%
X96175000Y77000000D03*
X97825000Y77000000D03*
%TD*%
D13*
%TO.C,C6*%
X245660000Y45000000D03*
X247260000Y45000000D03*
%TD*%
%TO.C,C10*%
X29660000Y45000000D03*
X31260000Y45000000D03*
%TD*%
D12*
%TO.C,R5*%
X214175000Y61500000D03*
X215825000Y61500000D03*
%TD*%
D13*
%TO.C,C11*%
X66660000Y71000000D03*
X68260000Y71000000D03*
%TD*%
%TO.C,C8*%
X313660000Y45000000D03*
X315260000Y45000000D03*
%TD*%
D12*
%TO.C,R1*%
X58175000Y77000000D03*
X59825000Y77000000D03*
%TD*%
D18*
%TO.C,D2*%
X224210000Y56500000D03*
X227790000Y56500000D03*
%TD*%
D19*
%TO.C,D3*%
X225800000Y68500000D03*
X230200000Y68500000D03*
%TD*%
D13*
%TO.C,C3*%
X143660000Y45000000D03*
X145260000Y45000000D03*
%TD*%
D20*
%TO.C,R6*%
X215825000Y59500000D03*
X214175000Y59500000D03*
%TD*%
D12*
%TO.C,R8*%
X223175000Y62000000D03*
X224825000Y62000000D03*
%TD*%
D14*
%TO.C,C13*%
X219750000Y68500000D03*
X217850000Y68500000D03*
%TD*%
D20*
%TO.C,R4*%
X215825000Y65000000D03*
X214175000Y65000000D03*
%TD*%
M02*
