%TF.GenerationSoftware,KiCad,Pcbnew,10.0.6*%
%TF.CreationDate,2026-10-08T08:39:05-05:00*%
%TF.ProjectId,make_music,6d616b65-5f6d-4757-9369-632e6b696361,P1 routed - review hold*%
%TF.SameCoordinates,PX1312d00PY8583b00*%
%TF.FileFunction,Copper,L2,Bot*%
%TF.FilePolarity,Positive*%
%FSLAX46Y46*%
G04 Gerber Fmt 4.6, Leading zero omitted, Abs format (unit mm)*
G04 Created by KiCad (PCBNEW 10.0.6) date 2026-10-08 08:39:05*
%MOMM*%
%LPD*%
G01*
G04 APERTURE LIST*
G04 Aperture macros list*
%AMRoundRect*
0 Rectangle with rounded corners*
0 $1 Rounding radius*
0 $2 $3 $4 $5 $6 $7 $8 $9 X,Y pos of 4 corners*
0 Add a 4 corners polygon primitive as box body*
4,1,4,$2,$3,$4,$5,$6,$7,$8,$9,$2,$3,0*
0 Add four circle primitives for the rounded corners*
1,1,$1+$1,$2,$3*
1,1,$1+$1,$4,$5*
1,1,$1+$1,$6,$7*
1,1,$1+$1,$8,$9*
0 Add four rect primitives between the rounded corners*
20,1,$1+$1,$2,$3,$4,$5,0*
20,1,$1+$1,$4,$5,$6,$7,0*
20,1,$1+$1,$6,$7,$8,$9,0*
20,1,$1+$1,$8,$9,$2,$3,0*%
G04 Aperture macros list end*
%TA.AperFunction,ComponentPad*%
%ADD10R,3.200000X3.200000*%
%TD*%
%TA.AperFunction,ComponentPad*%
%ADD11C,3.200000*%
%TD*%
%TA.AperFunction,ComponentPad*%
%ADD12R,1.800000X1.800000*%
%TD*%
%TA.AperFunction,ComponentPad*%
%ADD13C,1.800000*%
%TD*%
%TA.AperFunction,ComponentPad*%
%ADD14R,1.520000X1.520000*%
%TD*%
%TA.AperFunction,ComponentPad*%
%ADD15C,1.520000*%
%TD*%
%TA.AperFunction,ComponentPad*%
%ADD16RoundRect,0.250000X-0.350000X-0.625000X0.350000X-0.625000X0.350000X0.625000X-0.350000X0.625000X0*%
%TD*%
%TA.AperFunction,ComponentPad*%
%ADD17O,1.200000X1.750000*%
%TD*%
%TA.AperFunction,ViaPad*%
%ADD18C,0.800000*%
%TD*%
%TA.AperFunction,ViaPad*%
%ADD19C,1.200000*%
%TD*%
%TA.AperFunction,Conductor*%
%ADD20C,0.300000*%
%TD*%
%TA.AperFunction,Conductor*%
%ADD21C,2.000000*%
%TD*%
%TA.AperFunction,Conductor*%
%ADD22C,1.519800*%
%TD*%
%TA.AperFunction,Conductor*%
%ADD23C,1.799800*%
%TD*%
G04 APERTURE END LIST*
D10*
%TO.P,S1,1*%
%TO.N,unconnected-(S1-BAT_OFF-Pad1)*%
X250000000Y60300000D03*
D11*
%TO.P,S1,2*%
%TO.N,/Battery protection/BAT_FUSED_PLUS*%
X250000000Y65000000D03*
%TO.P,S1,3*%
%TO.N,/Battery protection/BAT_SW_PLUS*%
X250000000Y69700000D03*
%TD*%
D12*
%TO.P,J9,1*%
%TO.N,/GP22*%
X271460000Y45000000D03*
D13*
%TO.P,J9,2*%
%TO.N,/3V3_OUT*%
X274000000Y45000000D03*
%TO.P,J9,3*%
%TO.N,/GND*%
X276540000Y45000000D03*
%TD*%
D12*
%TO.P,J4,1*%
%TO.N,/GP17*%
X101460000Y45000000D03*
D13*
%TO.P,J4,2*%
%TO.N,/3V3_OUT*%
X104000000Y45000000D03*
%TO.P,J4,3*%
%TO.N,/GND*%
X106540000Y45000000D03*
%TD*%
D12*
%TO.P,J13,1*%
%TO.N,/GP13*%
X58460000Y71000000D03*
D13*
%TO.P,J13,2*%
%TO.N,/3V3_OUT*%
X61000000Y71000000D03*
%TO.P,J13,3*%
%TO.N,/GND*%
X63540000Y71000000D03*
%TD*%
D12*
%TO.P,J5,1*%
%TO.N,/GP18*%
X135460000Y45000000D03*
D13*
%TO.P,J5,2*%
%TO.N,/3V3_OUT*%
X138000000Y45000000D03*
%TO.P,J5,3*%
%TO.N,/GND*%
X140540000Y45000000D03*
%TD*%
D14*
%TO.P,J1,1*%
%TO.N,/GP0*%
X111110000Y118700000D03*
D15*
%TO.P,J1,2*%
%TO.N,/GP1*%
X111110000Y116160000D03*
%TO.P,J1,3*%
%TO.N,/GND*%
X111110000Y113620000D03*
%TO.P,J1,4*%
%TO.N,/GP2*%
X111110000Y111080000D03*
%TO.P,J1,5*%
%TO.N,/GP3*%
X111110000Y108540000D03*
%TO.P,J1,6*%
%TO.N,/GP4*%
X111110000Y106000000D03*
%TO.P,J1,7*%
%TO.N,/GP5*%
X111110000Y103460000D03*
%TO.P,J1,8*%
%TO.N,/GND*%
X111110000Y100920000D03*
%TO.P,J1,9*%
%TO.N,/GP6*%
X111110000Y98380000D03*
%TO.P,J1,10*%
%TO.N,/GP7*%
X111110000Y95840000D03*
%TO.P,J1,11*%
%TO.N,/GP8*%
X111110000Y93300000D03*
%TO.P,J1,12*%
%TO.N,/GP9*%
X111110000Y90760000D03*
%TO.P,J1,13*%
%TO.N,/GND*%
X111110000Y88220000D03*
%TO.P,J1,14*%
%TO.N,/GP10*%
X111110000Y85680000D03*
%TO.P,J1,15*%
%TO.N,/GP11*%
X111110000Y83140000D03*
%TO.P,J1,16*%
%TO.N,/GP12*%
X111110000Y80600000D03*
%TO.P,J1,17*%
%TO.N,/GP13*%
X111110000Y78060000D03*
%TO.P,J1,18*%
%TO.N,/GND*%
X111110000Y75520000D03*
%TO.P,J1,19*%
%TO.N,/GP14*%
X111110000Y72980000D03*
%TO.P,J1,20*%
%TO.N,/GP15*%
X111110000Y70440000D03*
%TD*%
D12*
%TO.P,J7,1*%
%TO.N,/GP20*%
X203460000Y45000000D03*
D13*
%TO.P,J7,2*%
%TO.N,/3V3_OUT*%
X206000000Y45000000D03*
%TO.P,J7,3*%
%TO.N,/GND*%
X208540000Y45000000D03*
%TD*%
D12*
%TO.P,J6,1*%
%TO.N,/GP19*%
X169460000Y45000000D03*
D13*
%TO.P,J6,2*%
%TO.N,/3V3_OUT*%
X172000000Y45000000D03*
%TO.P,J6,3*%
%TO.N,/GND*%
X174540000Y45000000D03*
%TD*%
D12*
%TO.P,J12,1*%
%TO.N,/GP28*%
X21460000Y45000000D03*
D13*
%TO.P,J12,2*%
%TO.N,/3V3_OUT*%
X24000000Y45000000D03*
%TO.P,J12,3*%
%TO.N,/GND*%
X26540000Y45000000D03*
%TD*%
D12*
%TO.P,J15,1*%
%TO.N,/GP0*%
X50000000Y108000000D03*
D13*
%TO.P,J15,2*%
%TO.N,/GP1*%
X50000000Y105460000D03*
%TO.P,J15,3*%
%TO.N,/GP2*%
X50000000Y102920000D03*
%TO.P,J15,4*%
%TO.N,/GP3*%
X50000000Y100380000D03*
%TO.P,J15,5*%
%TO.N,/GP4*%
X50000000Y97840000D03*
%TO.P,J15,6*%
%TO.N,/GP5*%
X50000000Y95300000D03*
%TO.P,J15,7*%
%TO.N,/GP6*%
X50000000Y92760000D03*
%TO.P,J15,8*%
%TO.N,/GP7*%
X50000000Y90220000D03*
%TO.P,J15,9*%
%TO.N,/GP8*%
X50000000Y87680000D03*
%TO.P,J15,10*%
%TO.N,/GP9*%
X50000000Y85140000D03*
%TO.P,J15,11*%
%TO.N,/GP10*%
X50000000Y82600000D03*
%TO.P,J15,12*%
%TO.N,/GP11*%
X50000000Y80060000D03*
%TO.P,J15,13*%
%TO.N,/GP14*%
X50000000Y77520000D03*
%TO.P,J15,14*%
%TO.N,/GP15*%
X50000000Y74980000D03*
%TO.P,J15,15*%
%TO.N,/3V3_OUT*%
X50000000Y72440000D03*
%TO.P,J15,16*%
%TO.N,/GND*%
X50000000Y69900000D03*
%TD*%
D14*
%TO.P,J2,1*%
%TO.N,/GP16*%
X128890000Y70440000D03*
D15*
%TO.P,J2,2*%
%TO.N,/GP17*%
X128890000Y72980000D03*
%TO.P,J2,3*%
%TO.N,/GND*%
X128890000Y75520000D03*
%TO.P,J2,4*%
%TO.N,/GP18*%
X128890000Y78060000D03*
%TO.P,J2,5*%
%TO.N,/GP19*%
X128890000Y80600000D03*
%TO.P,J2,6*%
%TO.N,/GP20*%
X128890000Y83140000D03*
%TO.P,J2,7*%
%TO.N,/GP21*%
X128890000Y85680000D03*
%TO.P,J2,8*%
%TO.N,/GND*%
X128890000Y88220000D03*
%TO.P,J2,9*%
%TO.N,/GP22*%
X128890000Y90760000D03*
%TO.P,J2,10*%
%TO.N,unconnected-(J2-Pico30_{slash}_RUN-Pad10)*%
X128890000Y93300000D03*
%TO.P,J2,11*%
%TO.N,/GP26*%
X128890000Y95840000D03*
%TO.P,J2,12*%
%TO.N,/GP27*%
X128890000Y98380000D03*
%TO.P,J2,13*%
%TO.N,/GND*%
X128890000Y100920000D03*
%TO.P,J2,14*%
%TO.N,/GP28*%
X128890000Y103460000D03*
%TO.P,J2,15*%
%TO.N,unconnected-(J2-Pico35_{slash}_ADC_VREF-Pad15)*%
X128890000Y106000000D03*
%TO.P,J2,16*%
%TO.N,/3V3_OUT*%
X128890000Y108540000D03*
%TO.P,J2,17*%
%TO.N,unconnected-(J2-Pico37_{slash}_3V3_EN-Pad17)*%
X128890000Y111080000D03*
%TO.P,J2,18*%
%TO.N,/GND*%
X128890000Y113620000D03*
%TO.P,J2,19*%
%TO.N,/VSYS*%
X128890000Y116160000D03*
%TO.P,J2,20*%
%TO.N,/VBUS_USB*%
X128890000Y118700000D03*
%TD*%
D12*
%TO.P,J14,1*%
%TO.N,/GP12*%
X96460000Y71000000D03*
D13*
%TO.P,J14,2*%
%TO.N,/3V3_OUT*%
X99000000Y71000000D03*
%TO.P,J14,3*%
%TO.N,/GND*%
X101540000Y71000000D03*
%TD*%
D12*
%TO.P,J8,1*%
%TO.N,/GP21*%
X237460000Y45000000D03*
D13*
%TO.P,J8,2*%
%TO.N,/3V3_OUT*%
X240000000Y45000000D03*
%TO.P,J8,3*%
%TO.N,/GND*%
X242540000Y45000000D03*
%TD*%
D12*
%TO.P,J11,1*%
%TO.N,/GP27*%
X21460000Y85000000D03*
D13*
%TO.P,J11,2*%
%TO.N,/3V3_OUT*%
X24000000Y85000000D03*
%TO.P,J11,3*%
%TO.N,/GND*%
X26540000Y85000000D03*
%TD*%
D12*
%TO.P,J3,1*%
%TO.N,/GP16*%
X67460000Y45000000D03*
D13*
%TO.P,J3,2*%
%TO.N,/3V3_OUT*%
X70000000Y45000000D03*
%TO.P,J3,3*%
%TO.N,/GND*%
X72540000Y45000000D03*
%TD*%
D12*
%TO.P,J10,1*%
%TO.N,/GP26*%
X305460000Y45000000D03*
D13*
%TO.P,J10,2*%
%TO.N,/3V3_OUT*%
X308000000Y45000000D03*
%TO.P,J10,3*%
%TO.N,/GND*%
X310540000Y45000000D03*
%TD*%
D16*
%TO.P,H1,1*%
%TO.N,/Battery protection/BAT_PROT_PLUS*%
X229000000Y100000000D03*
D17*
%TO.P,H1,2*%
%TO.N,/GND*%
X231000000Y100000000D03*
%TD*%
D18*
%TO.N,/GND*%
X216850000Y69500000D03*
X32260000Y85000000D03*
X32260000Y45000000D03*
X223200000Y59500000D03*
X213300000Y59500000D03*
X78260000Y45000000D03*
X282260000Y45000000D03*
X228700000Y62000000D03*
X232000000Y67500000D03*
X180259999Y45000000D03*
X107260000Y71000000D03*
X69260000Y71000000D03*
X217150000Y53000000D03*
X225700000Y65700000D03*
X217750000Y62400000D03*
X214259999Y45000000D03*
X112259999Y45000000D03*
X248259999Y45000000D03*
X229000000Y56500000D03*
X146259999Y45000000D03*
X213300000Y65000000D03*
X224000000Y63775000D03*
X316260000Y45000000D03*
X103200000Y71700000D03*
D19*
%TO.N,/VSYS*%
X220250000Y56500000D03*
%TO.N,/3V3_OUT*%
X95088400Y78086600D03*
D18*
%TO.N,/GP22*%
X134651800Y52065600D03*
%TO.N,/GP20*%
X144346900Y83140000D03*
%TO.N,/GP19*%
X139420300Y80524500D03*
%TO.N,/GP21*%
X136334900Y51224300D03*
%TO.N,/GP26*%
X263023300Y101279600D03*
%TO.N,/GP27*%
X59665300Y101202200D03*
%TD*%
%TO.N,/GND*%
D20*
X112260000Y45000000D02*
X107260000Y45000000D01*
X282260000Y45000000D02*
X276540000Y45000000D01*
X112317300Y87012700D02*
X112317300Y76727300D01*
X107260000Y71000000D02*
X111110000Y74850000D01*
X112317300Y112412700D02*
X111110000Y113620000D01*
X32260000Y85000000D02*
X26540000Y85000000D01*
X127107000Y99137000D02*
X127107000Y85036900D01*
X127107000Y85036900D02*
X127658700Y84485200D01*
X223200000Y62400000D02*
X217750000Y62400000D01*
X229000000Y56500000D02*
X229000000Y61700000D01*
X107260000Y45000000D02*
X106540000Y45000000D01*
X217750000Y62400000D02*
X213300000Y62400000D01*
X128890000Y88220000D02*
X130099300Y87010700D01*
X232000000Y67500000D02*
X230200000Y65700000D01*
X224000000Y63775000D02*
X225700000Y65475000D01*
X78260000Y45000000D02*
X72540000Y45000000D01*
X111110000Y100920000D02*
X112317300Y102127300D01*
X112317300Y102127300D02*
X112317300Y112412700D01*
X112317300Y76727300D02*
X111110000Y75520000D01*
X111110000Y88220000D02*
X112317300Y87012700D01*
X232001700Y67501700D02*
X232000000Y67500000D01*
X130099300Y85139100D02*
X129445400Y84485200D01*
X225700000Y65475000D02*
X225700000Y65700000D01*
X213300000Y65000000D02*
X216850000Y68550000D01*
X248260000Y45000000D02*
X242540000Y45000000D01*
X230200000Y65700000D02*
X228700000Y65700000D01*
X228700000Y65700000D02*
X225700000Y65700000D01*
X223200000Y62400000D02*
X223200000Y59500000D01*
X249740100Y46480100D02*
X248260000Y45000000D01*
X213300000Y65000000D02*
X213300000Y62400000D01*
X32260000Y45000000D02*
X32818100Y45000000D01*
X229000000Y61700000D02*
X228700000Y62000000D01*
X214260000Y50110000D02*
X214260000Y45000000D01*
X217150000Y53000000D02*
X214260000Y50110000D01*
X224000000Y63775000D02*
X223200000Y62975000D01*
X127658700Y84485200D02*
X127107000Y83933500D01*
X228700000Y65700000D02*
X228700000Y62000000D01*
X213300000Y62400000D02*
X213300000Y59500000D01*
X130099300Y87010700D02*
X130099300Y85139100D01*
X127107000Y83933500D02*
X127107000Y77303000D01*
X223200000Y62975000D02*
X223200000Y62400000D01*
X146260000Y45000000D02*
X140540000Y45000000D01*
X231000000Y100000000D02*
X232001700Y100000000D01*
X107260000Y45000000D02*
X107260000Y71000000D01*
X111110000Y74850000D02*
X111110000Y75520000D01*
X217150000Y53000000D02*
X218778700Y53000000D01*
X276540000Y45000000D02*
X275059900Y46480100D01*
X223200000Y57421300D02*
X223200000Y59500000D01*
X107260000Y71000000D02*
X101540000Y71000000D01*
X275059900Y46480100D02*
X249740100Y46480100D01*
X214260000Y45000000D02*
X208540000Y45000000D01*
X129445400Y84485200D02*
X127658700Y84485200D01*
X242540000Y45000000D02*
X231040000Y56500000D01*
X50000000Y62181900D02*
X50000000Y69900000D01*
X180260000Y45000000D02*
X174540000Y45000000D01*
X218778700Y53000000D02*
X223200000Y57421300D01*
X232001700Y100000000D02*
X232001700Y67501700D01*
X32818100Y45000000D02*
X50000000Y62181900D01*
X32260000Y45000000D02*
X26540000Y45000000D01*
X69260000Y71000000D02*
X63540000Y71000000D01*
X128890000Y100920000D02*
X127107000Y99137000D01*
X316260000Y45000000D02*
X310540000Y45000000D01*
X127107000Y77303000D02*
X128890000Y75520000D01*
X231040000Y56500000D02*
X229000000Y56500000D01*
X216850000Y68550000D02*
X216850000Y69500000D01*
X72540000Y45000000D02*
X72540000Y67720000D01*
X72540000Y67720000D02*
X69260000Y71000000D01*
%TO.N,/VSYS*%
D21*
X220250000Y56500000D02*
X189053400Y56500000D01*
D22*
X130458200Y115630200D02*
X129419800Y115630200D01*
X129419800Y115630200D02*
X128890000Y116160000D01*
D21*
X130458300Y115630200D02*
X130458200Y115630200D01*
X189053400Y56500000D02*
X130458300Y115095100D01*
X130458300Y115095100D02*
X130458300Y115630200D01*
%TO.N,/3V3_OUT*%
X47248800Y70925000D02*
X48374000Y72050200D01*
X137768600Y79840400D02*
X138000000Y79609000D01*
X24000000Y84488100D02*
X26086400Y82401700D01*
X140741200Y41731500D02*
X138000000Y44472700D01*
X174742200Y41730500D02*
X172253100Y44219600D01*
D23*
X99389800Y69975000D02*
X99389800Y70610200D01*
D21*
X61000000Y62113000D02*
X70000000Y53113000D01*
X137768600Y100403300D02*
X137768600Y79840400D01*
X24000000Y45537500D02*
X24000000Y45000000D01*
X308000000Y43924900D02*
X305805600Y41730500D01*
D22*
X130562500Y107270000D02*
X130372300Y107460200D01*
D21*
X24000000Y85000000D02*
X24000000Y84488100D01*
X35772100Y82401700D02*
X47248800Y70925000D01*
X172253100Y44219600D02*
X172000000Y44472700D01*
X305805600Y41730500D02*
X276742200Y41730500D01*
X47248800Y70925000D02*
X47248800Y61437300D01*
X99000000Y74175000D02*
X95088400Y78086600D01*
X130372300Y107460200D02*
X129822300Y108010200D01*
X308000000Y45000000D02*
X308000000Y43924900D01*
X172000000Y44472700D02*
X172000000Y45000000D01*
X138000000Y79609000D02*
X138000000Y45000000D01*
X99000000Y71000000D02*
X99000000Y74175000D01*
X26604600Y48142100D02*
X24000000Y45537500D01*
D23*
X48374000Y72050200D02*
X49610200Y72050200D01*
D21*
X172253100Y44219600D02*
X169765000Y41731500D01*
X274000000Y44472700D02*
X274000000Y45000000D01*
X206000000Y43924900D02*
X203805600Y41730500D01*
X47248800Y61437300D02*
X33953600Y48142100D01*
D23*
X49610200Y72050200D02*
X50000000Y72440000D01*
D22*
X129419800Y108010200D02*
X128890000Y108540000D01*
D21*
X26086400Y82401700D02*
X35772100Y82401700D01*
X276742200Y41730500D02*
X274000000Y44472700D01*
X206000000Y45000000D02*
X206000000Y43924900D01*
X70000000Y53113000D02*
X70000000Y45000000D01*
X61000000Y71000000D02*
X61000000Y62113000D01*
D23*
X99389800Y70610200D02*
X99000000Y71000000D01*
D21*
X138000000Y44472700D02*
X138000000Y45000000D01*
D22*
X129822300Y108010200D02*
X129419800Y108010200D01*
D21*
X99389800Y69975000D02*
X104000000Y65364800D01*
X33953600Y48142100D02*
X26604600Y48142100D01*
D22*
X130901900Y107270000D02*
X130562500Y107270000D01*
D21*
X169765000Y41731500D02*
X140741200Y41731500D01*
X203805600Y41730500D02*
X174742200Y41730500D01*
X130901900Y107270000D02*
X137768600Y100403300D01*
X104000000Y65364800D02*
X104000000Y45000000D01*
%TO.N,/GP22*%
D20*
X130667800Y88982200D02*
X130667800Y80663800D01*
X128496300Y79330000D02*
X127716800Y78550500D01*
X130667800Y80663800D02*
X129334000Y79330000D01*
X129334000Y79330000D02*
X128496300Y79330000D01*
X128601700Y76681700D02*
X129429700Y76681700D01*
X127716800Y77566600D02*
X128601700Y76681700D01*
X128890000Y90760000D02*
X130667800Y88982200D01*
X127716800Y78550500D02*
X127716800Y77566600D01*
X129429700Y76681700D02*
X134651800Y71459600D01*
X134651800Y71459600D02*
X134651800Y52065600D01*
%TO.N,/GP17*%
X128890000Y72980000D02*
X113525500Y57615500D01*
X113525500Y57615500D02*
X113525500Y45126600D01*
X113525500Y45126600D02*
X111972200Y43573300D01*
X111972200Y43573300D02*
X102886700Y43573300D01*
X102886700Y43573300D02*
X101460000Y45000000D01*
%TO.N,/GP13*%
X111110000Y78060000D02*
X109645900Y79524100D01*
X66984100Y79524100D02*
X58460000Y71000000D01*
X109645900Y79524100D02*
X66984100Y79524100D01*
%TO.N,/GP18*%
X128890000Y78060000D02*
X135460000Y71490000D01*
X135460000Y71490000D02*
X135460000Y45000000D01*
%TO.N,/GP3*%
X50000000Y100380000D02*
X102950000Y100380000D01*
X102950000Y100380000D02*
X111110000Y108540000D01*
%TO.N,/GP20*%
X202158300Y45000000D02*
X194097300Y53061000D01*
X194097300Y53061000D02*
X189161500Y53061000D01*
X203460000Y45000000D02*
X202158300Y45000000D01*
X189161500Y53061000D02*
X159082500Y83140000D01*
X159082500Y83140000D02*
X144346900Y83140000D01*
%TO.N,/GP19*%
X169460000Y50484800D02*
X169460000Y45000000D01*
X139420300Y80524500D02*
X169460000Y50484800D01*
%TO.N,/GP28*%
X50739800Y62092400D02*
X50739800Y65712400D01*
X21460000Y45000000D02*
X22917100Y43542900D01*
X82137400Y97110000D02*
X122540000Y97110000D01*
X50739800Y65712400D02*
X82137400Y97110000D01*
X32190300Y43542900D02*
X50739800Y62092400D01*
X22917100Y43542900D02*
X32190300Y43542900D01*
X122540000Y97110000D02*
X128890000Y103460000D01*
%TO.N,/GP16*%
X128890000Y59710900D02*
X112190800Y43011700D01*
X69448300Y43011700D02*
X67460000Y45000000D01*
X112190800Y43011700D02*
X69448300Y43011700D01*
X128890000Y70440000D02*
X128890000Y59710900D01*
%TO.N,/GP21*%
X128418400Y91932400D02*
X129379300Y91932400D01*
X136334900Y84976800D02*
X136334900Y51224300D01*
X128890000Y85680000D02*
X127727400Y86842600D01*
X127727400Y91241400D02*
X128418400Y91932400D01*
X129379300Y91932400D02*
X136334900Y84976800D01*
X127727400Y86842600D02*
X127727400Y91241400D01*
%TO.N,/GP26*%
X263023300Y88738400D02*
X263023300Y101279600D01*
X305460000Y45000000D02*
X305460000Y46301700D01*
X305460000Y46301700D02*
X263023300Y88738400D01*
%TO.N,/GP27*%
X51551100Y109316400D02*
X59665300Y101202200D01*
X21460000Y86301700D02*
X39447700Y104289400D01*
X39447700Y104289400D02*
X39447700Y109316400D01*
X21460000Y85000000D02*
X21460000Y86301700D01*
X39447700Y109316400D02*
X51551100Y109316400D01*
%TD*%
%TA.AperFunction,Conductor*%
%TO.N,/GND*%
G36*
X169671784Y71980315D02*
G01*
X169692426Y71963681D01*
X188836679Y52819429D01*
X188836689Y52819418D01*
X188841019Y52815088D01*
X188841020Y52815087D01*
X188915587Y52740520D01*
X188915589Y52740519D01*
X188915590Y52740518D01*
X188957881Y52716102D01*
X188957883Y52716100D01*
X188975829Y52705740D01*
X189006912Y52687793D01*
X189108773Y52660499D01*
X189108776Y52660499D01*
X189221823Y52660499D01*
X189221839Y52660500D01*
X193880045Y52660500D01*
X193947084Y52640815D01*
X193967726Y52624181D01*
X201833479Y44758429D01*
X201833489Y44758418D01*
X201837819Y44754088D01*
X201837820Y44754087D01*
X201912387Y44679520D01*
X201981240Y44639768D01*
X202003713Y44626793D01*
X202105574Y44599499D01*
X202105577Y44599499D01*
X202185500Y44599499D01*
X202252539Y44579814D01*
X202298294Y44527010D01*
X202309500Y44475499D01*
X202309500Y44075322D01*
X202324032Y44002265D01*
X202324033Y44002261D01*
X202337937Y43981452D01*
X202379399Y43919399D01*
X202441614Y43877829D01*
X202462260Y43864034D01*
X202462264Y43864033D01*
X202535321Y43849501D01*
X202535324Y43849500D01*
X202535326Y43849500D01*
X203856764Y43849500D01*
X203923803Y43829815D01*
X203969558Y43777011D01*
X203979502Y43707853D01*
X203950477Y43644297D01*
X203944445Y43637819D01*
X203323945Y43017319D01*
X203262622Y42983834D01*
X203236264Y42981000D01*
X190341290Y42981000D01*
X190274251Y43000685D01*
X190228496Y43053489D01*
X190218552Y43122647D01*
X190247577Y43186203D01*
X190299514Y43221751D01*
X190530733Y43304482D01*
X190885586Y43472315D01*
X191222280Y43674122D01*
X191537573Y43907959D01*
X191828427Y44171573D01*
X192092041Y44462427D01*
X192325878Y44777720D01*
X192527685Y45114414D01*
X192695518Y45469267D01*
X192827761Y45838862D01*
X192923141Y46219639D01*
X192980738Y46607932D01*
X193000000Y47000000D01*
X192980738Y47392069D01*
X192923141Y47780362D01*
X192827761Y48161139D01*
X192695518Y48530734D01*
X192527685Y48885587D01*
X192325878Y49222281D01*
X192092041Y49537574D01*
X192092036Y49537580D01*
X191828427Y49828429D01*
X191537578Y50092038D01*
X191265394Y50293903D01*
X191222280Y50325879D01*
X191173318Y50355226D01*
X190885589Y50527685D01*
X190530733Y50695519D01*
X190530713Y50695527D01*
X190161148Y50827759D01*
X190161142Y50827761D01*
X190161138Y50827762D01*
X190010145Y50865584D01*
X189780368Y50923141D01*
X189392076Y50980738D01*
X189392074Y50980739D01*
X189392068Y50980739D01*
X189000000Y51000000D01*
X188999999Y51000000D01*
X188968266Y50998442D01*
X188607931Y50980739D01*
X188607925Y50980739D01*
X188607922Y50980738D01*
X188219630Y50923141D01*
X187913458Y50846448D01*
X187838861Y50827762D01*
X187838858Y50827762D01*
X187838850Y50827759D01*
X187469285Y50695527D01*
X187469265Y50695519D01*
X187114409Y50527685D01*
X186777721Y50325881D01*
X186462420Y50092038D01*
X186171571Y49828429D01*
X185907962Y49537580D01*
X185674119Y49222279D01*
X185472315Y48885591D01*
X185304481Y48530735D01*
X185304473Y48530715D01*
X185172241Y48161150D01*
X185076859Y47780370D01*
X185039830Y47530734D01*
X185019261Y47392069D01*
X185000000Y47000000D01*
X185019261Y46607932D01*
X185019261Y46607926D01*
X185019262Y46607924D01*
X185076859Y46219632D01*
X185125279Y46026333D01*
X185162546Y45877553D01*
X185172241Y45838852D01*
X185304473Y45469287D01*
X185304481Y45469267D01*
X185472315Y45114411D01*
X185665001Y44792935D01*
X185674121Y44777720D01*
X185902870Y44469287D01*
X185907962Y44462422D01*
X186171571Y44171573D01*
X186462420Y43907964D01*
X186462426Y43907959D01*
X186777719Y43674122D01*
X186804530Y43658052D01*
X187114409Y43472317D01*
X187114412Y43472316D01*
X187114413Y43472315D01*
X187469266Y43304482D01*
X187700484Y43221751D01*
X187756972Y43180633D01*
X187782264Y43115501D01*
X187768327Y43047035D01*
X187719588Y42996973D01*
X187658709Y42981000D01*
X175311536Y42981000D01*
X175244497Y43000685D01*
X175223855Y43017319D01*
X174639683Y43601491D01*
X174606198Y43662814D01*
X174611182Y43732506D01*
X174653054Y43788439D01*
X174707966Y43811645D01*
X174821002Y43829549D01*
X175000637Y43887915D01*
X175168937Y43973669D01*
X175235284Y44021874D01*
X175235285Y44021874D01*
X174733343Y44523815D01*
X174736853Y44524755D01*
X174853147Y44591898D01*
X174948102Y44686853D01*
X175015245Y44803147D01*
X175016185Y44806657D01*
X175518126Y44304715D01*
X175518126Y44304716D01*
X175566331Y44371063D01*
X175652085Y44539363D01*
X175710451Y44718998D01*
X175740000Y44905553D01*
X175740000Y45094448D01*
X175710451Y45281003D01*
X175652085Y45460638D01*
X175566329Y45628941D01*
X175518127Y45695286D01*
X175518126Y45695287D01*
X175016185Y45193345D01*
X175015245Y45196853D01*
X174948102Y45313147D01*
X174853147Y45408102D01*
X174736853Y45475245D01*
X174733343Y45476186D01*
X175235284Y45978128D01*
X175168933Y46026334D01*
X175000637Y46112086D01*
X174821002Y46170452D01*
X174634447Y46200000D01*
X174445553Y46200000D01*
X174258997Y46170452D01*
X174079362Y46112086D01*
X173911064Y46026333D01*
X173911062Y46026332D01*
X173844714Y45978129D01*
X173844714Y45978128D01*
X174346656Y45476186D01*
X174343147Y45475245D01*
X174226853Y45408102D01*
X174131898Y45313147D01*
X174064755Y45196853D01*
X174063814Y45193344D01*
X173561872Y45695286D01*
X173561871Y45695286D01*
X173513667Y45628937D01*
X173427915Y45460639D01*
X173414480Y45419290D01*
X173375042Y45361615D01*
X173310683Y45334417D01*
X173241837Y45346332D01*
X173190361Y45393576D01*
X173178618Y45419290D01*
X173171356Y45441640D01*
X173158884Y45480025D01*
X173158882Y45480028D01*
X173158882Y45480030D01*
X173096857Y45601761D01*
X173069524Y45655405D01*
X172953828Y45814646D01*
X172814646Y45953828D01*
X172655405Y46069524D01*
X172587693Y46104025D01*
X172480029Y46158883D01*
X172292826Y46219710D01*
X172098422Y46250500D01*
X172098417Y46250500D01*
X171901583Y46250500D01*
X171901578Y46250500D01*
X171707173Y46219710D01*
X171519970Y46158883D01*
X171344594Y46069524D01*
X171273026Y46017526D01*
X171185354Y45953828D01*
X171185352Y45953826D01*
X171185351Y45953826D01*
X171046174Y45814649D01*
X171046174Y45814648D01*
X171046172Y45814646D01*
X170998841Y45749501D01*
X170930476Y45655406D01*
X170844985Y45487619D01*
X170797011Y45436823D01*
X170729190Y45420028D01*
X170663055Y45442565D01*
X170619603Y45497280D01*
X170610500Y45543914D01*
X170610500Y45924677D01*
X170610499Y45924679D01*
X170595967Y45997736D01*
X170595966Y45997740D01*
X170594455Y46000001D01*
X170540601Y46080601D01*
X170457740Y46135966D01*
X170457739Y46135967D01*
X170457735Y46135968D01*
X170384677Y46150500D01*
X170384674Y46150500D01*
X169984500Y46150500D01*
X169917461Y46170185D01*
X169871706Y46222989D01*
X169860500Y46274500D01*
X169860500Y50537524D01*
X169860499Y50537531D01*
X169850781Y50573800D01*
X169833207Y50639388D01*
X169780480Y50730713D01*
X148722874Y71788319D01*
X148689389Y71849642D01*
X148694373Y71919334D01*
X148736245Y71975267D01*
X148801709Y71999684D01*
X148810555Y72000000D01*
X169604745Y72000000D01*
X169671784Y71980315D01*
G37*
%TD.AperFunction*%
%TA.AperFunction,Conductor*%
G36*
X139520084Y79854315D02*
G01*
X139540726Y79837681D01*
X144963681Y74414726D01*
X144997166Y74353403D01*
X145000000Y74327045D01*
X145000000Y72000000D01*
X147327045Y72000000D01*
X147394084Y71980315D01*
X147414726Y71963681D01*
X169023181Y50355226D01*
X169056666Y50293903D01*
X169059500Y50267545D01*
X169059500Y46274500D01*
X169039815Y46207461D01*
X168987011Y46161706D01*
X168935500Y46150500D01*
X168535323Y46150500D01*
X168462264Y46135968D01*
X168462260Y46135967D01*
X168379399Y46080601D01*
X168324033Y45997740D01*
X168324032Y45997736D01*
X168309500Y45924679D01*
X168309500Y44075322D01*
X168324032Y44002265D01*
X168324033Y44002261D01*
X168337937Y43981452D01*
X168379399Y43919399D01*
X168441614Y43877829D01*
X168462260Y43864034D01*
X168462264Y43864033D01*
X168535321Y43849501D01*
X168535324Y43849500D01*
X168535326Y43849500D01*
X169815164Y43849500D01*
X169882203Y43829815D01*
X169927958Y43777011D01*
X169937902Y43707853D01*
X169908877Y43644297D01*
X169902845Y43637819D01*
X169283345Y43018319D01*
X169222022Y42984834D01*
X169195664Y42982000D01*
X156344085Y42982000D01*
X156277046Y43001685D01*
X156231291Y43054489D01*
X156221347Y43123647D01*
X156250372Y43187203D01*
X156302311Y43222751D01*
X156509786Y43296987D01*
X156530733Y43304482D01*
X156885586Y43472315D01*
X157222280Y43674122D01*
X157537573Y43907959D01*
X157828427Y44171573D01*
X158092041Y44462427D01*
X158325878Y44777720D01*
X158527685Y45114414D01*
X158695518Y45469267D01*
X158827761Y45838862D01*
X158923141Y46219639D01*
X158980738Y46607932D01*
X159000000Y47000000D01*
X158980738Y47392069D01*
X158923141Y47780362D01*
X158827761Y48161139D01*
X158695518Y48530734D01*
X158527685Y48885587D01*
X158325878Y49222281D01*
X158092041Y49537574D01*
X158092036Y49537580D01*
X157828427Y49828429D01*
X157537578Y50092038D01*
X157265394Y50293903D01*
X157222280Y50325879D01*
X157173318Y50355226D01*
X156885589Y50527685D01*
X156530733Y50695519D01*
X156530713Y50695527D01*
X156161148Y50827759D01*
X156161142Y50827761D01*
X156161138Y50827762D01*
X156010145Y50865584D01*
X155780368Y50923141D01*
X155392076Y50980738D01*
X155392074Y50980739D01*
X155392068Y50980739D01*
X155000000Y51000000D01*
X154999999Y51000000D01*
X154968266Y50998442D01*
X154607931Y50980739D01*
X154607925Y50980739D01*
X154607922Y50980738D01*
X154219630Y50923141D01*
X153913458Y50846448D01*
X153838861Y50827762D01*
X153838858Y50827762D01*
X153838850Y50827759D01*
X153469285Y50695527D01*
X153469265Y50695519D01*
X153114409Y50527685D01*
X152777721Y50325881D01*
X152462420Y50092038D01*
X152171571Y49828429D01*
X151907962Y49537580D01*
X151674119Y49222279D01*
X151472315Y48885591D01*
X151304481Y48530735D01*
X151304473Y48530715D01*
X151172241Y48161150D01*
X151076859Y47780370D01*
X151039830Y47530734D01*
X151019261Y47392069D01*
X151000000Y47000000D01*
X151019261Y46607932D01*
X151019261Y46607926D01*
X151019262Y46607924D01*
X151076859Y46219632D01*
X151125279Y46026333D01*
X151162546Y45877553D01*
X151172241Y45838852D01*
X151304473Y45469287D01*
X151304481Y45469267D01*
X151472315Y45114411D01*
X151665001Y44792935D01*
X151674121Y44777720D01*
X151902870Y44469287D01*
X151907962Y44462422D01*
X152171571Y44171573D01*
X152462420Y43907964D01*
X152462426Y43907959D01*
X152777719Y43674122D01*
X152804530Y43658052D01*
X153114409Y43472317D01*
X153114412Y43472316D01*
X153114413Y43472315D01*
X153469266Y43304482D01*
X153469280Y43304477D01*
X153469285Y43304475D01*
X153697688Y43222751D01*
X153754177Y43181633D01*
X153779469Y43116501D01*
X153765532Y43048035D01*
X153716793Y42997973D01*
X153655914Y42982000D01*
X141310536Y42982000D01*
X141243497Y43001685D01*
X141222855Y43018319D01*
X140639683Y43601491D01*
X140606198Y43662814D01*
X140611182Y43732506D01*
X140653054Y43788439D01*
X140707966Y43811645D01*
X140821002Y43829549D01*
X141000637Y43887915D01*
X141168937Y43973669D01*
X141235284Y44021874D01*
X141235285Y44021874D01*
X140733343Y44523815D01*
X140736853Y44524755D01*
X140853147Y44591898D01*
X140948102Y44686853D01*
X141015245Y44803147D01*
X141016185Y44806657D01*
X141518126Y44304715D01*
X141518126Y44304716D01*
X141566331Y44371063D01*
X141652085Y44539363D01*
X141710451Y44718998D01*
X141740000Y44905553D01*
X141740000Y45094448D01*
X141710451Y45281003D01*
X141652085Y45460638D01*
X141566329Y45628941D01*
X141518127Y45695286D01*
X141518126Y45695287D01*
X141016185Y45193345D01*
X141015245Y45196853D01*
X140948102Y45313147D01*
X140853147Y45408102D01*
X140736853Y45475245D01*
X140733343Y45476186D01*
X141235284Y45978128D01*
X141168933Y46026334D01*
X141000637Y46112086D01*
X140821002Y46170452D01*
X140634447Y46200000D01*
X140445553Y46200000D01*
X140258997Y46170452D01*
X140079362Y46112086D01*
X139911064Y46026333D01*
X139911062Y46026332D01*
X139844714Y45978129D01*
X139844714Y45978128D01*
X140346656Y45476186D01*
X140343147Y45475245D01*
X140226853Y45408102D01*
X140131898Y45313147D01*
X140064755Y45196853D01*
X140063814Y45193344D01*
X139561872Y45695286D01*
X139561871Y45695286D01*
X139513668Y45628938D01*
X139513661Y45628926D01*
X139484984Y45572644D01*
X139437010Y45521848D01*
X139369189Y45505053D01*
X139303054Y45527591D01*
X139259603Y45582306D01*
X139250500Y45628939D01*
X139250500Y79707418D01*
X139246828Y79730603D01*
X139255784Y79799897D01*
X139300781Y79853348D01*
X139367533Y79873987D01*
X139369302Y79874000D01*
X139453045Y79874000D01*
X139520084Y79854315D01*
G37*
%TD.AperFunction*%
%TA.AperFunction,Conductor*%
G36*
X94124603Y79103915D02*
G01*
X94170358Y79051111D01*
X94180302Y78981953D01*
X94151277Y78918397D01*
X94145245Y78911919D01*
X94134574Y78901249D01*
X94134574Y78901248D01*
X94134572Y78901246D01*
X94093639Y78844907D01*
X94018876Y78742006D01*
X93929517Y78566631D01*
X93868690Y78379427D01*
X93837900Y78185023D01*
X93837900Y77988178D01*
X93868690Y77793774D01*
X93929517Y77606570D01*
X93976749Y77513873D01*
X94018876Y77431195D01*
X94134572Y77271954D01*
X94134574Y77271952D01*
X97713181Y73693345D01*
X97746666Y73632022D01*
X97749500Y73605664D01*
X97749500Y72171064D01*
X97729815Y72104025D01*
X97677011Y72058270D01*
X97607853Y72048326D01*
X97551056Y72074265D01*
X97550756Y72073815D01*
X97547983Y72075668D01*
X97544297Y72077351D01*
X97541332Y72080112D01*
X97540601Y72080600D01*
X97540601Y72080601D01*
X97457740Y72135966D01*
X97457739Y72135967D01*
X97457735Y72135968D01*
X97384677Y72150500D01*
X97384674Y72150500D01*
X95535326Y72150500D01*
X95535323Y72150500D01*
X95462264Y72135968D01*
X95462260Y72135967D01*
X95379399Y72080601D01*
X95324033Y71997740D01*
X95324032Y71997736D01*
X95309500Y71924679D01*
X95309500Y70075322D01*
X95324032Y70002265D01*
X95324033Y70002261D01*
X95342405Y69974765D01*
X95379399Y69919399D01*
X95462260Y69864034D01*
X95462264Y69864033D01*
X95535321Y69849501D01*
X95535324Y69849500D01*
X95535326Y69849500D01*
X97384676Y69849500D01*
X97384677Y69849501D01*
X97457740Y69864034D01*
X97540601Y69919399D01*
X97595966Y70002260D01*
X97610500Y70075326D01*
X97610500Y70456087D01*
X97630185Y70523126D01*
X97682989Y70568881D01*
X97752147Y70578825D01*
X97815703Y70549800D01*
X97844984Y70512383D01*
X97930476Y70344595D01*
X98046172Y70185354D01*
X98046174Y70185352D01*
X98102981Y70128545D01*
X98136466Y70067222D01*
X98139300Y70040864D01*
X98139300Y69876578D01*
X98170090Y69682174D01*
X98230917Y69494970D01*
X98310789Y69338215D01*
X98320276Y69319595D01*
X98435972Y69160354D01*
X98435974Y69160352D01*
X102713181Y64883145D01*
X102746666Y64821822D01*
X102749500Y64795464D01*
X102749500Y46171064D01*
X102729815Y46104025D01*
X102677011Y46058270D01*
X102607853Y46048326D01*
X102551056Y46074265D01*
X102550756Y46073815D01*
X102547983Y46075668D01*
X102544297Y46077351D01*
X102541332Y46080112D01*
X102540601Y46080600D01*
X102540601Y46080601D01*
X102457740Y46135966D01*
X102457739Y46135967D01*
X102457735Y46135968D01*
X102384677Y46150500D01*
X102384674Y46150500D01*
X100535326Y46150500D01*
X100535323Y46150500D01*
X100462264Y46135968D01*
X100462260Y46135967D01*
X100379399Y46080601D01*
X100324033Y45997740D01*
X100324032Y45997736D01*
X100309500Y45924679D01*
X100309500Y44075322D01*
X100324032Y44002265D01*
X100324033Y44002261D01*
X100337937Y43981452D01*
X100379399Y43919399D01*
X100441614Y43877829D01*
X100462260Y43864034D01*
X100462264Y43864033D01*
X100535321Y43849501D01*
X100535324Y43849500D01*
X100535326Y43849500D01*
X101992745Y43849500D01*
X102059784Y43829815D01*
X102080426Y43813181D01*
X102269726Y43623881D01*
X102303211Y43562558D01*
X102298227Y43492866D01*
X102256355Y43436933D01*
X102190891Y43412516D01*
X102182045Y43412200D01*
X69665555Y43412200D01*
X69598516Y43431885D01*
X69577874Y43448519D01*
X69389402Y43636991D01*
X69355917Y43698314D01*
X69360901Y43768006D01*
X69402773Y43823939D01*
X69468237Y43848356D01*
X69515402Y43842603D01*
X69519969Y43841120D01*
X69519975Y43841116D01*
X69664448Y43794174D01*
X69707173Y43780291D01*
X69901578Y43749500D01*
X69901583Y43749500D01*
X70098422Y43749500D01*
X70292826Y43780291D01*
X70317903Y43788439D01*
X70480025Y43841116D01*
X70655405Y43930476D01*
X70814646Y44046172D01*
X70953828Y44185354D01*
X71069524Y44344595D01*
X71158884Y44519975D01*
X71178618Y44580713D01*
X71218056Y44638386D01*
X71282415Y44665584D01*
X71351261Y44653669D01*
X71402737Y44606425D01*
X71414480Y44580710D01*
X71427914Y44539363D01*
X71513666Y44371067D01*
X71561872Y44304716D01*
X72063814Y44806658D01*
X72064755Y44803147D01*
X72131898Y44686853D01*
X72226853Y44591898D01*
X72343147Y44524755D01*
X72346655Y44523815D01*
X71844713Y44021874D01*
X71844714Y44021873D01*
X71911059Y43973671D01*
X72079362Y43887915D01*
X72258997Y43829549D01*
X72445553Y43800000D01*
X72634447Y43800000D01*
X72821002Y43829549D01*
X73000637Y43887915D01*
X73168937Y43973669D01*
X73235284Y44021874D01*
X73235285Y44021874D01*
X72733344Y44523815D01*
X72736853Y44524755D01*
X72853147Y44591898D01*
X72948102Y44686853D01*
X73015245Y44803147D01*
X73016185Y44806657D01*
X73518126Y44304715D01*
X73518126Y44304716D01*
X73566331Y44371063D01*
X73652085Y44539363D01*
X73710451Y44718998D01*
X73740000Y44905553D01*
X73740000Y45094448D01*
X73710451Y45281003D01*
X73652085Y45460638D01*
X73566329Y45628941D01*
X73518127Y45695286D01*
X73518126Y45695287D01*
X73016185Y45193345D01*
X73015245Y45196853D01*
X72948102Y45313147D01*
X72853147Y45408102D01*
X72736853Y45475245D01*
X72733343Y45476186D01*
X73235284Y45978128D01*
X73168933Y46026334D01*
X73000637Y46112086D01*
X72821002Y46170452D01*
X72634447Y46200000D01*
X72445553Y46200000D01*
X72258997Y46170452D01*
X72079362Y46112086D01*
X71911064Y46026333D01*
X71911062Y46026332D01*
X71844714Y45978129D01*
X71844714Y45978128D01*
X72346656Y45476186D01*
X72343147Y45475245D01*
X72226853Y45408102D01*
X72131898Y45313147D01*
X72064755Y45196853D01*
X72063814Y45193344D01*
X71561872Y45695286D01*
X71561871Y45695286D01*
X71513668Y45628938D01*
X71513661Y45628926D01*
X71484984Y45572644D01*
X71437010Y45521848D01*
X71369189Y45505053D01*
X71303054Y45527591D01*
X71259603Y45582306D01*
X71250500Y45628939D01*
X71250500Y53211423D01*
X71223565Y53381480D01*
X71219709Y53405826D01*
X71219708Y53405830D01*
X71219708Y53405831D01*
X71160391Y53588388D01*
X71159329Y53592153D01*
X71069523Y53768406D01*
X70953828Y53927646D01*
X62286819Y62594655D01*
X62253334Y62655978D01*
X62250500Y62682336D01*
X62250500Y70371062D01*
X62270185Y70438101D01*
X62322989Y70483856D01*
X62392147Y70493800D01*
X62455703Y70464775D01*
X62484985Y70427357D01*
X62513666Y70371067D01*
X62561872Y70304716D01*
X63063814Y70806658D01*
X63064755Y70803147D01*
X63131898Y70686853D01*
X63226853Y70591898D01*
X63343147Y70524755D01*
X63346655Y70523815D01*
X62844713Y70021874D01*
X62844714Y70021873D01*
X62911059Y69973671D01*
X63079362Y69887915D01*
X63258997Y69829549D01*
X63445553Y69800000D01*
X63634447Y69800000D01*
X63821002Y69829549D01*
X64000637Y69887915D01*
X64168937Y69973669D01*
X64235284Y70021874D01*
X64235285Y70021874D01*
X63733344Y70523815D01*
X63736853Y70524755D01*
X63853147Y70591898D01*
X63948102Y70686853D01*
X64015245Y70803147D01*
X64016185Y70806656D01*
X64518126Y70304715D01*
X64518126Y70304716D01*
X64566331Y70371063D01*
X64652085Y70539363D01*
X64710451Y70718998D01*
X64740000Y70905553D01*
X64740000Y71094448D01*
X64710451Y71281003D01*
X64652085Y71460638D01*
X64566329Y71628941D01*
X64518127Y71695286D01*
X64518126Y71695287D01*
X64016185Y71193345D01*
X64015245Y71196853D01*
X63948102Y71313147D01*
X63853147Y71408102D01*
X63736853Y71475245D01*
X63733343Y71476186D01*
X64235284Y71978128D01*
X64168933Y72026334D01*
X64000637Y72112086D01*
X63821002Y72170452D01*
X63634447Y72200000D01*
X63445553Y72200000D01*
X63258997Y72170452D01*
X63079362Y72112086D01*
X62911064Y72026333D01*
X62911062Y72026332D01*
X62844714Y71978129D01*
X62844714Y71978128D01*
X63346656Y71476186D01*
X63343147Y71475245D01*
X63226853Y71408102D01*
X63131898Y71313147D01*
X63064755Y71196853D01*
X63063814Y71193344D01*
X62561872Y71695286D01*
X62561871Y71695286D01*
X62513667Y71628937D01*
X62427915Y71460639D01*
X62414480Y71419290D01*
X62375042Y71361615D01*
X62310683Y71334417D01*
X62241837Y71346332D01*
X62190361Y71393576D01*
X62178618Y71419290D01*
X62166673Y71456053D01*
X62158884Y71480025D01*
X62158882Y71480028D01*
X62158882Y71480030D01*
X62101755Y71592147D01*
X62069524Y71655405D01*
X61953828Y71814646D01*
X61814646Y71953828D01*
X61655405Y72069524D01*
X61625999Y72084507D01*
X61480029Y72158883D01*
X61292826Y72219710D01*
X61098422Y72250500D01*
X61098417Y72250500D01*
X60901583Y72250500D01*
X60901578Y72250500D01*
X60707173Y72219710D01*
X60515402Y72157398D01*
X60445560Y72155403D01*
X60385727Y72191483D01*
X60354899Y72254184D01*
X60362863Y72323598D01*
X60389399Y72363007D01*
X67113674Y79087281D01*
X67174997Y79120766D01*
X67201355Y79123600D01*
X94057564Y79123600D01*
X94124603Y79103915D01*
G37*
%TD.AperFunction*%
%TA.AperFunction,Conductor*%
G36*
X26064755Y44803147D02*
G01*
X26131898Y44686853D01*
X26226853Y44591898D01*
X26343147Y44524755D01*
X26346656Y44523815D01*
X25804292Y43981452D01*
X25801671Y43984073D01*
X25776925Y43958981D01*
X25716747Y43943400D01*
X25011236Y43943400D01*
X24944197Y43963085D01*
X24898442Y44015889D01*
X24888498Y44085047D01*
X24917523Y44148603D01*
X24923555Y44155081D01*
X24925288Y44156814D01*
X24953828Y44185354D01*
X25069524Y44344595D01*
X25158884Y44519975D01*
X25178618Y44580713D01*
X25218056Y44638386D01*
X25282415Y44665584D01*
X25351261Y44653669D01*
X25402737Y44606425D01*
X25414480Y44580710D01*
X25427914Y44539363D01*
X25513666Y44371067D01*
X25561872Y44304716D01*
X26063814Y44806658D01*
X26064755Y44803147D01*
G37*
%TD.AperFunction*%
%TA.AperFunction,Conductor*%
G36*
X106064755Y44803147D02*
G01*
X106131898Y44686853D01*
X106226853Y44591898D01*
X106343147Y44524755D01*
X106346656Y44523815D01*
X105832959Y44010119D01*
X105771636Y43976634D01*
X105745278Y43973800D01*
X105041636Y43973800D01*
X104974597Y43993485D01*
X104928842Y44046289D01*
X104918898Y44115447D01*
X104947923Y44179003D01*
X104953725Y44185235D01*
X104953813Y44185340D01*
X104953828Y44185354D01*
X105069524Y44344595D01*
X105158884Y44519975D01*
X105178618Y44580713D01*
X105218056Y44638386D01*
X105282415Y44665584D01*
X105351261Y44653669D01*
X105402737Y44606425D01*
X105414480Y44580710D01*
X105427914Y44539363D01*
X105513666Y44371067D01*
X105561872Y44304716D01*
X106063814Y44806658D01*
X106064755Y44803147D01*
G37*
%TD.AperFunction*%
%TA.AperFunction,Conductor*%
G36*
X48792539Y108896215D02*
G01*
X48838294Y108843411D01*
X48849500Y108791900D01*
X48849500Y107075322D01*
X48864032Y107002265D01*
X48864033Y107002261D01*
X48866127Y106999127D01*
X48919399Y106919399D01*
X49002260Y106864034D01*
X49002264Y106864033D01*
X49075321Y106849501D01*
X49075324Y106849500D01*
X49842869Y106849500D01*
X49909908Y106829815D01*
X49955663Y106777011D01*
X49965607Y106707853D01*
X49936582Y106644297D01*
X49877804Y106606523D01*
X49862267Y106603027D01*
X49730589Y106582171D01*
X49558363Y106526213D01*
X49558360Y106526212D01*
X49397002Y106443994D01*
X49250505Y106337559D01*
X49250500Y106337555D01*
X49122445Y106209500D01*
X49122441Y106209495D01*
X49016006Y106062998D01*
X48933788Y105901640D01*
X48933787Y105901637D01*
X48877829Y105729411D01*
X48849500Y105550552D01*
X48849500Y105369449D01*
X48877829Y105190590D01*
X48933787Y105018364D01*
X48933788Y105018361D01*
X49016006Y104857003D01*
X49122441Y104710506D01*
X49122445Y104710501D01*
X49250500Y104582446D01*
X49250505Y104582442D01*
X49354818Y104506655D01*
X49397006Y104476004D01*
X49484018Y104431669D01*
X49558360Y104393789D01*
X49558363Y104393788D01*
X49644476Y104365809D01*
X49730591Y104337829D01*
X49803639Y104326260D01*
X49890678Y104312473D01*
X49953813Y104282544D01*
X49990744Y104223232D01*
X49989746Y104153369D01*
X49951136Y104095137D01*
X49890678Y104067527D01*
X49730589Y104042171D01*
X49558363Y103986213D01*
X49558360Y103986212D01*
X49397002Y103903994D01*
X49250505Y103797559D01*
X49250500Y103797555D01*
X49122445Y103669500D01*
X49122441Y103669495D01*
X49016006Y103522998D01*
X48933788Y103361640D01*
X48933787Y103361637D01*
X48877829Y103189411D01*
X48849500Y103010552D01*
X48849500Y102829449D01*
X48877829Y102650590D01*
X48933787Y102478364D01*
X48933788Y102478361D01*
X49016006Y102317003D01*
X49122441Y102170506D01*
X49122445Y102170501D01*
X49250500Y102042446D01*
X49250505Y102042442D01*
X49336450Y101980000D01*
X49397006Y101936004D01*
X49489219Y101889019D01*
X49558360Y101853789D01*
X49558363Y101853788D01*
X49603942Y101838979D01*
X49730591Y101797829D01*
X49803639Y101786260D01*
X49890678Y101772473D01*
X49953813Y101742544D01*
X49990744Y101683232D01*
X49989746Y101613369D01*
X49951136Y101555137D01*
X49890678Y101527527D01*
X49730589Y101502171D01*
X49558363Y101446213D01*
X49558360Y101446212D01*
X49397002Y101363994D01*
X49250505Y101257559D01*
X49250500Y101257555D01*
X49122445Y101129500D01*
X49122441Y101129495D01*
X49016006Y100982998D01*
X48933788Y100821640D01*
X48933787Y100821637D01*
X48877829Y100649411D01*
X48849500Y100470552D01*
X48849500Y100289449D01*
X48877829Y100110590D01*
X48933787Y99938364D01*
X48933788Y99938361D01*
X49016006Y99777003D01*
X49122441Y99630506D01*
X49122445Y99630501D01*
X49250500Y99502446D01*
X49250505Y99502442D01*
X49305498Y99462488D01*
X49397006Y99396004D01*
X49484018Y99351669D01*
X49558360Y99313789D01*
X49558363Y99313788D01*
X49604822Y99298693D01*
X49730591Y99257829D01*
X49803639Y99246260D01*
X49890678Y99232473D01*
X49953813Y99202544D01*
X49990744Y99143232D01*
X49989746Y99073369D01*
X49951136Y99015137D01*
X49890678Y98987527D01*
X49730589Y98962171D01*
X49558363Y98906213D01*
X49558360Y98906212D01*
X49397002Y98823994D01*
X49250505Y98717559D01*
X49250500Y98717555D01*
X49122445Y98589500D01*
X49122441Y98589495D01*
X49016006Y98442998D01*
X48933788Y98281640D01*
X48933787Y98281637D01*
X48877829Y98109411D01*
X48849500Y97930552D01*
X48849500Y97749449D01*
X48877829Y97570590D01*
X48933787Y97398364D01*
X48933788Y97398361D01*
X49016006Y97237003D01*
X49122441Y97090506D01*
X49122445Y97090501D01*
X49250500Y96962446D01*
X49250505Y96962442D01*
X49378287Y96869604D01*
X49397006Y96856004D01*
X49484018Y96811669D01*
X49558360Y96773789D01*
X49558363Y96773788D01*
X49644476Y96745809D01*
X49730591Y96717829D01*
X49801072Y96706666D01*
X49890678Y96692473D01*
X49953813Y96662544D01*
X49990744Y96603232D01*
X49989746Y96533369D01*
X49951136Y96475137D01*
X49890678Y96447527D01*
X49730589Y96422171D01*
X49558363Y96366213D01*
X49558360Y96366212D01*
X49397002Y96283994D01*
X49250505Y96177559D01*
X49250500Y96177555D01*
X49122445Y96049500D01*
X49122441Y96049495D01*
X49016006Y95902998D01*
X48933788Y95741640D01*
X48933787Y95741637D01*
X48877829Y95569411D01*
X48849500Y95390552D01*
X48849500Y95209449D01*
X48877829Y95030590D01*
X48933787Y94858364D01*
X48933788Y94858361D01*
X49016006Y94697003D01*
X49122441Y94550506D01*
X49122445Y94550501D01*
X49250500Y94422446D01*
X49250505Y94422442D01*
X49378287Y94329604D01*
X49397006Y94316004D01*
X49484018Y94271669D01*
X49558360Y94233789D01*
X49558363Y94233788D01*
X49644476Y94205809D01*
X49730591Y94177829D01*
X49803639Y94166260D01*
X49890678Y94152473D01*
X49953813Y94122544D01*
X49990744Y94063232D01*
X49989746Y93993369D01*
X49951136Y93935137D01*
X49890678Y93907527D01*
X49730589Y93882171D01*
X49558363Y93826213D01*
X49558360Y93826212D01*
X49397002Y93743994D01*
X49250505Y93637559D01*
X49250500Y93637555D01*
X49122445Y93509500D01*
X49122441Y93509495D01*
X49016006Y93362998D01*
X48933788Y93201640D01*
X48933787Y93201637D01*
X48877829Y93029411D01*
X48849500Y92850552D01*
X48849500Y92669449D01*
X48877829Y92490590D01*
X48933787Y92318364D01*
X48933788Y92318361D01*
X48967153Y92252880D01*
X49005148Y92178311D01*
X49016006Y92157003D01*
X49122441Y92010506D01*
X49122445Y92010501D01*
X49250500Y91882446D01*
X49250505Y91882442D01*
X49378287Y91789604D01*
X49397006Y91776004D01*
X49484018Y91731669D01*
X49558360Y91693789D01*
X49558363Y91693788D01*
X49644476Y91665809D01*
X49730591Y91637829D01*
X49803639Y91626260D01*
X49890678Y91612473D01*
X49953813Y91582544D01*
X49990744Y91523232D01*
X49989746Y91453369D01*
X49951136Y91395137D01*
X49890678Y91367527D01*
X49730589Y91342171D01*
X49558363Y91286213D01*
X49558360Y91286212D01*
X49397002Y91203994D01*
X49250505Y91097559D01*
X49250500Y91097555D01*
X49122445Y90969500D01*
X49122441Y90969495D01*
X49016006Y90822998D01*
X48933788Y90661640D01*
X48933787Y90661637D01*
X48877829Y90489411D01*
X48849500Y90310552D01*
X48849500Y90129449D01*
X48877829Y89950590D01*
X48933787Y89778364D01*
X48933788Y89778361D01*
X49016006Y89617003D01*
X49122441Y89470506D01*
X49122445Y89470501D01*
X49250500Y89342446D01*
X49250505Y89342442D01*
X49336450Y89280000D01*
X49397006Y89236004D01*
X49502484Y89182260D01*
X49558360Y89153789D01*
X49558363Y89153788D01*
X49644476Y89125809D01*
X49730591Y89097829D01*
X49803639Y89086260D01*
X49890678Y89072473D01*
X49953813Y89042544D01*
X49990744Y88983232D01*
X49989746Y88913369D01*
X49951136Y88855137D01*
X49890678Y88827527D01*
X49730589Y88802171D01*
X49558363Y88746213D01*
X49558360Y88746212D01*
X49397002Y88663994D01*
X49250505Y88557559D01*
X49250500Y88557555D01*
X49122445Y88429500D01*
X49122441Y88429495D01*
X49016006Y88282998D01*
X48933788Y88121640D01*
X48933787Y88121637D01*
X48877829Y87949411D01*
X48849500Y87770552D01*
X48849500Y87589449D01*
X48877829Y87410590D01*
X48933787Y87238364D01*
X48933788Y87238361D01*
X49016006Y87077003D01*
X49122441Y86930506D01*
X49122445Y86930501D01*
X49250500Y86802446D01*
X49250505Y86802442D01*
X49378287Y86709604D01*
X49397006Y86696004D01*
X49484016Y86651670D01*
X49558360Y86613789D01*
X49558363Y86613788D01*
X49644476Y86585809D01*
X49730591Y86557829D01*
X49803639Y86546260D01*
X49890678Y86532473D01*
X49953813Y86502544D01*
X49990744Y86443232D01*
X49989746Y86373369D01*
X49951136Y86315137D01*
X49890678Y86287527D01*
X49730589Y86262171D01*
X49558363Y86206213D01*
X49558360Y86206212D01*
X49397002Y86123994D01*
X49250505Y86017559D01*
X49250500Y86017555D01*
X49122445Y85889500D01*
X49122441Y85889495D01*
X49016006Y85742998D01*
X48933788Y85581640D01*
X48933787Y85581637D01*
X48877829Y85409411D01*
X48849500Y85230552D01*
X48849500Y85049449D01*
X48877829Y84870590D01*
X48933787Y84698364D01*
X48933788Y84698361D01*
X49016006Y84537003D01*
X49122441Y84390506D01*
X49122445Y84390501D01*
X49250500Y84262446D01*
X49250505Y84262442D01*
X49342955Y84195274D01*
X49397006Y84156004D01*
X49502484Y84102260D01*
X49558360Y84073789D01*
X49558363Y84073788D01*
X49644476Y84045809D01*
X49730591Y84017829D01*
X49803639Y84006260D01*
X49890678Y83992473D01*
X49953813Y83962544D01*
X49990744Y83903232D01*
X49989746Y83833369D01*
X49951136Y83775137D01*
X49890678Y83747527D01*
X49730589Y83722171D01*
X49558363Y83666213D01*
X49558360Y83666212D01*
X49397002Y83583994D01*
X49250505Y83477559D01*
X49250500Y83477555D01*
X49122445Y83349500D01*
X49122441Y83349495D01*
X49016006Y83202998D01*
X48933788Y83041640D01*
X48933787Y83041637D01*
X48877829Y82869411D01*
X48849500Y82690552D01*
X48849500Y82509449D01*
X48877829Y82330590D01*
X48933787Y82158364D01*
X48933788Y82158361D01*
X49016006Y81997003D01*
X49122441Y81850506D01*
X49122445Y81850501D01*
X49250500Y81722446D01*
X49250505Y81722442D01*
X49378287Y81629604D01*
X49397006Y81616004D01*
X49484018Y81571669D01*
X49558360Y81533789D01*
X49558363Y81533788D01*
X49644476Y81505809D01*
X49730591Y81477829D01*
X49803639Y81466260D01*
X49890678Y81452473D01*
X49953813Y81422544D01*
X49990744Y81363232D01*
X49989746Y81293369D01*
X49951136Y81235137D01*
X49890678Y81207527D01*
X49730589Y81182171D01*
X49558363Y81126213D01*
X49558360Y81126212D01*
X49397002Y81043994D01*
X49250505Y80937559D01*
X49250500Y80937555D01*
X49122445Y80809500D01*
X49122441Y80809495D01*
X49016006Y80662998D01*
X48933788Y80501640D01*
X48933787Y80501637D01*
X48877829Y80329411D01*
X48849500Y80150552D01*
X48849500Y79969449D01*
X48877829Y79790590D01*
X48933787Y79618364D01*
X48933788Y79618361D01*
X49016006Y79457003D01*
X49122441Y79310506D01*
X49122445Y79310501D01*
X49250500Y79182446D01*
X49250505Y79182442D01*
X49365538Y79098867D01*
X49397006Y79076004D01*
X49484018Y79031669D01*
X49558360Y78993789D01*
X49558363Y78993788D01*
X49621599Y78973242D01*
X49730591Y78937829D01*
X49803639Y78926260D01*
X49890678Y78912473D01*
X49953813Y78882544D01*
X49990744Y78823232D01*
X49989746Y78753369D01*
X49951136Y78695137D01*
X49890678Y78667527D01*
X49730589Y78642171D01*
X49558363Y78586213D01*
X49558360Y78586212D01*
X49397002Y78503994D01*
X49250505Y78397559D01*
X49250500Y78397555D01*
X49122445Y78269500D01*
X49122441Y78269495D01*
X49016006Y78122998D01*
X48933788Y77961640D01*
X48933787Y77961637D01*
X48877829Y77789411D01*
X48849500Y77610552D01*
X48849500Y77429449D01*
X48877829Y77250590D01*
X48933787Y77078364D01*
X48933788Y77078361D01*
X49016006Y76917003D01*
X49122441Y76770506D01*
X49122445Y76770501D01*
X49250500Y76642446D01*
X49250505Y76642442D01*
X49336450Y76580000D01*
X49397006Y76536004D01*
X49502484Y76482260D01*
X49558360Y76453789D01*
X49558363Y76453788D01*
X49613757Y76435790D01*
X49730591Y76397829D01*
X49803639Y76386260D01*
X49890678Y76372473D01*
X49953813Y76342544D01*
X49990744Y76283232D01*
X49989746Y76213369D01*
X49951136Y76155137D01*
X49890678Y76127527D01*
X49730589Y76102171D01*
X49558363Y76046213D01*
X49558360Y76046212D01*
X49397002Y75963994D01*
X49250505Y75857559D01*
X49250500Y75857555D01*
X49122445Y75729500D01*
X49122441Y75729495D01*
X49016006Y75582998D01*
X48933788Y75421640D01*
X48933787Y75421637D01*
X48877829Y75249411D01*
X48849500Y75070552D01*
X48849500Y74889449D01*
X48877829Y74710590D01*
X48933787Y74538364D01*
X48933788Y74538361D01*
X48973716Y74460000D01*
X49015290Y74378407D01*
X49016006Y74377003D01*
X49122441Y74230506D01*
X49122445Y74230501D01*
X49250500Y74102446D01*
X49250505Y74102442D01*
X49378287Y74009604D01*
X49397006Y73996004D01*
X49484018Y73951669D01*
X49558360Y73913789D01*
X49558363Y73913788D01*
X49644476Y73885809D01*
X49730591Y73857829D01*
X49803639Y73846260D01*
X49890678Y73832473D01*
X49953813Y73802544D01*
X49990744Y73743232D01*
X49989746Y73673369D01*
X49951136Y73615137D01*
X49890678Y73587527D01*
X49730589Y73562171D01*
X49558363Y73506213D01*
X49558360Y73506212D01*
X49397002Y73423994D01*
X49250505Y73317559D01*
X49250500Y73317555D01*
X49169865Y73236919D01*
X49108542Y73203434D01*
X49082184Y73200600D01*
X48899174Y73200600D01*
X48858988Y73208593D01*
X48858659Y73207579D01*
X48666828Y73269909D01*
X48472421Y73300700D01*
X48472416Y73300700D01*
X48275583Y73300700D01*
X48275578Y73300700D01*
X48081173Y73269910D01*
X47893969Y73209083D01*
X47718594Y73119724D01*
X47627741Y73053715D01*
X47559354Y73004028D01*
X47559352Y73004026D01*
X47559350Y73004025D01*
X47336481Y72781156D01*
X47275158Y72747671D01*
X47205466Y72752655D01*
X47161119Y72781156D01*
X36586748Y83355526D01*
X36586746Y83355528D01*
X36427505Y83471224D01*
X36415072Y83477559D01*
X36252130Y83560583D01*
X36064926Y83621410D01*
X35870522Y83652200D01*
X35870517Y83652200D01*
X27054519Y83652200D01*
X26987480Y83671885D01*
X26941725Y83724689D01*
X26931781Y83793847D01*
X26960806Y83857403D01*
X26998224Y83886685D01*
X27168937Y83973669D01*
X27235284Y84021874D01*
X27235285Y84021874D01*
X26733343Y84523815D01*
X26736853Y84524755D01*
X26853147Y84591898D01*
X26948102Y84686853D01*
X27015245Y84803147D01*
X27016185Y84806656D01*
X27518126Y84304715D01*
X27518126Y84304716D01*
X27566331Y84371063D01*
X27652085Y84539363D01*
X27710451Y84718998D01*
X27740000Y84905553D01*
X27740000Y85094448D01*
X27710451Y85281003D01*
X27652085Y85460638D01*
X27566329Y85628941D01*
X27518127Y85695286D01*
X27518126Y85695287D01*
X27016185Y85193345D01*
X27015245Y85196853D01*
X26948102Y85313147D01*
X26853147Y85408102D01*
X26736853Y85475245D01*
X26733343Y85476186D01*
X27235284Y85978128D01*
X27168933Y86026334D01*
X27000637Y86112086D01*
X26821002Y86170452D01*
X26634447Y86200000D01*
X26445553Y86200000D01*
X26258997Y86170452D01*
X26079362Y86112086D01*
X25911064Y86026333D01*
X25911062Y86026332D01*
X25844714Y85978129D01*
X25844714Y85978128D01*
X26346656Y85476186D01*
X26343147Y85475245D01*
X26226853Y85408102D01*
X26131898Y85313147D01*
X26064755Y85196853D01*
X26063814Y85193344D01*
X25561872Y85695286D01*
X25561871Y85695286D01*
X25513668Y85628938D01*
X25513667Y85628936D01*
X25427915Y85460639D01*
X25414480Y85419290D01*
X25375042Y85361615D01*
X25310683Y85334417D01*
X25241837Y85346332D01*
X25190361Y85393576D01*
X25178618Y85419290D01*
X25172921Y85436823D01*
X25158884Y85480025D01*
X25158882Y85480028D01*
X25158882Y85480030D01*
X25101669Y85592316D01*
X25069524Y85655405D01*
X24953828Y85814646D01*
X24814646Y85953828D01*
X24655405Y86069524D01*
X24633665Y86080601D01*
X24480029Y86158883D01*
X24292826Y86219710D01*
X24098422Y86250500D01*
X24098417Y86250500D01*
X23901583Y86250500D01*
X23901578Y86250500D01*
X23707173Y86219710D01*
X23519970Y86158883D01*
X23344594Y86069524D01*
X23273066Y86017555D01*
X23185354Y85953828D01*
X23185352Y85953826D01*
X23185351Y85953826D01*
X23046174Y85814649D01*
X23046174Y85814648D01*
X23046172Y85814646D01*
X23020658Y85779529D01*
X22930476Y85655406D01*
X22844985Y85487619D01*
X22797011Y85436823D01*
X22729190Y85420028D01*
X22663055Y85442565D01*
X22619603Y85497280D01*
X22610500Y85543914D01*
X22610500Y85924677D01*
X22610499Y85924679D01*
X22595967Y85997736D01*
X22595966Y85997740D01*
X22540601Y86080601D01*
X22457740Y86135966D01*
X22457739Y86135967D01*
X22457735Y86135968D01*
X22384677Y86150500D01*
X22384674Y86150500D01*
X22174555Y86150500D01*
X22107516Y86170185D01*
X22061761Y86222989D01*
X22051817Y86292147D01*
X22080842Y86355703D01*
X22086874Y86362181D01*
X30920538Y95195845D01*
X39768180Y104043487D01*
X39820907Y104134812D01*
X39848200Y104236673D01*
X39848200Y104342127D01*
X39848200Y108791900D01*
X39867885Y108858939D01*
X39920689Y108904694D01*
X39972200Y108915900D01*
X48725500Y108915900D01*
X48792539Y108896215D01*
G37*
%TD.AperFunction*%
%TA.AperFunction,Conductor*%
G36*
X110042539Y119479815D02*
G01*
X110088294Y119427011D01*
X110099500Y119375500D01*
X110099500Y117915322D01*
X110114032Y117842265D01*
X110114033Y117842261D01*
X110114034Y117842260D01*
X110169399Y117759399D01*
X110252260Y117704034D01*
X110252264Y117704033D01*
X110325321Y117689501D01*
X110325324Y117689500D01*
X110325326Y117689500D01*
X111894676Y117689500D01*
X111894677Y117689501D01*
X111967740Y117704034D01*
X112050601Y117759399D01*
X112105966Y117842260D01*
X112120500Y117915326D01*
X112120500Y119375500D01*
X112140185Y119442539D01*
X112192989Y119488294D01*
X112244500Y119499500D01*
X127976903Y119499500D01*
X128043942Y119479815D01*
X128089697Y119427011D01*
X128099641Y119357853D01*
X128080005Y119306609D01*
X127994510Y119178658D01*
X127994505Y119178648D01*
X127918333Y118994753D01*
X127918331Y118994745D01*
X127879500Y118799531D01*
X127879500Y118600470D01*
X127918331Y118405256D01*
X127918333Y118405248D01*
X127994505Y118221353D01*
X127994510Y118221343D01*
X128105093Y118055845D01*
X128105096Y118055841D01*
X128245840Y117915097D01*
X128245844Y117915094D01*
X128411342Y117804511D01*
X128411346Y117804509D01*
X128411349Y117804507D01*
X128595248Y117728333D01*
X128760215Y117695519D01*
X128790469Y117689501D01*
X128790472Y117689500D01*
X128790474Y117689500D01*
X128989528Y117689500D01*
X128989529Y117689501D01*
X129184752Y117728333D01*
X129368651Y117804507D01*
X129534156Y117915094D01*
X129674906Y118055844D01*
X129785493Y118221349D01*
X129861667Y118405248D01*
X129900500Y118600474D01*
X129900500Y118799526D01*
X129900500Y118799529D01*
X129900499Y118799531D01*
X129861668Y118994745D01*
X129861667Y118994752D01*
X129785493Y119178651D01*
X129785491Y119178654D01*
X129785489Y119178658D01*
X129699995Y119306609D01*
X129679117Y119373287D01*
X129697602Y119440667D01*
X129749581Y119487357D01*
X129803097Y119499500D01*
X329375500Y119499500D01*
X329442539Y119479815D01*
X329488294Y119427011D01*
X329499500Y119375500D01*
X329499500Y624500D01*
X329479815Y557461D01*
X329427011Y511706D01*
X329375500Y500500D01*
X624500Y500500D01*
X557461Y520185D01*
X511706Y572989D01*
X500500Y624500D01*
X500500Y6000000D01*
X2000000Y6000000D01*
X2019261Y5607932D01*
X2019261Y5607926D01*
X2019262Y5607924D01*
X2076859Y5219632D01*
X2172241Y4838852D01*
X2304473Y4469287D01*
X2304481Y4469267D01*
X2472315Y4114411D01*
X2674119Y3777723D01*
X2907962Y3462422D01*
X3171571Y3171573D01*
X3462420Y2907964D01*
X3462426Y2907959D01*
X3777719Y2674122D01*
X3777721Y2674121D01*
X4114409Y2472317D01*
X4114412Y2472316D01*
X4114413Y2472315D01*
X4469266Y2304482D01*
X4469280Y2304477D01*
X4469285Y2304475D01*
X4749681Y2204148D01*
X4838861Y2172239D01*
X5219638Y2076859D01*
X5607931Y2019262D01*
X6000000Y2000000D01*
X6392068Y2019262D01*
X6780361Y2076859D01*
X7161138Y2172239D01*
X7530733Y2304482D01*
X7885586Y2472315D01*
X8222280Y2674122D01*
X8537573Y2907959D01*
X8828427Y3171573D01*
X9092041Y3462427D01*
X9325878Y3777720D01*
X9527685Y4114414D01*
X9695518Y4469267D01*
X9827761Y4838862D01*
X9923141Y5219639D01*
X9980738Y5607932D01*
X10000000Y6000000D01*
X46000000Y6000000D01*
X46019261Y5607932D01*
X46019261Y5607926D01*
X46019262Y5607924D01*
X46076859Y5219632D01*
X46172241Y4838852D01*
X46304473Y4469287D01*
X46304481Y4469267D01*
X46472315Y4114411D01*
X46674119Y3777723D01*
X46907962Y3462422D01*
X47171571Y3171573D01*
X47462420Y2907964D01*
X47462426Y2907959D01*
X47777719Y2674122D01*
X47777721Y2674121D01*
X48114409Y2472317D01*
X48114412Y2472316D01*
X48114413Y2472315D01*
X48469266Y2304482D01*
X48469280Y2304477D01*
X48469285Y2304475D01*
X48749681Y2204148D01*
X48838861Y2172239D01*
X49219638Y2076859D01*
X49607931Y2019262D01*
X50000000Y2000000D01*
X50392068Y2019262D01*
X50780361Y2076859D01*
X51161138Y2172239D01*
X51530733Y2304482D01*
X51885586Y2472315D01*
X52222280Y2674122D01*
X52537573Y2907959D01*
X52828427Y3171573D01*
X53092041Y3462427D01*
X53325878Y3777720D01*
X53527685Y4114414D01*
X53695518Y4469267D01*
X53827761Y4838862D01*
X53923141Y5219639D01*
X53980738Y5607932D01*
X54000000Y6000000D01*
X151000000Y6000000D01*
X151019261Y5607932D01*
X151019261Y5607926D01*
X151019262Y5607924D01*
X151076859Y5219632D01*
X151172241Y4838852D01*
X151304473Y4469287D01*
X151304481Y4469267D01*
X151472315Y4114411D01*
X151674119Y3777723D01*
X151907962Y3462422D01*
X152171571Y3171573D01*
X152462420Y2907964D01*
X152462426Y2907959D01*
X152777719Y2674122D01*
X152777721Y2674121D01*
X153114409Y2472317D01*
X153114412Y2472316D01*
X153114413Y2472315D01*
X153469266Y2304482D01*
X153469280Y2304477D01*
X153469285Y2304475D01*
X153749681Y2204148D01*
X153838861Y2172239D01*
X154219638Y2076859D01*
X154607931Y2019262D01*
X155000000Y2000000D01*
X155392068Y2019262D01*
X155780361Y2076859D01*
X156161138Y2172239D01*
X156530733Y2304482D01*
X156885586Y2472315D01*
X157222280Y2674122D01*
X157537573Y2907959D01*
X157828427Y3171573D01*
X158092041Y3462427D01*
X158325878Y3777720D01*
X158527685Y4114414D01*
X158695518Y4469267D01*
X158827761Y4838862D01*
X158923141Y5219639D01*
X158980738Y5607932D01*
X159000000Y6000000D01*
X253000000Y6000000D01*
X253019261Y5607932D01*
X253019261Y5607926D01*
X253019262Y5607924D01*
X253076859Y5219632D01*
X253172241Y4838852D01*
X253304473Y4469287D01*
X253304481Y4469267D01*
X253472315Y4114411D01*
X253674119Y3777723D01*
X253907962Y3462422D01*
X254171571Y3171573D01*
X254462420Y2907964D01*
X254462426Y2907959D01*
X254777719Y2674122D01*
X254777721Y2674121D01*
X255114409Y2472317D01*
X255114412Y2472316D01*
X255114413Y2472315D01*
X255469266Y2304482D01*
X255469280Y2304477D01*
X255469285Y2304475D01*
X255749681Y2204148D01*
X255838861Y2172239D01*
X256219638Y2076859D01*
X256607931Y2019262D01*
X257000000Y2000000D01*
X257392068Y2019262D01*
X257780361Y2076859D01*
X258161138Y2172239D01*
X258530733Y2304482D01*
X258885586Y2472315D01*
X259222280Y2674122D01*
X259537573Y2907959D01*
X259828427Y3171573D01*
X260092041Y3462427D01*
X260325878Y3777720D01*
X260527685Y4114414D01*
X260695518Y4469267D01*
X260827761Y4838862D01*
X260923141Y5219639D01*
X260980738Y5607932D01*
X261000000Y6000000D01*
X287000000Y6000000D01*
X287019261Y5607932D01*
X287019261Y5607926D01*
X287019262Y5607924D01*
X287076859Y5219632D01*
X287172241Y4838852D01*
X287304473Y4469287D01*
X287304481Y4469267D01*
X287472315Y4114411D01*
X287674119Y3777723D01*
X287907962Y3462422D01*
X288171571Y3171573D01*
X288462420Y2907964D01*
X288462426Y2907959D01*
X288777719Y2674122D01*
X288777721Y2674121D01*
X289114409Y2472317D01*
X289114412Y2472316D01*
X289114413Y2472315D01*
X289469266Y2304482D01*
X289469280Y2304477D01*
X289469285Y2304475D01*
X289749681Y2204148D01*
X289838861Y2172239D01*
X290219638Y2076859D01*
X290607931Y2019262D01*
X291000000Y2000000D01*
X291392068Y2019262D01*
X291780361Y2076859D01*
X292161138Y2172239D01*
X292530733Y2304482D01*
X292885586Y2472315D01*
X293222280Y2674122D01*
X293537573Y2907959D01*
X293828427Y3171573D01*
X294092041Y3462427D01*
X294325878Y3777720D01*
X294527685Y4114414D01*
X294695518Y4469267D01*
X294827761Y4838862D01*
X294923141Y5219639D01*
X294980738Y5607932D01*
X295000000Y6000000D01*
X320000000Y6000000D01*
X320019261Y5607932D01*
X320019261Y5607926D01*
X320019262Y5607924D01*
X320076859Y5219632D01*
X320172241Y4838852D01*
X320304473Y4469287D01*
X320304481Y4469267D01*
X320472315Y4114411D01*
X320674119Y3777723D01*
X320907962Y3462422D01*
X321171571Y3171573D01*
X321462420Y2907964D01*
X321462426Y2907959D01*
X321777719Y2674122D01*
X321777721Y2674121D01*
X322114409Y2472317D01*
X322114412Y2472316D01*
X322114413Y2472315D01*
X322469266Y2304482D01*
X322469280Y2304477D01*
X322469285Y2304475D01*
X322749681Y2204148D01*
X322838861Y2172239D01*
X323219638Y2076859D01*
X323607931Y2019262D01*
X324000000Y2000000D01*
X324392068Y2019262D01*
X324780361Y2076859D01*
X325161138Y2172239D01*
X325530733Y2304482D01*
X325885586Y2472315D01*
X326222280Y2674122D01*
X326537573Y2907959D01*
X326828427Y3171573D01*
X327092041Y3462427D01*
X327325878Y3777720D01*
X327527685Y4114414D01*
X327695518Y4469267D01*
X327827761Y4838862D01*
X327923141Y5219639D01*
X327980738Y5607932D01*
X328000000Y6000000D01*
X327980738Y6392069D01*
X327923141Y6780362D01*
X327827761Y7161139D01*
X327695518Y7530734D01*
X327527685Y7885587D01*
X327325878Y8222281D01*
X327092041Y8537574D01*
X327092036Y8537580D01*
X326828427Y8828429D01*
X326537578Y9092038D01*
X326222277Y9325881D01*
X325885589Y9527685D01*
X325530733Y9695519D01*
X325530713Y9695527D01*
X325161148Y9827759D01*
X325161142Y9827761D01*
X325161138Y9827762D01*
X325010145Y9865584D01*
X324780368Y9923141D01*
X324392076Y9980738D01*
X324392074Y9980739D01*
X324392068Y9980739D01*
X324000000Y10000000D01*
X323999999Y10000000D01*
X323968266Y9998442D01*
X323607931Y9980739D01*
X323607925Y9980739D01*
X323607922Y9980738D01*
X323219630Y9923141D01*
X322913458Y9846448D01*
X322838861Y9827762D01*
X322838858Y9827762D01*
X322838850Y9827759D01*
X322469285Y9695527D01*
X322469265Y9695519D01*
X322114409Y9527685D01*
X321777721Y9325881D01*
X321462420Y9092038D01*
X321171571Y8828429D01*
X320907962Y8537580D01*
X320674119Y8222279D01*
X320472315Y7885591D01*
X320304481Y7530735D01*
X320304473Y7530715D01*
X320172241Y7161150D01*
X320076859Y6780370D01*
X320076858Y6780362D01*
X320019261Y6392069D01*
X320000000Y6000000D01*
X295000000Y6000000D01*
X294980738Y6392069D01*
X294923141Y6780362D01*
X294827761Y7161139D01*
X294695518Y7530734D01*
X294527685Y7885587D01*
X294325878Y8222281D01*
X294092041Y8537574D01*
X294092036Y8537580D01*
X293828427Y8828429D01*
X293537578Y9092038D01*
X293222277Y9325881D01*
X292885589Y9527685D01*
X292530733Y9695519D01*
X292530713Y9695527D01*
X292161148Y9827759D01*
X292161142Y9827761D01*
X292161138Y9827762D01*
X292010145Y9865584D01*
X291780368Y9923141D01*
X291392076Y9980738D01*
X291392074Y9980739D01*
X291392068Y9980739D01*
X291000000Y10000000D01*
X290999999Y10000000D01*
X290968266Y9998442D01*
X290607931Y9980739D01*
X290607925Y9980739D01*
X290607922Y9980738D01*
X290219630Y9923141D01*
X289913458Y9846448D01*
X289838861Y9827762D01*
X289838858Y9827762D01*
X289838850Y9827759D01*
X289469285Y9695527D01*
X289469265Y9695519D01*
X289114409Y9527685D01*
X288777721Y9325881D01*
X288462420Y9092038D01*
X288171571Y8828429D01*
X287907962Y8537580D01*
X287674119Y8222279D01*
X287472315Y7885591D01*
X287304481Y7530735D01*
X287304473Y7530715D01*
X287172241Y7161150D01*
X287076859Y6780370D01*
X287076858Y6780362D01*
X287019261Y6392069D01*
X287000000Y6000000D01*
X261000000Y6000000D01*
X260980738Y6392069D01*
X260923141Y6780362D01*
X260827761Y7161139D01*
X260695518Y7530734D01*
X260527685Y7885587D01*
X260325878Y8222281D01*
X260092041Y8537574D01*
X260092036Y8537580D01*
X259828427Y8828429D01*
X259537578Y9092038D01*
X259222277Y9325881D01*
X258885589Y9527685D01*
X258530733Y9695519D01*
X258530713Y9695527D01*
X258161148Y9827759D01*
X258161142Y9827761D01*
X258161138Y9827762D01*
X258010145Y9865584D01*
X257780368Y9923141D01*
X257392076Y9980738D01*
X257392074Y9980739D01*
X257392068Y9980739D01*
X257000000Y10000000D01*
X256999999Y10000000D01*
X256968266Y9998442D01*
X256607931Y9980739D01*
X256607925Y9980739D01*
X256607922Y9980738D01*
X256219630Y9923141D01*
X255913458Y9846448D01*
X255838861Y9827762D01*
X255838858Y9827762D01*
X255838850Y9827759D01*
X255469285Y9695527D01*
X255469265Y9695519D01*
X255114409Y9527685D01*
X254777721Y9325881D01*
X254462420Y9092038D01*
X254171571Y8828429D01*
X253907962Y8537580D01*
X253674119Y8222279D01*
X253472315Y7885591D01*
X253304481Y7530735D01*
X253304473Y7530715D01*
X253172241Y7161150D01*
X253076859Y6780370D01*
X253076858Y6780362D01*
X253019261Y6392069D01*
X253000000Y6000000D01*
X159000000Y6000000D01*
X158980738Y6392069D01*
X158923141Y6780362D01*
X158827761Y7161139D01*
X158695518Y7530734D01*
X158527685Y7885587D01*
X158325878Y8222281D01*
X158092041Y8537574D01*
X158092036Y8537580D01*
X157828427Y8828429D01*
X157537578Y9092038D01*
X157222277Y9325881D01*
X156885589Y9527685D01*
X156530733Y9695519D01*
X156530713Y9695527D01*
X156161148Y9827759D01*
X156161142Y9827761D01*
X156161138Y9827762D01*
X156010145Y9865584D01*
X155780368Y9923141D01*
X155392076Y9980738D01*
X155392074Y9980739D01*
X155392068Y9980739D01*
X155000000Y10000000D01*
X154999999Y10000000D01*
X154968266Y9998442D01*
X154607931Y9980739D01*
X154607925Y9980739D01*
X154607922Y9980738D01*
X154219630Y9923141D01*
X153913458Y9846448D01*
X153838861Y9827762D01*
X153838858Y9827762D01*
X153838850Y9827759D01*
X153469285Y9695527D01*
X153469265Y9695519D01*
X153114409Y9527685D01*
X152777721Y9325881D01*
X152462420Y9092038D01*
X152171571Y8828429D01*
X151907962Y8537580D01*
X151674119Y8222279D01*
X151472315Y7885591D01*
X151304481Y7530735D01*
X151304473Y7530715D01*
X151172241Y7161150D01*
X151076859Y6780370D01*
X151076858Y6780362D01*
X151019261Y6392069D01*
X151000000Y6000000D01*
X54000000Y6000000D01*
X53980738Y6392069D01*
X53923141Y6780362D01*
X53827761Y7161139D01*
X53695518Y7530734D01*
X53527685Y7885587D01*
X53325878Y8222281D01*
X53092041Y8537574D01*
X53092036Y8537580D01*
X52828427Y8828429D01*
X52537578Y9092038D01*
X52222277Y9325881D01*
X51885589Y9527685D01*
X51530733Y9695519D01*
X51530713Y9695527D01*
X51161148Y9827759D01*
X51161142Y9827761D01*
X51161138Y9827762D01*
X51010145Y9865584D01*
X50780368Y9923141D01*
X50392076Y9980738D01*
X50392074Y9980739D01*
X50392068Y9980739D01*
X50000000Y10000000D01*
X49999999Y10000000D01*
X49968266Y9998442D01*
X49607931Y9980739D01*
X49607925Y9980739D01*
X49607922Y9980738D01*
X49219630Y9923141D01*
X48913458Y9846448D01*
X48838861Y9827762D01*
X48838858Y9827762D01*
X48838850Y9827759D01*
X48469285Y9695527D01*
X48469265Y9695519D01*
X48114409Y9527685D01*
X47777721Y9325881D01*
X47462420Y9092038D01*
X47171571Y8828429D01*
X46907962Y8537580D01*
X46674119Y8222279D01*
X46472315Y7885591D01*
X46304481Y7530735D01*
X46304473Y7530715D01*
X46172241Y7161150D01*
X46076859Y6780370D01*
X46076858Y6780362D01*
X46019261Y6392069D01*
X46000000Y6000000D01*
X10000000Y6000000D01*
X9980738Y6392069D01*
X9923141Y6780362D01*
X9827761Y7161139D01*
X9695518Y7530734D01*
X9527685Y7885587D01*
X9325878Y8222281D01*
X9092041Y8537574D01*
X9092036Y8537580D01*
X8828427Y8828429D01*
X8537578Y9092038D01*
X8222277Y9325881D01*
X7885589Y9527685D01*
X7530733Y9695519D01*
X7530713Y9695527D01*
X7161148Y9827759D01*
X7161142Y9827761D01*
X7161138Y9827762D01*
X7010145Y9865584D01*
X6780368Y9923141D01*
X6392076Y9980738D01*
X6392074Y9980739D01*
X6392068Y9980739D01*
X6000000Y10000000D01*
X5999999Y10000000D01*
X5968266Y9998442D01*
X5607931Y9980739D01*
X5607925Y9980739D01*
X5607922Y9980738D01*
X5219630Y9923141D01*
X4913458Y9846448D01*
X4838861Y9827762D01*
X4838858Y9827762D01*
X4838850Y9827759D01*
X4469285Y9695527D01*
X4469265Y9695519D01*
X4114409Y9527685D01*
X3777721Y9325881D01*
X3462420Y9092038D01*
X3171571Y8828429D01*
X2907962Y8537580D01*
X2674119Y8222279D01*
X2472315Y7885591D01*
X2304481Y7530735D01*
X2304473Y7530715D01*
X2172241Y7161150D01*
X2076859Y6780370D01*
X2076858Y6780362D01*
X2019261Y6392069D01*
X2000000Y6000000D01*
X500500Y6000000D01*
X500500Y13000000D01*
X11000000Y13000000D01*
X37000000Y13000000D01*
X57000000Y13000000D01*
X83000000Y13000000D01*
X91000000Y13000000D01*
X117000000Y13000000D01*
X125000000Y13000000D01*
X151000000Y13000000D01*
X159000000Y13000000D01*
X185000000Y13000000D01*
X193000000Y13000000D01*
X219000000Y13000000D01*
X227000000Y13000000D01*
X253000000Y13000000D01*
X261000000Y13000000D01*
X287000000Y13000000D01*
X295000000Y13000000D01*
X321000000Y13000000D01*
X321000000Y39000000D01*
X295000000Y39000000D01*
X295000000Y13000000D01*
X287000000Y13000000D01*
X287000000Y39000000D01*
X261000000Y39000000D01*
X261000000Y13000000D01*
X253000000Y13000000D01*
X253000000Y39000000D01*
X227000000Y39000000D01*
X227000000Y13000000D01*
X219000000Y13000000D01*
X219000000Y39000000D01*
X193000000Y39000000D01*
X193000000Y13000000D01*
X185000000Y13000000D01*
X185000000Y39000000D01*
X159000000Y39000000D01*
X159000000Y13000000D01*
X151000000Y13000000D01*
X151000000Y39000000D01*
X125000000Y39000000D01*
X125000000Y13000000D01*
X117000000Y13000000D01*
X117000000Y39000000D01*
X91000000Y39000000D01*
X91000000Y13000000D01*
X83000000Y13000000D01*
X83000000Y39000000D01*
X57000000Y39000000D01*
X57000000Y13000000D01*
X37000000Y13000000D01*
X37000000Y37000000D01*
X41000000Y37000000D01*
X41019261Y36607932D01*
X41019261Y36607926D01*
X41019262Y36607924D01*
X41076859Y36219632D01*
X41172241Y35838852D01*
X41304473Y35469287D01*
X41304481Y35469267D01*
X41472315Y35114411D01*
X41674119Y34777723D01*
X41907962Y34462422D01*
X42171571Y34171573D01*
X42462420Y33907964D01*
X42462426Y33907959D01*
X42777719Y33674122D01*
X42777721Y33674121D01*
X43114409Y33472317D01*
X43114412Y33472316D01*
X43114413Y33472315D01*
X43469266Y33304482D01*
X43469280Y33304477D01*
X43469285Y33304475D01*
X43749681Y33204148D01*
X43838861Y33172239D01*
X44219638Y33076859D01*
X44607931Y33019262D01*
X45000000Y33000000D01*
X45392068Y33019262D01*
X45780361Y33076859D01*
X46161138Y33172239D01*
X46530733Y33304482D01*
X46885586Y33472315D01*
X47222280Y33674122D01*
X47537573Y33907959D01*
X47828427Y34171573D01*
X48092041Y34462427D01*
X48325878Y34777720D01*
X48527685Y35114414D01*
X48695518Y35469267D01*
X48827761Y35838862D01*
X48923141Y36219639D01*
X48980738Y36607932D01*
X49000000Y37000000D01*
X48980738Y37392069D01*
X48923141Y37780362D01*
X48827761Y38161139D01*
X48695518Y38530734D01*
X48527685Y38885587D01*
X48325878Y39222281D01*
X48092041Y39537574D01*
X48092036Y39537580D01*
X47828427Y39828429D01*
X47537578Y40092038D01*
X47222277Y40325881D01*
X46885589Y40527685D01*
X46530733Y40695519D01*
X46530713Y40695527D01*
X46161148Y40827759D01*
X46161142Y40827761D01*
X46161138Y40827762D01*
X46010145Y40865584D01*
X45780368Y40923141D01*
X45392076Y40980738D01*
X45392074Y40980739D01*
X45392068Y40980739D01*
X45000000Y41000000D01*
X44999999Y41000000D01*
X44968266Y40998442D01*
X44607931Y40980739D01*
X44607925Y40980739D01*
X44607922Y40980738D01*
X44219630Y40923141D01*
X43913458Y40846448D01*
X43838861Y40827762D01*
X43838858Y40827762D01*
X43838850Y40827759D01*
X43469285Y40695527D01*
X43469265Y40695519D01*
X43114409Y40527685D01*
X42777721Y40325881D01*
X42462420Y40092038D01*
X42171571Y39828429D01*
X41907962Y39537580D01*
X41674119Y39222279D01*
X41472315Y38885591D01*
X41304481Y38530735D01*
X41304473Y38530715D01*
X41172241Y38161150D01*
X41076859Y37780370D01*
X41076858Y37780362D01*
X41019261Y37392069D01*
X41000000Y37000000D01*
X37000000Y37000000D01*
X37000000Y39000000D01*
X11000000Y39000000D01*
X11000000Y13000000D01*
X500500Y13000000D01*
X500500Y46000000D01*
X4000000Y46000000D01*
X4019261Y45607932D01*
X4019261Y45607926D01*
X4019262Y45607924D01*
X4076859Y45219632D01*
X4126984Y45019526D01*
X4171234Y44842869D01*
X4172241Y44838852D01*
X4304473Y44469287D01*
X4304481Y44469267D01*
X4472315Y44114411D01*
X4652866Y43813181D01*
X4674121Y43777720D01*
X4782139Y43632074D01*
X4907962Y43462422D01*
X5171571Y43171573D01*
X5380734Y42982000D01*
X5462426Y42907959D01*
X5777719Y42674122D01*
X5777721Y42674121D01*
X6114409Y42472317D01*
X6114412Y42472316D01*
X6114413Y42472315D01*
X6469266Y42304482D01*
X6469280Y42304477D01*
X6469285Y42304475D01*
X6749681Y42204148D01*
X6838861Y42172239D01*
X7219638Y42076859D01*
X7607931Y42019262D01*
X8000000Y42000000D01*
X8392068Y42019262D01*
X8780361Y42076859D01*
X9161138Y42172239D01*
X9530733Y42304482D01*
X9885586Y42472315D01*
X10222280Y42674122D01*
X10537573Y42907959D01*
X10828427Y43171573D01*
X11092041Y43462427D01*
X11325878Y43777720D01*
X11527685Y44114414D01*
X11695518Y44469267D01*
X11827761Y44838862D01*
X11923141Y45219639D01*
X11980738Y45607932D01*
X12000000Y46000000D01*
X11980738Y46392069D01*
X11923141Y46780362D01*
X11827761Y47161139D01*
X11695518Y47530734D01*
X11527685Y47885587D01*
X11325878Y48222281D01*
X11092041Y48537574D01*
X11092036Y48537580D01*
X10828427Y48828429D01*
X10537578Y49092038D01*
X10532334Y49095927D01*
X10222280Y49325879D01*
X10162333Y49361810D01*
X9885589Y49527685D01*
X9530733Y49695519D01*
X9530713Y49695527D01*
X9161148Y49827759D01*
X9161142Y49827761D01*
X9161138Y49827762D01*
X9010145Y49865584D01*
X8780368Y49923141D01*
X8392076Y49980738D01*
X8392074Y49980739D01*
X8392068Y49980739D01*
X8000000Y50000000D01*
X7999999Y50000000D01*
X7968266Y49998442D01*
X7607931Y49980739D01*
X7607925Y49980739D01*
X7607922Y49980738D01*
X7219630Y49923141D01*
X6913458Y49846448D01*
X6838861Y49827762D01*
X6838858Y49827762D01*
X6838850Y49827759D01*
X6469285Y49695527D01*
X6469265Y49695519D01*
X6114409Y49527685D01*
X5777721Y49325881D01*
X5462420Y49092038D01*
X5171571Y48828429D01*
X4907962Y48537580D01*
X4674119Y48222279D01*
X4472315Y47885591D01*
X4304481Y47530735D01*
X4304473Y47530715D01*
X4172241Y47161150D01*
X4076859Y46780370D01*
X4028787Y46456287D01*
X4019261Y46392069D01*
X4000000Y46000000D01*
X500500Y46000000D01*
X500500Y79000000D01*
X11000000Y79000000D01*
X11000000Y53000000D01*
X36743664Y53000000D01*
X36810703Y52980315D01*
X36856458Y52927511D01*
X36866402Y52858353D01*
X36837377Y52794797D01*
X36831345Y52788319D01*
X33471945Y49428919D01*
X33410622Y49395434D01*
X33384264Y49392600D01*
X26506178Y49392600D01*
X26311773Y49361810D01*
X26124569Y49300983D01*
X25949194Y49211624D01*
X25858342Y49145616D01*
X25789955Y49095929D01*
X25789953Y49095927D01*
X25789952Y49095927D01*
X23046174Y46352149D01*
X23046174Y46352148D01*
X23046172Y46352146D01*
X23043781Y46348855D01*
X22930476Y46192906D01*
X22841116Y46017527D01*
X22833457Y45993955D01*
X22794019Y45936280D01*
X22729660Y45909082D01*
X22660814Y45920997D01*
X22609338Y45968242D01*
X22602059Y45987044D01*
X22600640Y45986456D01*
X22595966Y45997740D01*
X22594455Y46000001D01*
X22540601Y46080601D01*
X22457740Y46135966D01*
X22457739Y46135967D01*
X22457735Y46135968D01*
X22384677Y46150500D01*
X22384674Y46150500D01*
X20535326Y46150500D01*
X20535323Y46150500D01*
X20462264Y46135968D01*
X20462260Y46135967D01*
X20379399Y46080601D01*
X20324033Y45997740D01*
X20324032Y45997736D01*
X20309500Y45924679D01*
X20309500Y44075322D01*
X20324032Y44002265D01*
X20324033Y44002261D01*
X20337937Y43981452D01*
X20379399Y43919399D01*
X20441614Y43877829D01*
X20462260Y43864034D01*
X20462264Y43864033D01*
X20535321Y43849501D01*
X20535324Y43849500D01*
X20535326Y43849500D01*
X21992746Y43849500D01*
X22059785Y43829815D01*
X22080427Y43813181D01*
X22592279Y43301329D01*
X22592289Y43301318D01*
X22671188Y43222419D01*
X22690522Y43211257D01*
X22709857Y43200094D01*
X22762513Y43169693D01*
X22864373Y43142399D01*
X22864375Y43142399D01*
X22977423Y43142399D01*
X22977439Y43142400D01*
X32243025Y43142400D01*
X32243027Y43142400D01*
X32344888Y43169693D01*
X32436213Y43222420D01*
X51060280Y61846487D01*
X51113006Y61937812D01*
X51113007Y61937813D01*
X51140300Y62039673D01*
X51140300Y65495146D01*
X51159985Y65562185D01*
X51176619Y65582827D01*
X57097819Y71504027D01*
X57159142Y71537512D01*
X57228834Y71532528D01*
X57284767Y71490656D01*
X57309184Y71425192D01*
X57309500Y71416346D01*
X57309500Y70075322D01*
X57324032Y70002265D01*
X57324033Y70002261D01*
X57342405Y69974765D01*
X57379399Y69919399D01*
X57462260Y69864034D01*
X57462264Y69864033D01*
X57535321Y69849501D01*
X57535324Y69849500D01*
X57535326Y69849500D01*
X59384676Y69849500D01*
X59384677Y69849501D01*
X59457740Y69864034D01*
X59540601Y69919399D01*
X59540601Y69919401D01*
X59550756Y69926185D01*
X59551981Y69924351D01*
X59599142Y69950102D01*
X59668834Y69945118D01*
X59724767Y69903246D01*
X59749184Y69837782D01*
X59749500Y69828936D01*
X59749500Y62014578D01*
X59780290Y61820174D01*
X59841117Y61632970D01*
X59890671Y61535716D01*
X59930476Y61457595D01*
X60046172Y61298354D01*
X60046174Y61298352D01*
X68713181Y52631345D01*
X68746666Y52570022D01*
X68749500Y52543664D01*
X68749500Y46171064D01*
X68729815Y46104025D01*
X68677011Y46058270D01*
X68607853Y46048326D01*
X68551056Y46074265D01*
X68550756Y46073815D01*
X68547983Y46075668D01*
X68544297Y46077351D01*
X68541332Y46080112D01*
X68540601Y46080600D01*
X68540601Y46080601D01*
X68457740Y46135966D01*
X68457739Y46135967D01*
X68457735Y46135968D01*
X68384677Y46150500D01*
X68384674Y46150500D01*
X66535326Y46150500D01*
X66535323Y46150500D01*
X66462264Y46135968D01*
X66462260Y46135967D01*
X66379399Y46080601D01*
X66324033Y45997740D01*
X66324032Y45997736D01*
X66309500Y45924679D01*
X66309500Y44075322D01*
X66324032Y44002265D01*
X66324033Y44002261D01*
X66337937Y43981452D01*
X66379399Y43919399D01*
X66441614Y43877829D01*
X66462260Y43864034D01*
X66462264Y43864033D01*
X66535321Y43849501D01*
X66535324Y43849500D01*
X66535326Y43849500D01*
X67992745Y43849500D01*
X68059784Y43829815D01*
X68080426Y43813181D01*
X69202387Y42691220D01*
X69293712Y42638493D01*
X69395573Y42611200D01*
X69395575Y42611200D01*
X112243525Y42611200D01*
X112243527Y42611200D01*
X112345388Y42638493D01*
X112436713Y42691220D01*
X129210480Y59464987D01*
X129263207Y59556312D01*
X129290500Y59658173D01*
X129290500Y59763627D01*
X129290500Y69305500D01*
X129310185Y69372539D01*
X129362989Y69418294D01*
X129414500Y69429500D01*
X129674676Y69429500D01*
X129674677Y69429501D01*
X129747740Y69444034D01*
X129830601Y69499399D01*
X129885966Y69582260D01*
X129900500Y69655326D01*
X129900500Y71224674D01*
X129900500Y71224677D01*
X129900499Y71224679D01*
X129885967Y71297736D01*
X129885966Y71297740D01*
X129830601Y71380601D01*
X129747740Y71435966D01*
X129747739Y71435967D01*
X129747735Y71435968D01*
X129674677Y71450500D01*
X129674674Y71450500D01*
X128226254Y71450500D01*
X128159215Y71470185D01*
X128113460Y71522989D01*
X128103516Y71592147D01*
X128132541Y71655703D01*
X128138573Y71662181D01*
X128291041Y71814649D01*
X128458511Y71982120D01*
X128519832Y72015603D01*
X128589523Y72010619D01*
X128593636Y72009001D01*
X128595248Y72008333D01*
X128790469Y71969501D01*
X128790472Y71969500D01*
X128790474Y71969500D01*
X128989528Y71969500D01*
X128989529Y71969501D01*
X129184752Y72008333D01*
X129368651Y72084507D01*
X129534156Y72195094D01*
X129674906Y72335844D01*
X129785493Y72501349D01*
X129861667Y72685248D01*
X129900500Y72880474D01*
X129900500Y73079526D01*
X129900500Y73079529D01*
X129900499Y73079531D01*
X129878625Y73189500D01*
X129861667Y73274752D01*
X129785493Y73458651D01*
X129785491Y73458654D01*
X129785489Y73458658D01*
X129674906Y73624156D01*
X129674903Y73624160D01*
X129534159Y73764904D01*
X129534155Y73764907D01*
X129368657Y73875490D01*
X129368647Y73875495D01*
X129184752Y73951667D01*
X129184744Y73951669D01*
X128989529Y73990500D01*
X128989526Y73990500D01*
X128790474Y73990500D01*
X128790471Y73990500D01*
X128595255Y73951669D01*
X128595247Y73951667D01*
X128411352Y73875495D01*
X128411342Y73875490D01*
X128245844Y73764907D01*
X128245840Y73764904D01*
X128105096Y73624160D01*
X128105093Y73624156D01*
X127994510Y73458658D01*
X127994505Y73458648D01*
X127918333Y73274753D01*
X127918331Y73274745D01*
X127879500Y73079531D01*
X127879500Y72880470D01*
X127918331Y72685256D01*
X127918333Y72685248D01*
X127918996Y72683647D01*
X127919093Y72682742D01*
X127920101Y72679421D01*
X127919471Y72679230D01*
X127926466Y72614180D01*
X127895193Y72551700D01*
X127892117Y72548512D01*
X113205022Y57861416D01*
X113205018Y57861410D01*
X113152292Y57770088D01*
X113152293Y57770087D01*
X113125000Y57668227D01*
X113125000Y45343855D01*
X113105315Y45276816D01*
X113088681Y45256174D01*
X111842626Y44010119D01*
X111781303Y43976634D01*
X111754945Y43973800D01*
X107334721Y43973800D01*
X107267682Y43993485D01*
X107247040Y44010119D01*
X106733344Y44523815D01*
X106736853Y44524755D01*
X106853147Y44591898D01*
X106948102Y44686853D01*
X107015245Y44803147D01*
X107016185Y44806657D01*
X107518126Y44304715D01*
X107518126Y44304716D01*
X107566331Y44371063D01*
X107652085Y44539363D01*
X107710451Y44718998D01*
X107740000Y44905553D01*
X107740000Y45094448D01*
X107710451Y45281003D01*
X107652085Y45460638D01*
X107566329Y45628941D01*
X107518127Y45695286D01*
X107518126Y45695287D01*
X107016185Y45193345D01*
X107015245Y45196853D01*
X106948102Y45313147D01*
X106853147Y45408102D01*
X106736853Y45475245D01*
X106733343Y45476186D01*
X107235284Y45978128D01*
X107168933Y46026334D01*
X107000637Y46112086D01*
X106821002Y46170452D01*
X106634447Y46200000D01*
X106445553Y46200000D01*
X106258997Y46170452D01*
X106079362Y46112086D01*
X105911064Y46026333D01*
X105911062Y46026332D01*
X105844714Y45978129D01*
X105844714Y45978128D01*
X106346656Y45476186D01*
X106343147Y45475245D01*
X106226853Y45408102D01*
X106131898Y45313147D01*
X106064755Y45196853D01*
X106063814Y45193344D01*
X105561872Y45695286D01*
X105561871Y45695286D01*
X105513668Y45628938D01*
X105513661Y45628926D01*
X105484984Y45572644D01*
X105437010Y45521848D01*
X105369189Y45505053D01*
X105303054Y45527591D01*
X105259603Y45582306D01*
X105250500Y45628939D01*
X105250500Y65463223D01*
X105219709Y65657627D01*
X105158882Y65844830D01*
X105069523Y66020206D01*
X104953828Y66179446D01*
X104814646Y66318628D01*
X101544955Y69588319D01*
X101511470Y69649642D01*
X101516454Y69719334D01*
X101558326Y69775267D01*
X101623790Y69799684D01*
X101632636Y69800000D01*
X101634447Y69800000D01*
X101821002Y69829549D01*
X102000637Y69887915D01*
X102168937Y69973669D01*
X102235284Y70021874D01*
X102235285Y70021874D01*
X101733343Y70523815D01*
X101736853Y70524755D01*
X101853147Y70591898D01*
X101948102Y70686853D01*
X102015245Y70803147D01*
X102016185Y70806656D01*
X102518126Y70304715D01*
X102518126Y70304716D01*
X102566331Y70371063D01*
X102652086Y70539365D01*
X102652140Y70539531D01*
X110099500Y70539531D01*
X110099500Y70340470D01*
X110138331Y70145256D01*
X110138333Y70145248D01*
X110214505Y69961353D01*
X110214510Y69961343D01*
X110325093Y69795845D01*
X110325096Y69795841D01*
X110465840Y69655097D01*
X110465844Y69655094D01*
X110631342Y69544511D01*
X110631346Y69544509D01*
X110631349Y69544507D01*
X110815248Y69468333D01*
X110960890Y69439363D01*
X111010469Y69429501D01*
X111010472Y69429500D01*
X111010474Y69429500D01*
X111209528Y69429500D01*
X111209529Y69429501D01*
X111404752Y69468333D01*
X111588651Y69544507D01*
X111754156Y69655094D01*
X111894906Y69795844D01*
X112005493Y69961349D01*
X112081667Y70145248D01*
X112120500Y70340474D01*
X112120500Y70539526D01*
X112120500Y70539529D01*
X112120499Y70539531D01*
X112111666Y70583936D01*
X112081667Y70734752D01*
X112005493Y70918651D01*
X112005491Y70918654D01*
X112005489Y70918658D01*
X111894906Y71084156D01*
X111894903Y71084160D01*
X111754159Y71224904D01*
X111754155Y71224907D01*
X111588657Y71335490D01*
X111588647Y71335495D01*
X111404752Y71411667D01*
X111404744Y71411669D01*
X111209529Y71450500D01*
X111209526Y71450500D01*
X111010474Y71450500D01*
X111010471Y71450500D01*
X110815255Y71411669D01*
X110815247Y71411667D01*
X110631352Y71335495D01*
X110631342Y71335490D01*
X110465844Y71224907D01*
X110465840Y71224904D01*
X110325096Y71084160D01*
X110325093Y71084156D01*
X110214510Y70918658D01*
X110214505Y70918648D01*
X110138333Y70734753D01*
X110138331Y70734745D01*
X110099500Y70539531D01*
X102652140Y70539531D01*
X102666568Y70583935D01*
X102666568Y70583936D01*
X102710452Y70718998D01*
X102740000Y70905553D01*
X102740000Y71094448D01*
X102710451Y71281003D01*
X102652085Y71460638D01*
X102566329Y71628941D01*
X102518127Y71695286D01*
X102518126Y71695287D01*
X102016185Y71193345D01*
X102015245Y71196853D01*
X101948102Y71313147D01*
X101853147Y71408102D01*
X101736853Y71475245D01*
X101733343Y71476186D01*
X102235284Y71978128D01*
X102168933Y72026334D01*
X102000637Y72112086D01*
X101821002Y72170452D01*
X101634447Y72200000D01*
X101445553Y72200000D01*
X101258997Y72170452D01*
X101079362Y72112086D01*
X100911064Y72026333D01*
X100911062Y72026332D01*
X100844714Y71978129D01*
X100844714Y71978128D01*
X101346656Y71476186D01*
X101343147Y71475245D01*
X101226853Y71408102D01*
X101131898Y71313147D01*
X101064755Y71196853D01*
X101063814Y71193344D01*
X100561872Y71695286D01*
X100561871Y71695286D01*
X100513668Y71628938D01*
X100513661Y71628926D01*
X100484984Y71572644D01*
X100437010Y71521848D01*
X100369189Y71505053D01*
X100303054Y71527591D01*
X100259603Y71582306D01*
X100250500Y71628939D01*
X100250500Y73079531D01*
X110099500Y73079531D01*
X110099500Y72880470D01*
X110138331Y72685256D01*
X110138333Y72685248D01*
X110214505Y72501353D01*
X110214510Y72501343D01*
X110325093Y72335845D01*
X110325096Y72335841D01*
X110465840Y72195097D01*
X110465844Y72195094D01*
X110631342Y72084511D01*
X110631346Y72084509D01*
X110631349Y72084507D01*
X110815248Y72008333D01*
X111010469Y71969501D01*
X111010472Y71969500D01*
X111010474Y71969500D01*
X111209528Y71969500D01*
X111209529Y71969501D01*
X111404752Y72008333D01*
X111588651Y72084507D01*
X111754156Y72195094D01*
X111894906Y72335844D01*
X112005493Y72501349D01*
X112081667Y72685248D01*
X112120500Y72880474D01*
X112120500Y73079526D01*
X112120500Y73079529D01*
X112120499Y73079531D01*
X112098625Y73189500D01*
X112081667Y73274752D01*
X112005493Y73458651D01*
X112005491Y73458654D01*
X112005489Y73458658D01*
X111894906Y73624156D01*
X111894903Y73624160D01*
X111754159Y73764904D01*
X111754155Y73764907D01*
X111588657Y73875490D01*
X111588647Y73875495D01*
X111404752Y73951667D01*
X111404744Y73951669D01*
X111209529Y73990500D01*
X111209526Y73990500D01*
X111010474Y73990500D01*
X111010471Y73990500D01*
X110815255Y73951669D01*
X110815247Y73951667D01*
X110631352Y73875495D01*
X110631342Y73875490D01*
X110465844Y73764907D01*
X110465840Y73764904D01*
X110325096Y73624160D01*
X110325093Y73624156D01*
X110214510Y73458658D01*
X110214505Y73458648D01*
X110138333Y73274753D01*
X110138331Y73274745D01*
X110099500Y73079531D01*
X100250500Y73079531D01*
X100250500Y74273423D01*
X100228119Y74414726D01*
X100219709Y74467826D01*
X100219708Y74467830D01*
X100219708Y74467831D01*
X100160392Y74650385D01*
X100160387Y74650533D01*
X100159381Y74654051D01*
X100130572Y74710591D01*
X100069524Y74830405D01*
X100026623Y74889454D01*
X99953834Y74989640D01*
X99953830Y74989645D01*
X99319069Y75624406D01*
X110050000Y75624406D01*
X110050000Y75415595D01*
X110090733Y75210817D01*
X110090735Y75210809D01*
X110170639Y75017904D01*
X110232491Y74925335D01*
X110232492Y74925334D01*
X110633814Y75326657D01*
X110634755Y75323147D01*
X110701898Y75206853D01*
X110796853Y75111898D01*
X110913147Y75044755D01*
X110916656Y75043815D01*
X110515333Y74642493D01*
X110515333Y74642492D01*
X110607903Y74580640D01*
X110800808Y74500736D01*
X110800816Y74500734D01*
X111005594Y74460001D01*
X111005598Y74460000D01*
X111214402Y74460000D01*
X111214405Y74460001D01*
X111419183Y74500734D01*
X111419191Y74500736D01*
X111612095Y74580639D01*
X111612103Y74580644D01*
X111704665Y74642492D01*
X111704665Y74642493D01*
X111303343Y75043815D01*
X111306853Y75044755D01*
X111423147Y75111898D01*
X111518102Y75206853D01*
X111585245Y75323147D01*
X111586185Y75326657D01*
X111987507Y74925335D01*
X111987508Y74925335D01*
X112049356Y75017897D01*
X112049361Y75017905D01*
X112129264Y75210809D01*
X112129266Y75210817D01*
X112169999Y75415595D01*
X112170000Y75415598D01*
X112170000Y75624402D01*
X112169999Y75624406D01*
X112129266Y75829184D01*
X112129264Y75829192D01*
X112049360Y76022097D01*
X111987507Y76114667D01*
X111586185Y75713345D01*
X111585245Y75716853D01*
X111518102Y75833147D01*
X111423147Y75928102D01*
X111306853Y75995245D01*
X111303343Y75996186D01*
X111704666Y76397508D01*
X111704665Y76397509D01*
X111612096Y76459361D01*
X111419191Y76539265D01*
X111419183Y76539267D01*
X111214405Y76580000D01*
X111005594Y76580000D01*
X110800816Y76539267D01*
X110800808Y76539265D01*
X110607900Y76459360D01*
X110515333Y76397510D01*
X110515332Y76397509D01*
X110916656Y75996186D01*
X110913147Y75995245D01*
X110796853Y75928102D01*
X110701898Y75833147D01*
X110634755Y75716853D01*
X110633814Y75713345D01*
X110232491Y76114668D01*
X110232490Y76114667D01*
X110170640Y76022100D01*
X110090735Y75829192D01*
X110090733Y75829184D01*
X110050000Y75624406D01*
X99319069Y75624406D01*
X98679858Y76263617D01*
X96031555Y78911919D01*
X95998070Y78973242D01*
X96003054Y79042934D01*
X96044926Y79098867D01*
X96110390Y79123284D01*
X96119236Y79123600D01*
X109428645Y79123600D01*
X109495684Y79103915D01*
X109516326Y79087281D01*
X110112117Y78491490D01*
X110145602Y78430167D01*
X110140618Y78360475D01*
X110139000Y78356364D01*
X110138335Y78354760D01*
X110138331Y78354745D01*
X110099500Y78159531D01*
X110099500Y77960470D01*
X110138331Y77765256D01*
X110138333Y77765248D01*
X110214505Y77581353D01*
X110214510Y77581343D01*
X110325093Y77415845D01*
X110325096Y77415841D01*
X110465840Y77275097D01*
X110465844Y77275094D01*
X110631342Y77164511D01*
X110631346Y77164509D01*
X110631349Y77164507D01*
X110815248Y77088333D01*
X111010469Y77049501D01*
X111010472Y77049500D01*
X111010474Y77049500D01*
X111209528Y77049500D01*
X111209529Y77049501D01*
X111404752Y77088333D01*
X111588651Y77164507D01*
X111754156Y77275094D01*
X111894906Y77415844D01*
X112005493Y77581349D01*
X112081667Y77765248D01*
X112120500Y77960474D01*
X112120500Y78159526D01*
X112120500Y78159529D01*
X112120499Y78159531D01*
X112081667Y78354752D01*
X112005493Y78538651D01*
X112005490Y78538656D01*
X112005485Y78538665D01*
X112002948Y78542462D01*
X112002947Y78542463D01*
X111962345Y78603227D01*
X127316300Y78603227D01*
X127316300Y78596576D01*
X127316300Y77513874D01*
X127343593Y77412011D01*
X127369956Y77366350D01*
X127396320Y77320687D01*
X127396321Y77320686D01*
X127396322Y77320685D01*
X128256028Y76460979D01*
X128285096Y76407745D01*
X128696656Y75996186D01*
X128693147Y75995245D01*
X128576853Y75928102D01*
X128481898Y75833147D01*
X128414755Y75716853D01*
X128413814Y75713345D01*
X128012491Y76114668D01*
X128012490Y76114667D01*
X127950640Y76022100D01*
X127870735Y75829192D01*
X127870733Y75829184D01*
X127830000Y75624406D01*
X127830000Y75415595D01*
X127870733Y75210817D01*
X127870735Y75210809D01*
X127950639Y75017904D01*
X128012491Y74925335D01*
X128012492Y74925334D01*
X128413814Y75326657D01*
X128414755Y75323147D01*
X128481898Y75206853D01*
X128576853Y75111898D01*
X128693147Y75044755D01*
X128696656Y75043815D01*
X128295333Y74642493D01*
X128295333Y74642492D01*
X128387903Y74580640D01*
X128580808Y74500736D01*
X128580816Y74500734D01*
X128785594Y74460001D01*
X128785598Y74460000D01*
X128994402Y74460000D01*
X128994405Y74460001D01*
X129199183Y74500734D01*
X129199191Y74500736D01*
X129392095Y74580639D01*
X129392103Y74580644D01*
X129484665Y74642492D01*
X129484665Y74642493D01*
X129083343Y75043815D01*
X129086853Y75044755D01*
X129203147Y75111898D01*
X129298102Y75206853D01*
X129365245Y75323147D01*
X129366185Y75326657D01*
X129767507Y74925335D01*
X129767508Y74925335D01*
X129829356Y75017897D01*
X129829361Y75017905D01*
X129909264Y75210809D01*
X129934506Y75337712D01*
X129966891Y75399623D01*
X130027606Y75434198D01*
X130097376Y75430459D01*
X130143802Y75401205D01*
X131780101Y73764907D01*
X134214981Y71330027D01*
X134248466Y71268704D01*
X134251300Y71242346D01*
X134251300Y52636408D01*
X134231615Y52569369D01*
X134214981Y52548727D01*
X134146526Y52480273D01*
X134146523Y52480269D01*
X134075338Y52373734D01*
X134075333Y52373725D01*
X134026299Y52255345D01*
X134026297Y52255339D01*
X134001300Y52129672D01*
X134001300Y52129669D01*
X134001300Y52001531D01*
X134001300Y52001529D01*
X134001299Y52001529D01*
X134026297Y51875862D01*
X134026299Y51875856D01*
X134075333Y51757476D01*
X134075338Y51757467D01*
X134146523Y51650932D01*
X134146526Y51650928D01*
X134237127Y51560327D01*
X134237131Y51560324D01*
X134343666Y51489139D01*
X134343672Y51489136D01*
X134343673Y51489135D01*
X134462056Y51440099D01*
X134462060Y51440099D01*
X134462061Y51440098D01*
X134587728Y51415100D01*
X134587731Y51415100D01*
X134715871Y51415100D01*
X134818710Y51435557D01*
X134841544Y51440099D01*
X134888049Y51459363D01*
X134957515Y51466831D01*
X135019995Y51435557D01*
X135055648Y51375468D01*
X135059500Y51344801D01*
X135059500Y46274500D01*
X135039815Y46207461D01*
X134987011Y46161706D01*
X134935500Y46150500D01*
X134535323Y46150500D01*
X134462264Y46135968D01*
X134462260Y46135967D01*
X134379399Y46080601D01*
X134324033Y45997740D01*
X134324032Y45997736D01*
X134309500Y45924679D01*
X134309500Y44075322D01*
X134324032Y44002265D01*
X134324033Y44002261D01*
X134337937Y43981452D01*
X134379399Y43919399D01*
X134441614Y43877829D01*
X134462260Y43864034D01*
X134462264Y43864033D01*
X134535321Y43849501D01*
X134535324Y43849500D01*
X134535326Y43849500D01*
X136384676Y43849500D01*
X136384677Y43849501D01*
X136457740Y43864034D01*
X136540601Y43919399D01*
X136595966Y44002260D01*
X136595966Y44002262D01*
X136600640Y44013544D01*
X136602719Y44012683D01*
X136627551Y44060155D01*
X136688266Y44094730D01*
X136758036Y44090991D01*
X136814709Y44050126D01*
X136834715Y44012374D01*
X136840852Y43993485D01*
X136841117Y43992672D01*
X136850800Y43973669D01*
X136930476Y43817295D01*
X137046172Y43658054D01*
X139926554Y40777672D01*
X140085795Y40661976D01*
X140168654Y40619758D01*
X140261169Y40572618D01*
X140261171Y40572618D01*
X140261174Y40572616D01*
X140361516Y40540013D01*
X140448372Y40511791D01*
X140642778Y40481000D01*
X140642783Y40481000D01*
X169863422Y40481000D01*
X170057826Y40511791D01*
X170057835Y40511794D01*
X170245026Y40572616D01*
X170420405Y40661976D01*
X170579646Y40777672D01*
X172165419Y42363445D01*
X172226742Y42396930D01*
X172296434Y42391946D01*
X172340781Y42363445D01*
X173927554Y40776672D01*
X174086795Y40660976D01*
X174169654Y40618758D01*
X174262169Y40571618D01*
X174262171Y40571618D01*
X174262174Y40571616D01*
X174446296Y40511791D01*
X174449374Y40510791D01*
X174472839Y40507075D01*
X174643778Y40480000D01*
X174643783Y40480000D01*
X203904022Y40480000D01*
X204098426Y40510791D01*
X204159256Y40530556D01*
X204285626Y40571616D01*
X204461005Y40660976D01*
X204620246Y40776672D01*
X206953828Y43110254D01*
X207069524Y43269495D01*
X207083532Y43296987D01*
X207085745Y43301329D01*
X207142396Y43412516D01*
X207158884Y43444875D01*
X207219709Y43632074D01*
X207230070Y43697488D01*
X207242777Y43777720D01*
X207250500Y43826479D01*
X207250500Y44371062D01*
X207270185Y44438101D01*
X207322989Y44483856D01*
X207392147Y44493800D01*
X207455703Y44464775D01*
X207484985Y44427357D01*
X207513666Y44371067D01*
X207561872Y44304716D01*
X208063814Y44806658D01*
X208064755Y44803147D01*
X208131898Y44686853D01*
X208226853Y44591898D01*
X208343147Y44524755D01*
X208346655Y44523815D01*
X207844713Y44021874D01*
X207844714Y44021873D01*
X207911059Y43973671D01*
X208079362Y43887915D01*
X208258997Y43829549D01*
X208445553Y43800000D01*
X208634447Y43800000D01*
X208821002Y43829549D01*
X209000637Y43887915D01*
X209168937Y43973669D01*
X209235284Y44021874D01*
X209235285Y44021874D01*
X208733344Y44523815D01*
X208736853Y44524755D01*
X208853147Y44591898D01*
X208948102Y44686853D01*
X209015245Y44803147D01*
X209016185Y44806656D01*
X209518126Y44304715D01*
X209518126Y44304716D01*
X209566331Y44371063D01*
X209652085Y44539363D01*
X209710451Y44718998D01*
X209740000Y44905553D01*
X209740000Y45094448D01*
X209710451Y45281003D01*
X209652085Y45460638D01*
X209566329Y45628941D01*
X209518127Y45695286D01*
X209518126Y45695287D01*
X209016185Y45193345D01*
X209015245Y45196853D01*
X208948102Y45313147D01*
X208853147Y45408102D01*
X208736853Y45475245D01*
X208733343Y45476186D01*
X209181835Y45924679D01*
X236309500Y45924679D01*
X236309500Y44075322D01*
X236324032Y44002265D01*
X236324033Y44002261D01*
X236337937Y43981452D01*
X236379399Y43919399D01*
X236441614Y43877829D01*
X236462260Y43864034D01*
X236462264Y43864033D01*
X236535321Y43849501D01*
X236535324Y43849500D01*
X236535326Y43849500D01*
X238384676Y43849500D01*
X238384677Y43849501D01*
X238457740Y43864034D01*
X238540601Y43919399D01*
X238595966Y44002260D01*
X238610500Y44075326D01*
X238610500Y44842869D01*
X238630185Y44909908D01*
X238682989Y44955663D01*
X238752147Y44965607D01*
X238815703Y44936582D01*
X238853477Y44877804D01*
X238856973Y44862267D01*
X238877829Y44730590D01*
X238933787Y44558364D01*
X238933788Y44558361D01*
X239016006Y44397003D01*
X239122441Y44250506D01*
X239122445Y44250501D01*
X239250500Y44122446D01*
X239250505Y44122442D01*
X239315361Y44075322D01*
X239397006Y44016004D01*
X239480089Y43973671D01*
X239558360Y43933789D01*
X239558363Y43933788D01*
X239637843Y43907964D01*
X239730591Y43877829D01*
X239813429Y43864709D01*
X239909449Y43849500D01*
X239909454Y43849500D01*
X240090551Y43849500D01*
X240182310Y43864034D01*
X240269409Y43877829D01*
X240441639Y43933789D01*
X240602994Y44016004D01*
X240749501Y44122447D01*
X240877553Y44250499D01*
X240983996Y44397006D01*
X241066211Y44558361D01*
X241122171Y44730591D01*
X241122467Y44732461D01*
X241122777Y44733115D01*
X241123307Y44735322D01*
X241123770Y44735211D01*
X241152390Y44795596D01*
X241211698Y44832532D01*
X241281561Y44831540D01*
X241339797Y44792935D01*
X241367414Y44732472D01*
X241369548Y44718996D01*
X241427914Y44539363D01*
X241513666Y44371067D01*
X241561872Y44304716D01*
X242063814Y44806658D01*
X242064755Y44803147D01*
X242131898Y44686853D01*
X242226853Y44591898D01*
X242343147Y44524755D01*
X242346655Y44523815D01*
X241844713Y44021874D01*
X241844714Y44021873D01*
X241911059Y43973671D01*
X242079362Y43887915D01*
X242258997Y43829549D01*
X242445553Y43800000D01*
X242634447Y43800000D01*
X242821002Y43829549D01*
X243000637Y43887915D01*
X243168937Y43973669D01*
X243235284Y44021874D01*
X243235285Y44021874D01*
X242733344Y44523815D01*
X242736853Y44524755D01*
X242853147Y44591898D01*
X242948102Y44686853D01*
X243015245Y44803147D01*
X243016185Y44806656D01*
X243518126Y44304715D01*
X243518126Y44304716D01*
X243566331Y44371063D01*
X243652085Y44539363D01*
X243710451Y44718998D01*
X243740000Y44905553D01*
X243740000Y45094448D01*
X243710451Y45281003D01*
X243652085Y45460638D01*
X243566329Y45628941D01*
X243518127Y45695286D01*
X243518126Y45695287D01*
X243016185Y45193345D01*
X243015245Y45196853D01*
X242948102Y45313147D01*
X242853147Y45408102D01*
X242736853Y45475245D01*
X242733343Y45476186D01*
X243235284Y45978128D01*
X243168933Y46026334D01*
X243000637Y46112086D01*
X242821002Y46170452D01*
X242634447Y46200000D01*
X242445553Y46200000D01*
X242258997Y46170452D01*
X242079362Y46112086D01*
X241911064Y46026333D01*
X241911062Y46026332D01*
X241844714Y45978129D01*
X241844714Y45978128D01*
X242346656Y45476186D01*
X242343147Y45475245D01*
X242226853Y45408102D01*
X242131898Y45313147D01*
X242064755Y45196853D01*
X242063814Y45193344D01*
X241561872Y45695286D01*
X241561871Y45695286D01*
X241513667Y45628937D01*
X241427914Y45460638D01*
X241369548Y45281006D01*
X241367414Y45267528D01*
X241337482Y45204395D01*
X241278170Y45167465D01*
X241208307Y45168465D01*
X241150076Y45207077D01*
X241123726Y45264779D01*
X241123307Y45264678D01*
X241122790Y45266829D01*
X241122467Y45267537D01*
X241122171Y45269409D01*
X241066211Y45441639D01*
X241066211Y45441640D01*
X241022416Y45527591D01*
X240983996Y45602994D01*
X240951649Y45647516D01*
X240877558Y45749495D01*
X240877554Y45749500D01*
X240749499Y45877555D01*
X240749494Y45877559D01*
X240602997Y45983994D01*
X240602996Y45983995D01*
X240602994Y45983996D01*
X240537186Y46017527D01*
X240441639Y46066212D01*
X240441636Y46066213D01*
X240269410Y46122171D01*
X240090551Y46150500D01*
X240090546Y46150500D01*
X239909454Y46150500D01*
X239909449Y46150500D01*
X239730589Y46122171D01*
X239558363Y46066213D01*
X239558360Y46066212D01*
X239397002Y45983994D01*
X239250505Y45877559D01*
X239250500Y45877555D01*
X239122445Y45749500D01*
X239122441Y45749495D01*
X239016006Y45602998D01*
X238933788Y45441640D01*
X238933787Y45441637D01*
X238877829Y45269411D01*
X238856973Y45137734D01*
X238827044Y45074599D01*
X238767732Y45037668D01*
X238697869Y45038666D01*
X238639637Y45077276D01*
X238611523Y45141240D01*
X238610500Y45157132D01*
X238610500Y45924677D01*
X238610499Y45924679D01*
X238595967Y45997736D01*
X238595966Y45997740D01*
X238594455Y46000001D01*
X238540601Y46080601D01*
X238457740Y46135966D01*
X238457739Y46135967D01*
X238457735Y46135968D01*
X238384677Y46150500D01*
X238384674Y46150500D01*
X236535326Y46150500D01*
X236535323Y46150500D01*
X236462264Y46135968D01*
X236462260Y46135967D01*
X236379399Y46080601D01*
X236324033Y45997740D01*
X236324032Y45997736D01*
X236309500Y45924679D01*
X209181835Y45924679D01*
X209235284Y45978128D01*
X209168933Y46026334D01*
X209000637Y46112086D01*
X208821002Y46170452D01*
X208634447Y46200000D01*
X208445553Y46200000D01*
X208258997Y46170452D01*
X208079362Y46112086D01*
X207911064Y46026333D01*
X207911062Y46026332D01*
X207844714Y45978129D01*
X207844714Y45978128D01*
X208346656Y45476186D01*
X208343147Y45475245D01*
X208226853Y45408102D01*
X208131898Y45313147D01*
X208064755Y45196853D01*
X208063814Y45193344D01*
X207561872Y45695286D01*
X207561871Y45695286D01*
X207513667Y45628937D01*
X207427915Y45460639D01*
X207414480Y45419290D01*
X207375042Y45361615D01*
X207310683Y45334417D01*
X207241837Y45346332D01*
X207190361Y45393576D01*
X207178618Y45419290D01*
X207171356Y45441640D01*
X207158884Y45480025D01*
X207158882Y45480028D01*
X207158882Y45480030D01*
X207096857Y45601761D01*
X207069524Y45655405D01*
X206953828Y45814646D01*
X206814646Y45953828D01*
X206655405Y46069524D01*
X206587693Y46104025D01*
X206480029Y46158883D01*
X206292826Y46219710D01*
X206098422Y46250500D01*
X206098417Y46250500D01*
X205901583Y46250500D01*
X205901578Y46250500D01*
X205707173Y46219710D01*
X205519970Y46158883D01*
X205344594Y46069524D01*
X205273026Y46017526D01*
X205185354Y45953828D01*
X205185352Y45953826D01*
X205185351Y45953826D01*
X205046174Y45814649D01*
X205046174Y45814648D01*
X205046172Y45814646D01*
X204998841Y45749501D01*
X204930476Y45655406D01*
X204844985Y45487619D01*
X204797011Y45436823D01*
X204729190Y45420028D01*
X204663055Y45442565D01*
X204619603Y45497280D01*
X204610500Y45543914D01*
X204610500Y45924677D01*
X204610499Y45924679D01*
X204595967Y45997736D01*
X204595966Y45997740D01*
X204594455Y46000001D01*
X204540601Y46080601D01*
X204457740Y46135966D01*
X204457739Y46135967D01*
X204457735Y46135968D01*
X204384677Y46150500D01*
X204384674Y46150500D01*
X202535326Y46150500D01*
X202535323Y46150500D01*
X202462264Y46135968D01*
X202462260Y46135967D01*
X202379399Y46080601D01*
X202324033Y45997740D01*
X202324032Y45997736D01*
X202309500Y45924679D01*
X202309500Y45714555D01*
X202289815Y45647516D01*
X202237011Y45601761D01*
X202167853Y45591817D01*
X202104297Y45620842D01*
X202097819Y45626874D01*
X194343215Y53381478D01*
X194343213Y53381480D01*
X194297550Y53407844D01*
X194251889Y53434207D01*
X194200957Y53447854D01*
X194150027Y53461500D01*
X194150026Y53461500D01*
X189378754Y53461500D01*
X189311715Y53481185D01*
X189291073Y53497819D01*
X171000574Y71788319D01*
X170967089Y71849642D01*
X170972073Y71919334D01*
X171013945Y71975267D01*
X171079409Y71999684D01*
X171088255Y72000000D01*
X171733564Y72000000D01*
X171800603Y71980315D01*
X171821245Y71963681D01*
X188238754Y55546172D01*
X188397995Y55430476D01*
X188480854Y55388258D01*
X188573369Y55341118D01*
X188573371Y55341118D01*
X188573374Y55341116D01*
X188673718Y55308513D01*
X188760573Y55280291D01*
X188954978Y55249500D01*
X188954983Y55249500D01*
X220348422Y55249500D01*
X220542826Y55280291D01*
X220730025Y55341116D01*
X220905405Y55430476D01*
X221064646Y55546172D01*
X221203828Y55685354D01*
X221319524Y55844595D01*
X221408884Y56019975D01*
X221469709Y56207174D01*
X221500500Y56401578D01*
X221500500Y56598423D01*
X221469709Y56792827D01*
X221408882Y56980030D01*
X221319523Y57155406D01*
X221203828Y57314646D01*
X221064646Y57453828D01*
X220905405Y57569524D01*
X220730029Y57658883D01*
X220542826Y57719710D01*
X220348422Y57750500D01*
X220348417Y57750500D01*
X189622736Y57750500D01*
X189555697Y57770185D01*
X189535055Y57786819D01*
X185397195Y61924679D01*
X248149500Y61924679D01*
X248149500Y58675322D01*
X248164032Y58602265D01*
X248164033Y58602261D01*
X248164034Y58602260D01*
X248219399Y58519399D01*
X248302260Y58464034D01*
X248302264Y58464033D01*
X248375321Y58449501D01*
X248375324Y58449500D01*
X248375326Y58449500D01*
X251624676Y58449500D01*
X251624677Y58449501D01*
X251697740Y58464034D01*
X251780601Y58519399D01*
X251835966Y58602260D01*
X251850500Y58675326D01*
X251850500Y61924674D01*
X251850500Y61924677D01*
X251850499Y61924679D01*
X251835967Y61997736D01*
X251835966Y61997740D01*
X251824712Y62014583D01*
X251780601Y62080601D01*
X251697740Y62135966D01*
X251697739Y62135967D01*
X251697735Y62135968D01*
X251624677Y62150500D01*
X251624674Y62150500D01*
X248375326Y62150500D01*
X248375323Y62150500D01*
X248302264Y62135968D01*
X248302260Y62135967D01*
X248219399Y62080601D01*
X248164033Y61997740D01*
X248164032Y61997736D01*
X248149500Y61924679D01*
X185397195Y61924679D01*
X182200585Y65121289D01*
X248149500Y65121289D01*
X248149500Y64878712D01*
X248181161Y64638215D01*
X248243947Y64403896D01*
X248336773Y64179795D01*
X248336776Y64179788D01*
X248458064Y63969711D01*
X248458066Y63969708D01*
X248458067Y63969707D01*
X248605733Y63777264D01*
X248605739Y63777257D01*
X248777256Y63605740D01*
X248777262Y63605735D01*
X248969711Y63458064D01*
X249179788Y63336776D01*
X249403900Y63243946D01*
X249638211Y63181162D01*
X249818586Y63157416D01*
X249878711Y63149500D01*
X249878712Y63149500D01*
X250121289Y63149500D01*
X250169388Y63155833D01*
X250361789Y63181162D01*
X250596100Y63243946D01*
X250820212Y63336776D01*
X251030289Y63458064D01*
X251222738Y63605735D01*
X251394265Y63777262D01*
X251541936Y63969711D01*
X251663224Y64179788D01*
X251756054Y64403900D01*
X251818838Y64638211D01*
X251850500Y64878712D01*
X251850500Y65121288D01*
X251818838Y65361789D01*
X251756054Y65596100D01*
X251663224Y65820212D01*
X251541936Y66030289D01*
X251394265Y66222738D01*
X251394260Y66222744D01*
X251222743Y66394261D01*
X251222736Y66394267D01*
X251030293Y66541933D01*
X251030292Y66541934D01*
X251030289Y66541936D01*
X250820212Y66663224D01*
X250820205Y66663227D01*
X250596104Y66756053D01*
X250361785Y66818839D01*
X250121289Y66850500D01*
X250121288Y66850500D01*
X249878712Y66850500D01*
X249878711Y66850500D01*
X249638214Y66818839D01*
X249403895Y66756053D01*
X249179794Y66663227D01*
X249179785Y66663223D01*
X248969706Y66541933D01*
X248777263Y66394267D01*
X248777256Y66394261D01*
X248605739Y66222744D01*
X248605733Y66222737D01*
X248458067Y66030294D01*
X248336777Y65820215D01*
X248336773Y65820206D01*
X248243947Y65596105D01*
X248181161Y65361786D01*
X248149500Y65121289D01*
X182200585Y65121289D01*
X177500585Y69821289D01*
X248149500Y69821289D01*
X248149500Y69578712D01*
X248181161Y69338215D01*
X248243947Y69103896D01*
X248319343Y68921874D01*
X248336776Y68879788D01*
X248458064Y68669711D01*
X248458066Y68669708D01*
X248458067Y68669707D01*
X248605733Y68477264D01*
X248605739Y68477257D01*
X248777256Y68305740D01*
X248777262Y68305735D01*
X248969711Y68158064D01*
X249179788Y68036776D01*
X249403900Y67943946D01*
X249638211Y67881162D01*
X249818586Y67857416D01*
X249878711Y67849500D01*
X249878712Y67849500D01*
X250121289Y67849500D01*
X250169388Y67855833D01*
X250361789Y67881162D01*
X250596100Y67943946D01*
X250820212Y68036776D01*
X251030289Y68158064D01*
X251222738Y68305735D01*
X251394265Y68477262D01*
X251541936Y68669711D01*
X251663224Y68879788D01*
X251756054Y69103900D01*
X251818838Y69338211D01*
X251850500Y69578712D01*
X251850500Y69821288D01*
X251849412Y69829549D01*
X251837584Y69919399D01*
X251818838Y70061789D01*
X251756054Y70296100D01*
X251663224Y70520212D01*
X251541936Y70730289D01*
X251443496Y70858579D01*
X251394266Y70922737D01*
X251394260Y70922744D01*
X251222743Y71094261D01*
X251222736Y71094267D01*
X251030293Y71241933D01*
X251030292Y71241934D01*
X251030289Y71241936D01*
X250849470Y71346332D01*
X250820214Y71363223D01*
X250820205Y71363227D01*
X250596104Y71456053D01*
X250413235Y71505053D01*
X250361789Y71518838D01*
X250361788Y71518839D01*
X250361785Y71518839D01*
X250121289Y71550500D01*
X250121288Y71550500D01*
X249878712Y71550500D01*
X249878711Y71550500D01*
X249638214Y71518839D01*
X249403895Y71456053D01*
X249179794Y71363227D01*
X249179785Y71363223D01*
X248969706Y71241933D01*
X248777263Y71094267D01*
X248777256Y71094261D01*
X248605739Y70922744D01*
X248605733Y70922737D01*
X248458067Y70730294D01*
X248336777Y70520215D01*
X248336773Y70520206D01*
X248243947Y70296105D01*
X248181161Y70061786D01*
X248149500Y69821289D01*
X177500585Y69821289D01*
X175533555Y71788319D01*
X175500070Y71849642D01*
X175505054Y71919334D01*
X175546926Y71975267D01*
X175612390Y71999684D01*
X175621236Y72000000D01*
X215000000Y72000000D01*
X215000000Y100672865D01*
X228149500Y100672865D01*
X228149500Y99327130D01*
X228149501Y99327124D01*
X228155908Y99267517D01*
X228206202Y99132672D01*
X228206206Y99132665D01*
X228292452Y99017456D01*
X228292455Y99017453D01*
X228407664Y98931207D01*
X228407671Y98931203D01*
X228542517Y98880909D01*
X228542516Y98880909D01*
X228549444Y98880165D01*
X228602127Y98874500D01*
X229397872Y98874501D01*
X229457483Y98880909D01*
X229592331Y98931204D01*
X229707546Y99017454D01*
X229793796Y99132669D01*
X229844091Y99267517D01*
X229850500Y99327127D01*
X229850499Y100363647D01*
X230100000Y100363647D01*
X230100000Y100200000D01*
X230682457Y100200000D01*
X230650556Y100144745D01*
X230625000Y100049370D01*
X230625000Y99950630D01*
X230650556Y99855255D01*
X230682457Y99800000D01*
X230100000Y99800000D01*
X230100000Y99636354D01*
X230134584Y99462488D01*
X230134586Y99462480D01*
X230202428Y99298693D01*
X230202433Y99298684D01*
X230300923Y99151284D01*
X230300926Y99151280D01*
X230426279Y99025927D01*
X230426283Y99025924D01*
X230573683Y98927434D01*
X230573696Y98927427D01*
X230737474Y98859589D01*
X230737482Y98859587D01*
X230800000Y98847152D01*
X230800000Y99682458D01*
X230855255Y99650556D01*
X230950630Y99625000D01*
X231049370Y99625000D01*
X231144745Y99650556D01*
X231200000Y99682458D01*
X231200000Y98847153D01*
X231262517Y98859587D01*
X231262525Y98859589D01*
X231426303Y98927427D01*
X231426316Y98927434D01*
X231573716Y99025924D01*
X231573720Y99025927D01*
X231699073Y99151280D01*
X231699076Y99151284D01*
X231797566Y99298684D01*
X231797571Y99298693D01*
X231865413Y99462480D01*
X231865415Y99462488D01*
X231899999Y99636354D01*
X231900000Y99636357D01*
X231900000Y99800000D01*
X231317543Y99800000D01*
X231349444Y99855255D01*
X231375000Y99950630D01*
X231375000Y100049370D01*
X231349444Y100144745D01*
X231317543Y100200000D01*
X231900000Y100200000D01*
X231900000Y100363643D01*
X231899999Y100363647D01*
X231865415Y100537513D01*
X231865413Y100537521D01*
X231797571Y100701308D01*
X231797566Y100701317D01*
X231699076Y100848717D01*
X231699073Y100848721D01*
X231573720Y100974074D01*
X231573716Y100974077D01*
X231426316Y101072567D01*
X231426307Y101072572D01*
X231262520Y101140414D01*
X231262512Y101140416D01*
X231200000Y101152851D01*
X231200000Y100317543D01*
X231144745Y100349444D01*
X231049370Y100375000D01*
X230950630Y100375000D01*
X230855255Y100349444D01*
X230800000Y100317543D01*
X230800000Y101152851D01*
X230737487Y101140416D01*
X230737479Y101140414D01*
X230573692Y101072572D01*
X230573683Y101072567D01*
X230426283Y100974077D01*
X230426279Y100974074D01*
X230300926Y100848721D01*
X230300923Y100848717D01*
X230202433Y100701317D01*
X230202428Y100701308D01*
X230134586Y100537521D01*
X230134584Y100537513D01*
X230100000Y100363647D01*
X229850499Y100363647D01*
X229850499Y100672872D01*
X229844091Y100732483D01*
X229832016Y100764857D01*
X229793797Y100867329D01*
X229793793Y100867336D01*
X229707547Y100982545D01*
X229707544Y100982548D01*
X229592335Y101068794D01*
X229592328Y101068798D01*
X229457482Y101119092D01*
X229457483Y101119092D01*
X229397883Y101125499D01*
X229397881Y101125500D01*
X229397873Y101125500D01*
X229397864Y101125500D01*
X228602129Y101125500D01*
X228602123Y101125499D01*
X228542516Y101119092D01*
X228407671Y101068798D01*
X228407664Y101068794D01*
X228292455Y100982548D01*
X228292452Y100982545D01*
X228206206Y100867336D01*
X228206202Y100867329D01*
X228155908Y100732483D01*
X228149501Y100672884D01*
X228149501Y100672877D01*
X228149500Y100672865D01*
X215000000Y100672865D01*
X215000000Y101215529D01*
X262372799Y101215529D01*
X262397797Y101089862D01*
X262397799Y101089856D01*
X262446833Y100971476D01*
X262446838Y100971467D01*
X262518022Y100864933D01*
X262518023Y100864932D01*
X262518024Y100864931D01*
X262586482Y100796473D01*
X262619966Y100735152D01*
X262622800Y100708793D01*
X262622800Y88685674D01*
X262650093Y88583811D01*
X262665254Y88557553D01*
X262702820Y88492487D01*
X262702821Y88492486D01*
X262702822Y88492485D01*
X304833127Y46362181D01*
X304866612Y46300858D01*
X304861628Y46231166D01*
X304819756Y46175233D01*
X304754292Y46150816D01*
X304745446Y46150500D01*
X304535323Y46150500D01*
X304462264Y46135968D01*
X304462260Y46135967D01*
X304379399Y46080601D01*
X304324033Y45997740D01*
X304324032Y45997736D01*
X304309500Y45924679D01*
X304309500Y44075322D01*
X304324032Y44002265D01*
X304324033Y44002261D01*
X304337937Y43981452D01*
X304379399Y43919399D01*
X304441614Y43877829D01*
X304462260Y43864034D01*
X304462264Y43864033D01*
X304535321Y43849501D01*
X304535324Y43849500D01*
X304535326Y43849500D01*
X305856764Y43849500D01*
X305923803Y43829815D01*
X305969558Y43777011D01*
X305979502Y43707853D01*
X305950477Y43644297D01*
X305944445Y43637819D01*
X305323945Y43017319D01*
X305262622Y42983834D01*
X305236264Y42981000D01*
X292341290Y42981000D01*
X292274251Y43000685D01*
X292228496Y43053489D01*
X292218552Y43122647D01*
X292247577Y43186203D01*
X292299514Y43221751D01*
X292530733Y43304482D01*
X292885586Y43472315D01*
X293222280Y43674122D01*
X293537573Y43907959D01*
X293828427Y44171573D01*
X294092041Y44462427D01*
X294325878Y44777720D01*
X294527685Y45114414D01*
X294695518Y45469267D01*
X294827761Y45838862D01*
X294923141Y46219639D01*
X294980738Y46607932D01*
X295000000Y47000000D01*
X294980738Y47392069D01*
X294923141Y47780362D01*
X294827761Y48161139D01*
X294695518Y48530734D01*
X294527685Y48885587D01*
X294325878Y49222281D01*
X294092041Y49537574D01*
X294092036Y49537580D01*
X293828427Y49828429D01*
X293537578Y50092038D01*
X293265394Y50293903D01*
X293222280Y50325879D01*
X293173318Y50355226D01*
X292885589Y50527685D01*
X292530733Y50695519D01*
X292530713Y50695527D01*
X292161148Y50827759D01*
X292161142Y50827761D01*
X292161138Y50827762D01*
X292010145Y50865584D01*
X291780368Y50923141D01*
X291392076Y50980738D01*
X291392074Y50980739D01*
X291392068Y50980739D01*
X291000000Y51000000D01*
X290999999Y51000000D01*
X290968266Y50998442D01*
X290607931Y50980739D01*
X290607925Y50980739D01*
X290607922Y50980738D01*
X290219630Y50923141D01*
X289913458Y50846448D01*
X289838861Y50827762D01*
X289838858Y50827762D01*
X289838850Y50827759D01*
X289469285Y50695527D01*
X289469265Y50695519D01*
X289114409Y50527685D01*
X288777721Y50325881D01*
X288462420Y50092038D01*
X288171571Y49828429D01*
X287907962Y49537580D01*
X287674119Y49222279D01*
X287472315Y48885591D01*
X287304481Y48530735D01*
X287304473Y48530715D01*
X287172241Y48161150D01*
X287076859Y47780370D01*
X287039830Y47530734D01*
X287019261Y47392069D01*
X287000000Y47000000D01*
X287019261Y46607932D01*
X287019261Y46607926D01*
X287019262Y46607924D01*
X287076859Y46219632D01*
X287125279Y46026333D01*
X287162546Y45877553D01*
X287172241Y45838852D01*
X287304473Y45469287D01*
X287304481Y45469267D01*
X287472315Y45114411D01*
X287665001Y44792935D01*
X287674121Y44777720D01*
X287902870Y44469287D01*
X287907962Y44462422D01*
X288171571Y44171573D01*
X288462420Y43907964D01*
X288462426Y43907959D01*
X288777719Y43674122D01*
X288804530Y43658052D01*
X289114409Y43472317D01*
X289114412Y43472316D01*
X289114413Y43472315D01*
X289469266Y43304482D01*
X289700484Y43221751D01*
X289756972Y43180633D01*
X289782264Y43115501D01*
X289768327Y43047035D01*
X289719588Y42996973D01*
X289658709Y42981000D01*
X277311536Y42981000D01*
X277244497Y43000685D01*
X277223855Y43017319D01*
X276639683Y43601491D01*
X276606198Y43662814D01*
X276611182Y43732506D01*
X276653054Y43788439D01*
X276707966Y43811645D01*
X276821002Y43829549D01*
X277000637Y43887915D01*
X277168937Y43973669D01*
X277235284Y44021874D01*
X277235285Y44021874D01*
X276733343Y44523815D01*
X276736853Y44524755D01*
X276853147Y44591898D01*
X276948102Y44686853D01*
X277015245Y44803147D01*
X277016185Y44806656D01*
X277518126Y44304715D01*
X277518126Y44304716D01*
X277566331Y44371063D01*
X277652085Y44539363D01*
X277710451Y44718998D01*
X277740000Y44905553D01*
X277740000Y45094448D01*
X277710451Y45281003D01*
X277652085Y45460638D01*
X277566329Y45628941D01*
X277518127Y45695286D01*
X277518126Y45695287D01*
X277016185Y45193345D01*
X277015245Y45196853D01*
X276948102Y45313147D01*
X276853147Y45408102D01*
X276736853Y45475245D01*
X276733343Y45476186D01*
X277235284Y45978128D01*
X277168933Y46026334D01*
X277000637Y46112086D01*
X276821002Y46170452D01*
X276634447Y46200000D01*
X276445553Y46200000D01*
X276258997Y46170452D01*
X276079362Y46112086D01*
X275911064Y46026333D01*
X275911062Y46026332D01*
X275844714Y45978129D01*
X275844714Y45978128D01*
X276346656Y45476186D01*
X276343147Y45475245D01*
X276226853Y45408102D01*
X276131898Y45313147D01*
X276064755Y45196853D01*
X276063814Y45193344D01*
X275561872Y45695286D01*
X275561871Y45695286D01*
X275513667Y45628937D01*
X275427915Y45460639D01*
X275414480Y45419290D01*
X275375042Y45361615D01*
X275310683Y45334417D01*
X275241837Y45346332D01*
X275190361Y45393576D01*
X275178618Y45419290D01*
X275171356Y45441640D01*
X275158884Y45480025D01*
X275158882Y45480028D01*
X275158882Y45480030D01*
X275096857Y45601761D01*
X275069524Y45655405D01*
X274953828Y45814646D01*
X274814646Y45953828D01*
X274655405Y46069524D01*
X274587693Y46104025D01*
X274480029Y46158883D01*
X274292826Y46219710D01*
X274098422Y46250500D01*
X274098417Y46250500D01*
X273901583Y46250500D01*
X273901578Y46250500D01*
X273707173Y46219710D01*
X273519970Y46158883D01*
X273344594Y46069524D01*
X273273026Y46017526D01*
X273185354Y45953828D01*
X273185352Y45953826D01*
X273185351Y45953826D01*
X273046174Y45814649D01*
X273046174Y45814648D01*
X273046172Y45814646D01*
X272998841Y45749501D01*
X272930476Y45655406D01*
X272844985Y45487619D01*
X272797011Y45436823D01*
X272729190Y45420028D01*
X272663055Y45442565D01*
X272619603Y45497280D01*
X272610500Y45543914D01*
X272610500Y45924677D01*
X272610499Y45924679D01*
X272595967Y45997736D01*
X272595966Y45997740D01*
X272594455Y46000001D01*
X272540601Y46080601D01*
X272457740Y46135966D01*
X272457739Y46135967D01*
X272457735Y46135968D01*
X272384677Y46150500D01*
X272384674Y46150500D01*
X270535326Y46150500D01*
X270535323Y46150500D01*
X270462264Y46135968D01*
X270462260Y46135967D01*
X270379399Y46080601D01*
X270324033Y45997740D01*
X270324032Y45997736D01*
X270309500Y45924679D01*
X270309500Y44075322D01*
X270324032Y44002265D01*
X270324033Y44002261D01*
X270337937Y43981452D01*
X270379399Y43919399D01*
X270441614Y43877829D01*
X270462260Y43864034D01*
X270462264Y43864033D01*
X270535321Y43849501D01*
X270535324Y43849500D01*
X270535326Y43849500D01*
X272384676Y43849500D01*
X272384677Y43849501D01*
X272457740Y43864034D01*
X272540601Y43919399D01*
X272595966Y44002260D01*
X272595966Y44002262D01*
X272600640Y44013544D01*
X272602719Y44012683D01*
X272627551Y44060155D01*
X272688266Y44094730D01*
X272758036Y44090991D01*
X272814709Y44050126D01*
X272834715Y44012374D01*
X272840852Y43993485D01*
X272841117Y43992672D01*
X272850800Y43973669D01*
X272930476Y43817295D01*
X273046172Y43658054D01*
X275788371Y40915855D01*
X275788372Y40915854D01*
X275927554Y40776672D01*
X276086795Y40660976D01*
X276260212Y40572616D01*
X276262179Y40571614D01*
X276346423Y40544242D01*
X276388546Y40530556D01*
X276388547Y40530555D01*
X276388548Y40530555D01*
X276449373Y40510791D01*
X276522276Y40499245D01*
X276643778Y40480000D01*
X276643783Y40480000D01*
X305904022Y40480000D01*
X306098426Y40510791D01*
X306159256Y40530556D01*
X306285626Y40571616D01*
X306461005Y40660976D01*
X306620246Y40776672D01*
X308953828Y43110254D01*
X309069524Y43269495D01*
X309083532Y43296987D01*
X309085745Y43301329D01*
X309142396Y43412516D01*
X309158884Y43444875D01*
X309219709Y43632074D01*
X309230070Y43697488D01*
X309242777Y43777720D01*
X309250500Y43826479D01*
X309250500Y44371062D01*
X309270185Y44438101D01*
X309322989Y44483856D01*
X309392147Y44493800D01*
X309455703Y44464775D01*
X309484985Y44427357D01*
X309513666Y44371067D01*
X309561872Y44304716D01*
X310063814Y44806658D01*
X310064755Y44803147D01*
X310131898Y44686853D01*
X310226853Y44591898D01*
X310343147Y44524755D01*
X310346655Y44523815D01*
X309844713Y44021874D01*
X309844714Y44021873D01*
X309911059Y43973671D01*
X310079362Y43887915D01*
X310258997Y43829549D01*
X310445553Y43800000D01*
X310634447Y43800000D01*
X310821002Y43829549D01*
X311000637Y43887915D01*
X311168937Y43973669D01*
X311235284Y44021874D01*
X311235285Y44021874D01*
X310733344Y44523815D01*
X310736853Y44524755D01*
X310853147Y44591898D01*
X310948102Y44686853D01*
X311015245Y44803147D01*
X311016185Y44806656D01*
X311518126Y44304715D01*
X311518126Y44304716D01*
X311566331Y44371063D01*
X311652085Y44539363D01*
X311710451Y44718998D01*
X311740000Y44905553D01*
X311740000Y45094448D01*
X311710451Y45281003D01*
X311652085Y45460638D01*
X311566329Y45628941D01*
X311518127Y45695286D01*
X311518126Y45695287D01*
X311016185Y45193345D01*
X311015245Y45196853D01*
X310948102Y45313147D01*
X310853147Y45408102D01*
X310736853Y45475245D01*
X310733343Y45476186D01*
X311235284Y45978128D01*
X311168933Y46026334D01*
X311000637Y46112086D01*
X310821002Y46170452D01*
X310634447Y46200000D01*
X310445553Y46200000D01*
X310258997Y46170452D01*
X310079362Y46112086D01*
X309911064Y46026333D01*
X309911062Y46026332D01*
X309844714Y45978129D01*
X309844714Y45978128D01*
X310346656Y45476186D01*
X310343147Y45475245D01*
X310226853Y45408102D01*
X310131898Y45313147D01*
X310064755Y45196853D01*
X310063814Y45193344D01*
X309561872Y45695286D01*
X309561871Y45695286D01*
X309513667Y45628937D01*
X309427915Y45460639D01*
X309414480Y45419290D01*
X309375042Y45361615D01*
X309310683Y45334417D01*
X309241837Y45346332D01*
X309190361Y45393576D01*
X309178618Y45419290D01*
X309171356Y45441640D01*
X309158884Y45480025D01*
X309158882Y45480028D01*
X309158882Y45480030D01*
X309096857Y45601761D01*
X309069524Y45655405D01*
X308953828Y45814646D01*
X308814646Y45953828D01*
X308655405Y46069524D01*
X308587693Y46104025D01*
X308480029Y46158883D01*
X308292826Y46219710D01*
X308098422Y46250500D01*
X308098417Y46250500D01*
X307901583Y46250500D01*
X307901578Y46250500D01*
X307707173Y46219710D01*
X307519970Y46158883D01*
X307344594Y46069524D01*
X307273026Y46017526D01*
X307185354Y45953828D01*
X307185352Y45953826D01*
X307185351Y45953826D01*
X307046174Y45814649D01*
X307046174Y45814648D01*
X307046172Y45814646D01*
X306998841Y45749501D01*
X306930476Y45655406D01*
X306844985Y45487619D01*
X306797011Y45436823D01*
X306729190Y45420028D01*
X306663055Y45442565D01*
X306619603Y45497280D01*
X306610500Y45543914D01*
X306610500Y45924677D01*
X306610499Y45924679D01*
X306595967Y45997736D01*
X306595966Y45997740D01*
X306594455Y46000001D01*
X306540601Y46080601D01*
X306457740Y46135966D01*
X306457739Y46135967D01*
X306457735Y46135968D01*
X306384677Y46150500D01*
X306384674Y46150500D01*
X305984501Y46150500D01*
X305917462Y46170185D01*
X305871707Y46222989D01*
X305860501Y46274500D01*
X305860501Y46354426D01*
X305850414Y46392069D01*
X305833207Y46456287D01*
X305833206Y46456288D01*
X305833206Y46456290D01*
X305833204Y46456293D01*
X305812977Y46491327D01*
X305812975Y46491329D01*
X305780481Y46547612D01*
X305701582Y46626511D01*
X305701571Y46626521D01*
X263460119Y88867974D01*
X263426634Y88929297D01*
X263423800Y88955655D01*
X263423800Y100708793D01*
X263443485Y100775832D01*
X263460114Y100796470D01*
X263528576Y100864931D01*
X263599765Y100971473D01*
X263648801Y101089856D01*
X263673800Y101215531D01*
X263673800Y101343669D01*
X263673800Y101343672D01*
X263648802Y101469339D01*
X263648801Y101469340D01*
X263648801Y101469344D01*
X263599765Y101587727D01*
X263599764Y101587728D01*
X263599761Y101587734D01*
X263528576Y101694269D01*
X263528573Y101694273D01*
X263437972Y101784874D01*
X263437968Y101784877D01*
X263331433Y101856062D01*
X263331424Y101856067D01*
X263213044Y101905101D01*
X263213038Y101905103D01*
X263087371Y101930100D01*
X263087369Y101930100D01*
X262959231Y101930100D01*
X262959229Y101930100D01*
X262833561Y101905103D01*
X262833555Y101905101D01*
X262715175Y101856067D01*
X262715166Y101856062D01*
X262608631Y101784877D01*
X262608627Y101784874D01*
X262518026Y101694273D01*
X262518023Y101694269D01*
X262446838Y101587734D01*
X262446833Y101587725D01*
X262397799Y101469345D01*
X262397797Y101469339D01*
X262372800Y101343672D01*
X262372800Y101343669D01*
X262372800Y101215531D01*
X262372800Y101215529D01*
X262372799Y101215529D01*
X215000000Y101215529D01*
X215000000Y108000000D01*
X145000000Y108000000D01*
X145000000Y102621236D01*
X144980315Y102554197D01*
X144927511Y102508442D01*
X144858353Y102498498D01*
X144794797Y102527523D01*
X144788319Y102533555D01*
X133321874Y114000000D01*
X320000000Y114000000D01*
X320019261Y113607932D01*
X320019261Y113607926D01*
X320019262Y113607924D01*
X320076859Y113219632D01*
X320172241Y112838852D01*
X320304473Y112469287D01*
X320304481Y112469267D01*
X320472315Y112114411D01*
X320674119Y111777723D01*
X320674121Y111777720D01*
X320836593Y111558651D01*
X320907962Y111462422D01*
X321171571Y111171573D01*
X321382422Y110980470D01*
X321462426Y110907959D01*
X321777719Y110674122D01*
X321777721Y110674121D01*
X322114409Y110472317D01*
X322114412Y110472316D01*
X322114413Y110472315D01*
X322469266Y110304482D01*
X322469280Y110304477D01*
X322469285Y110304475D01*
X322749681Y110204148D01*
X322838861Y110172239D01*
X323219638Y110076859D01*
X323607931Y110019262D01*
X324000000Y110000000D01*
X324392068Y110019262D01*
X324780361Y110076859D01*
X325161138Y110172239D01*
X325530733Y110304482D01*
X325885586Y110472315D01*
X326222280Y110674122D01*
X326537573Y110907959D01*
X326828427Y111171573D01*
X327092041Y111462427D01*
X327325878Y111777720D01*
X327527685Y112114414D01*
X327695518Y112469267D01*
X327827761Y112838862D01*
X327923141Y113219639D01*
X327980738Y113607932D01*
X328000000Y114000000D01*
X327980738Y114392069D01*
X327923141Y114780362D01*
X327827761Y115161139D01*
X327700846Y115515844D01*
X327695525Y115530715D01*
X327695523Y115530720D01*
X327695518Y115530734D01*
X327527685Y115885587D01*
X327505244Y115923027D01*
X327393039Y116110230D01*
X327325878Y116222281D01*
X327092041Y116537574D01*
X327092036Y116537580D01*
X326828427Y116828429D01*
X326537578Y117092038D01*
X326484144Y117131667D01*
X326222280Y117325879D01*
X326222277Y117325881D01*
X325885589Y117527685D01*
X325530733Y117695519D01*
X325530713Y117695527D01*
X325161148Y117827759D01*
X325161142Y117827761D01*
X325161138Y117827762D01*
X325010145Y117865584D01*
X324780368Y117923141D01*
X324392076Y117980738D01*
X324392074Y117980739D01*
X324392068Y117980739D01*
X324000000Y118000000D01*
X323999999Y118000000D01*
X323968266Y117998442D01*
X323607931Y117980739D01*
X323607925Y117980739D01*
X323607922Y117980738D01*
X323219630Y117923141D01*
X322913458Y117846448D01*
X322838861Y117827762D01*
X322838858Y117827762D01*
X322838850Y117827759D01*
X322469285Y117695527D01*
X322469265Y117695519D01*
X322114409Y117527685D01*
X321777721Y117325881D01*
X321462420Y117092038D01*
X321171571Y116828429D01*
X320907962Y116537580D01*
X320674119Y116222279D01*
X320472315Y115885591D01*
X320304481Y115530735D01*
X320304473Y115530715D01*
X320172241Y115161150D01*
X320076859Y114780370D01*
X320025348Y114433102D01*
X320019261Y114392069D01*
X320000000Y114000000D01*
X133321874Y114000000D01*
X131745119Y115576755D01*
X131711634Y115638078D01*
X131708800Y115664436D01*
X131708800Y115728623D01*
X131678009Y115923027D01*
X131617182Y116110230D01*
X131570043Y116202745D01*
X131527824Y116285605D01*
X131412128Y116444846D01*
X131272946Y116584028D01*
X131113705Y116699724D01*
X131074376Y116719763D01*
X130938329Y116789083D01*
X130751126Y116849910D01*
X130556722Y116880700D01*
X130556717Y116880700D01*
X130359783Y116880700D01*
X130359778Y116880700D01*
X130165373Y116849910D01*
X129978170Y116789083D01*
X129867434Y116732659D01*
X129798764Y116719763D01*
X129734024Y116746039D01*
X129723458Y116755463D01*
X129679872Y116799049D01*
X129678503Y116800560D01*
X129534159Y116944904D01*
X129534155Y116944907D01*
X129368657Y117055490D01*
X129368647Y117055495D01*
X129184752Y117131667D01*
X129184744Y117131669D01*
X128989529Y117170500D01*
X128989526Y117170500D01*
X128790474Y117170500D01*
X128790471Y117170500D01*
X128595255Y117131669D01*
X128595247Y117131667D01*
X128411352Y117055495D01*
X128411342Y117055490D01*
X128245844Y116944907D01*
X128245840Y116944904D01*
X128105096Y116804160D01*
X128105093Y116804156D01*
X127994510Y116638658D01*
X127994505Y116638648D01*
X127918333Y116454753D01*
X127918331Y116454745D01*
X127879500Y116259531D01*
X127879500Y116060470D01*
X127918331Y115865256D01*
X127918333Y115865248D01*
X127994505Y115681353D01*
X127994510Y115681343D01*
X128105093Y115515845D01*
X128105096Y115515841D01*
X128249440Y115371497D01*
X128250951Y115370128D01*
X128631845Y114989234D01*
X128631874Y114989203D01*
X128751241Y114869836D01*
X128784726Y114808513D01*
X128779742Y114738821D01*
X128737870Y114682888D01*
X128687752Y114660538D01*
X128580814Y114639267D01*
X128580808Y114639265D01*
X128387900Y114559360D01*
X128295333Y114497510D01*
X128295332Y114497509D01*
X128696656Y114096186D01*
X128693147Y114095245D01*
X128576853Y114028102D01*
X128481898Y113933147D01*
X128414755Y113816853D01*
X128413814Y113813345D01*
X128012491Y114214668D01*
X128012490Y114214667D01*
X127950640Y114122100D01*
X127870735Y113929192D01*
X127870733Y113929184D01*
X127830000Y113724406D01*
X127830000Y113515595D01*
X127870733Y113310817D01*
X127870735Y113310809D01*
X127950639Y113117904D01*
X128012491Y113025335D01*
X128012492Y113025334D01*
X128413814Y113426657D01*
X128414755Y113423147D01*
X128481898Y113306853D01*
X128576853Y113211898D01*
X128693147Y113144755D01*
X128696656Y113143815D01*
X128295333Y112742493D01*
X128295333Y112742492D01*
X128387903Y112680640D01*
X128580808Y112600736D01*
X128580816Y112600734D01*
X128785594Y112560001D01*
X128785598Y112560000D01*
X128994402Y112560000D01*
X128994405Y112560001D01*
X129199183Y112600734D01*
X129199191Y112600736D01*
X129392095Y112680639D01*
X129392103Y112680644D01*
X129484665Y112742492D01*
X129484665Y112742493D01*
X129083343Y113143815D01*
X129086853Y113144755D01*
X129203147Y113211898D01*
X129298102Y113306853D01*
X129365245Y113423147D01*
X129366185Y113426657D01*
X129767507Y113025335D01*
X129767508Y113025335D01*
X129829356Y113117897D01*
X129829361Y113117905D01*
X129909264Y113310809D01*
X129909266Y113310817D01*
X129949999Y113515595D01*
X129950000Y113515598D01*
X129950000Y113535564D01*
X129969685Y113602603D01*
X130022489Y113648358D01*
X130091647Y113658302D01*
X130155203Y113629277D01*
X130161681Y113623245D01*
X144963681Y98821245D01*
X144997166Y98759922D01*
X145000000Y98733564D01*
X145000000Y83706208D01*
X144980315Y83639169D01*
X144927511Y83593414D01*
X144858353Y83583470D01*
X144794797Y83612495D01*
X144788319Y83618527D01*
X144761572Y83645274D01*
X144761568Y83645277D01*
X144655033Y83716462D01*
X144655024Y83716467D01*
X144536644Y83765501D01*
X144536638Y83765503D01*
X144410971Y83790500D01*
X144410969Y83790500D01*
X144282831Y83790500D01*
X144282829Y83790500D01*
X144157161Y83765503D01*
X144157155Y83765501D01*
X144038775Y83716467D01*
X144038766Y83716462D01*
X143932231Y83645277D01*
X143932227Y83645274D01*
X143841626Y83554673D01*
X143841623Y83554669D01*
X143770438Y83448134D01*
X143770433Y83448125D01*
X143721399Y83329745D01*
X143721397Y83329739D01*
X143696400Y83204072D01*
X143696400Y83204069D01*
X143696400Y83075931D01*
X143696400Y83075929D01*
X143696399Y83075929D01*
X143721397Y82950262D01*
X143721399Y82950256D01*
X143770433Y82831876D01*
X143770438Y82831867D01*
X143841623Y82725332D01*
X143841626Y82725328D01*
X143932227Y82634727D01*
X143932231Y82634724D01*
X144038766Y82563539D01*
X144038772Y82563536D01*
X144038773Y82563535D01*
X144157156Y82514499D01*
X144157160Y82514499D01*
X144157161Y82514498D01*
X144282828Y82489500D01*
X144282831Y82489500D01*
X144410971Y82489500D01*
X144495515Y82506318D01*
X144536644Y82514499D01*
X144655027Y82563535D01*
X144761569Y82634724D01*
X144788319Y82661475D01*
X144849640Y82694959D01*
X144919332Y82689975D01*
X144975266Y82648105D01*
X144999684Y82582641D01*
X145000000Y82573793D01*
X145000000Y75810555D01*
X144980315Y75743516D01*
X144927511Y75697761D01*
X144858353Y75687817D01*
X144794797Y75716842D01*
X144788319Y75722874D01*
X140107119Y80404074D01*
X140073634Y80465397D01*
X140070800Y80491755D01*
X140070800Y80588572D01*
X140045802Y80714239D01*
X140045801Y80714240D01*
X140045801Y80714244D01*
X139996765Y80832627D01*
X139996764Y80832628D01*
X139996761Y80832634D01*
X139925576Y80939169D01*
X139925573Y80939173D01*
X139834972Y81029774D01*
X139834968Y81029777D01*
X139728433Y81100962D01*
X139728424Y81100967D01*
X139610044Y81150001D01*
X139610038Y81150003D01*
X139484371Y81175000D01*
X139484369Y81175000D01*
X139356231Y81175000D01*
X139356229Y81175000D01*
X139230561Y81150003D01*
X139230555Y81150001D01*
X139190551Y81133431D01*
X139121081Y81125964D01*
X139058603Y81157240D01*
X139022951Y81217329D01*
X139019100Y81247993D01*
X139019100Y100501723D01*
X138988310Y100696123D01*
X138986893Y100700483D01*
X138986892Y100700486D01*
X138962410Y100775832D01*
X138960276Y100782401D01*
X138938729Y100848717D01*
X138927485Y100883323D01*
X138927483Y100883326D01*
X138922008Y100894073D01*
X138838124Y101058705D01*
X138722428Y101217946D01*
X138583246Y101357128D01*
X131716546Y108223828D01*
X131557305Y108339524D01*
X131381926Y108428884D01*
X131194726Y108489709D01*
X131194723Y108489710D01*
X131194724Y108489710D01*
X131135350Y108499114D01*
X131072215Y108529044D01*
X131067068Y108533906D01*
X130636948Y108964026D01*
X130636946Y108964028D01*
X130477705Y109079724D01*
X130302330Y109169083D01*
X130115126Y109229910D01*
X129920722Y109260700D01*
X129920717Y109260700D01*
X129723883Y109260700D01*
X129723878Y109260700D01*
X129677927Y109253422D01*
X129608634Y109262376D01*
X129570847Y109288215D01*
X129534159Y109324904D01*
X129534155Y109324907D01*
X129368657Y109435490D01*
X129368647Y109435495D01*
X129184752Y109511667D01*
X129184744Y109511669D01*
X128989529Y109550500D01*
X128989526Y109550500D01*
X128790474Y109550500D01*
X128790471Y109550500D01*
X128595255Y109511669D01*
X128595247Y109511667D01*
X128411352Y109435495D01*
X128411342Y109435490D01*
X128245844Y109324907D01*
X128245840Y109324904D01*
X128105096Y109184160D01*
X128105093Y109184156D01*
X127994510Y109018658D01*
X127994505Y109018648D01*
X127918333Y108834753D01*
X127918331Y108834745D01*
X127879500Y108639531D01*
X127879500Y108440470D01*
X127918331Y108245256D01*
X127918333Y108245248D01*
X127994505Y108061353D01*
X127994510Y108061343D01*
X128105093Y107895845D01*
X128105096Y107895841D01*
X128249440Y107751497D01*
X128250951Y107750128D01*
X128631845Y107369234D01*
X128631874Y107369203D01*
X128775705Y107225372D01*
X128777982Y107223851D01*
X128778906Y107222746D01*
X128780415Y107221507D01*
X128780180Y107221221D01*
X128822791Y107170242D01*
X128831504Y107100918D01*
X128801354Y107037888D01*
X128741913Y107001165D01*
X128733291Y106999127D01*
X128595253Y106971669D01*
X128595247Y106971667D01*
X128411352Y106895495D01*
X128411342Y106895490D01*
X128245844Y106784907D01*
X128245840Y106784904D01*
X128105096Y106644160D01*
X128105093Y106644156D01*
X127994510Y106478658D01*
X127994505Y106478648D01*
X127918333Y106294753D01*
X127918331Y106294745D01*
X127879500Y106099531D01*
X127879500Y105900470D01*
X127918331Y105705256D01*
X127918333Y105705248D01*
X127994505Y105521353D01*
X127994510Y105521343D01*
X128105093Y105355845D01*
X128105096Y105355841D01*
X128245840Y105215097D01*
X128245844Y105215094D01*
X128411342Y105104511D01*
X128411346Y105104509D01*
X128411349Y105104507D01*
X128595248Y105028333D01*
X128790469Y104989501D01*
X128790472Y104989500D01*
X128790474Y104989500D01*
X128989528Y104989500D01*
X128989529Y104989501D01*
X129184752Y105028333D01*
X129368651Y105104507D01*
X129534156Y105215094D01*
X129674906Y105355844D01*
X129785493Y105521349D01*
X129861667Y105705248D01*
X129900500Y105900474D01*
X129900500Y106099526D01*
X129900499Y106099529D01*
X129899431Y106104901D01*
X129905658Y106174493D01*
X129948520Y106229671D01*
X130014409Y106252916D01*
X130059366Y106247025D01*
X130079473Y106240491D01*
X130138848Y106231088D01*
X130201980Y106201160D01*
X130207130Y106196296D01*
X136481781Y99921645D01*
X136515266Y99860322D01*
X136518100Y99833964D01*
X136518100Y85659355D01*
X136498415Y85592316D01*
X136445611Y85546561D01*
X136376453Y85536617D01*
X136312897Y85565642D01*
X136306419Y85571674D01*
X129625215Y92252878D01*
X129625213Y92252880D01*
X129538532Y92302926D01*
X129490317Y92353494D01*
X129477095Y92422101D01*
X129503063Y92486966D01*
X129531651Y92513421D01*
X129534156Y92515094D01*
X129674906Y92655844D01*
X129785493Y92821349D01*
X129861667Y93005248D01*
X129900500Y93200474D01*
X129900500Y93399526D01*
X129900500Y93399529D01*
X129900499Y93399531D01*
X129878625Y93509500D01*
X129861667Y93594752D01*
X129785493Y93778651D01*
X129785491Y93778654D01*
X129785489Y93778658D01*
X129674906Y93944156D01*
X129674903Y93944160D01*
X129534159Y94084904D01*
X129534155Y94084907D01*
X129368657Y94195490D01*
X129368647Y94195495D01*
X129184752Y94271667D01*
X129184744Y94271669D01*
X128989529Y94310500D01*
X128989526Y94310500D01*
X128790474Y94310500D01*
X128790471Y94310500D01*
X128595255Y94271669D01*
X128595247Y94271667D01*
X128411352Y94195495D01*
X128411342Y94195490D01*
X128245844Y94084907D01*
X128245840Y94084904D01*
X128105096Y93944160D01*
X128105093Y93944156D01*
X127994510Y93778658D01*
X127994505Y93778648D01*
X127918333Y93594753D01*
X127918331Y93594745D01*
X127879500Y93399531D01*
X127879500Y93200470D01*
X127918331Y93005256D01*
X127918333Y93005248D01*
X127994505Y92821353D01*
X127994510Y92821343D01*
X128105093Y92655845D01*
X128105096Y92655841D01*
X128245840Y92515097D01*
X128245844Y92515094D01*
X128256562Y92507932D01*
X128301367Y92454319D01*
X128310074Y92384994D01*
X128279919Y92321967D01*
X128249672Y92297444D01*
X128172486Y92252880D01*
X127406922Y91487316D01*
X127406920Y91487313D01*
X127355041Y91397456D01*
X127354193Y91395988D01*
X127339773Y91342171D01*
X127339773Y91342170D01*
X127339772Y91342171D01*
X127326900Y91294129D01*
X127326900Y86789874D01*
X127354193Y86688011D01*
X127375564Y86650997D01*
X127406920Y86596687D01*
X127406921Y86596686D01*
X127406922Y86596685D01*
X127892117Y86111490D01*
X127925602Y86050167D01*
X127920618Y85980475D01*
X127919003Y85976370D01*
X127918334Y85974755D01*
X127918330Y85974745D01*
X127879500Y85779531D01*
X127879500Y85580470D01*
X127918331Y85385256D01*
X127918333Y85385248D01*
X127994505Y85201353D01*
X127994510Y85201343D01*
X128105093Y85035845D01*
X128105096Y85035841D01*
X128245840Y84895097D01*
X128245844Y84895094D01*
X128411342Y84784511D01*
X128411346Y84784509D01*
X128411349Y84784507D01*
X128595248Y84708333D01*
X128790469Y84669501D01*
X128790472Y84669500D01*
X128790474Y84669500D01*
X128989528Y84669500D01*
X128989529Y84669501D01*
X129184752Y84708333D01*
X129368651Y84784507D01*
X129534156Y84895094D01*
X129674906Y85035844D01*
X129785493Y85201349D01*
X129861667Y85385248D01*
X129900500Y85580474D01*
X129900500Y85779526D01*
X129900500Y85779529D01*
X129900499Y85779531D01*
X129878625Y85889500D01*
X129861667Y85974752D01*
X129785493Y86158651D01*
X129785491Y86158654D01*
X129785489Y86158658D01*
X129674906Y86324156D01*
X129674903Y86324160D01*
X129534159Y86464904D01*
X129534155Y86464907D01*
X129368657Y86575490D01*
X129368647Y86575495D01*
X129184752Y86651667D01*
X129184744Y86651669D01*
X128989529Y86690500D01*
X128989526Y86690500D01*
X128790474Y86690500D01*
X128790471Y86690500D01*
X128595255Y86651670D01*
X128595245Y86651666D01*
X128593630Y86650997D01*
X128592717Y86650900D01*
X128589425Y86649900D01*
X128589235Y86650526D01*
X128524160Y86643537D01*
X128461684Y86674819D01*
X128458510Y86677883D01*
X128164219Y86972174D01*
X128130734Y87033497D01*
X128127900Y87059855D01*
X128127900Y87222380D01*
X128147585Y87289419D01*
X128200389Y87335174D01*
X128269547Y87345118D01*
X128320791Y87325482D01*
X128387902Y87280640D01*
X128580808Y87200736D01*
X128580816Y87200734D01*
X128785594Y87160001D01*
X128785598Y87160000D01*
X128994402Y87160000D01*
X128994405Y87160001D01*
X129199183Y87200734D01*
X129199191Y87200736D01*
X129392095Y87280639D01*
X129392103Y87280644D01*
X129484665Y87342492D01*
X129484665Y87342493D01*
X129083343Y87743815D01*
X129086853Y87744755D01*
X129203147Y87811898D01*
X129298102Y87906853D01*
X129365245Y88023147D01*
X129366185Y88026657D01*
X129767507Y87625335D01*
X129767508Y87625335D01*
X129829356Y87717897D01*
X129829361Y87717905D01*
X129909264Y87910809D01*
X129909266Y87910817D01*
X129949999Y88115595D01*
X129950000Y88115598D01*
X129950000Y88324402D01*
X129949999Y88324406D01*
X129909266Y88529184D01*
X129909264Y88529192D01*
X129829360Y88722097D01*
X129767507Y88814667D01*
X129366185Y88413345D01*
X129365245Y88416853D01*
X129298102Y88533147D01*
X129203147Y88628102D01*
X129086853Y88695245D01*
X129083343Y88696186D01*
X129484666Y89097509D01*
X129392096Y89159361D01*
X129199191Y89239265D01*
X129199183Y89239267D01*
X128994405Y89280000D01*
X128785594Y89280000D01*
X128580816Y89239267D01*
X128580808Y89239265D01*
X128387903Y89159361D01*
X128320790Y89114518D01*
X128254112Y89093641D01*
X128186732Y89112126D01*
X128140042Y89164106D01*
X128127900Y89217621D01*
X128127900Y89821914D01*
X128147585Y89888953D01*
X128200389Y89934708D01*
X128269547Y89944652D01*
X128320790Y89925017D01*
X128411349Y89864507D01*
X128595248Y89788333D01*
X128790469Y89749501D01*
X128790472Y89749500D01*
X128790474Y89749500D01*
X128989528Y89749500D01*
X128989529Y89749501D01*
X129184752Y89788333D01*
X129186341Y89788992D01*
X129187240Y89789089D01*
X129190583Y89790102D01*
X129190775Y89789469D01*
X129255807Y89796470D01*
X129318291Y89765204D01*
X129321489Y89762118D01*
X130230981Y88852626D01*
X130264466Y88791303D01*
X130267300Y88764945D01*
X130267300Y80881056D01*
X130247615Y80814017D01*
X130230981Y80793374D01*
X130103799Y80666193D01*
X130042476Y80632709D01*
X129972784Y80637693D01*
X129916851Y80679565D01*
X129894501Y80729684D01*
X129881832Y80793374D01*
X129861667Y80894752D01*
X129785493Y81078651D01*
X129785491Y81078654D01*
X129785489Y81078658D01*
X129674906Y81244156D01*
X129674903Y81244160D01*
X129534159Y81384904D01*
X129534155Y81384907D01*
X129368657Y81495490D01*
X129368647Y81495495D01*
X129184752Y81571667D01*
X129184744Y81571669D01*
X128989529Y81610500D01*
X128989526Y81610500D01*
X128790474Y81610500D01*
X128790471Y81610500D01*
X128595255Y81571669D01*
X128595247Y81571667D01*
X128411352Y81495495D01*
X128411342Y81495490D01*
X128245844Y81384907D01*
X128245840Y81384904D01*
X128105096Y81244160D01*
X128105093Y81244156D01*
X127994510Y81078658D01*
X127994505Y81078648D01*
X127918333Y80894753D01*
X127918331Y80894745D01*
X127879500Y80699531D01*
X127879500Y80500470D01*
X127918331Y80305256D01*
X127918333Y80305248D01*
X127994505Y80121353D01*
X127994510Y80121343D01*
X128105093Y79955845D01*
X128105096Y79955841D01*
X128242741Y79818196D01*
X128276226Y79756873D01*
X128271242Y79687181D01*
X128242741Y79642834D01*
X127396322Y78796416D01*
X127396320Y78796413D01*
X127343591Y78705087D01*
X127332772Y78664707D01*
X127332759Y78664656D01*
X127332376Y78663224D01*
X127316300Y78603227D01*
X111962345Y78603227D01*
X111894906Y78704156D01*
X111894903Y78704160D01*
X111754159Y78844904D01*
X111754155Y78844907D01*
X111588657Y78955490D01*
X111588647Y78955495D01*
X111404752Y79031667D01*
X111404744Y79031669D01*
X111209529Y79070500D01*
X111209526Y79070500D01*
X111010474Y79070500D01*
X111010471Y79070500D01*
X110815255Y79031669D01*
X110815240Y79031665D01*
X110813636Y79031000D01*
X110812728Y79030903D01*
X110809421Y79029899D01*
X110809230Y79030527D01*
X110744166Y79023536D01*
X110681689Y79054815D01*
X110678510Y79057883D01*
X109891815Y79844578D01*
X109891813Y79844580D01*
X109835098Y79877325D01*
X109800489Y79897307D01*
X109749557Y79910954D01*
X109698627Y79924600D01*
X67036827Y79924600D01*
X66931373Y79924600D01*
X66829510Y79897307D01*
X66738187Y79844580D01*
X66738184Y79844578D01*
X59080426Y72186819D01*
X59019103Y72153334D01*
X58992745Y72150500D01*
X58043655Y72150500D01*
X57976616Y72170185D01*
X57930861Y72222989D01*
X57920917Y72292147D01*
X57949942Y72355703D01*
X57955974Y72362181D01*
X62133060Y76539267D01*
X66293323Y80699531D01*
X110099500Y80699531D01*
X110099500Y80500470D01*
X110138331Y80305256D01*
X110138333Y80305248D01*
X110214505Y80121353D01*
X110214510Y80121343D01*
X110325093Y79955845D01*
X110325096Y79955841D01*
X110465840Y79815097D01*
X110465844Y79815094D01*
X110631342Y79704511D01*
X110631346Y79704509D01*
X110631349Y79704507D01*
X110815248Y79628333D01*
X111010469Y79589501D01*
X111010472Y79589500D01*
X111010474Y79589500D01*
X111209528Y79589500D01*
X111209529Y79589501D01*
X111404752Y79628333D01*
X111588651Y79704507D01*
X111754156Y79815094D01*
X111894906Y79955844D01*
X112005493Y80121349D01*
X112081667Y80305248D01*
X112120500Y80500474D01*
X112120500Y80699526D01*
X112120500Y80699529D01*
X112120499Y80699531D01*
X112098625Y80809500D01*
X112081667Y80894752D01*
X112005493Y81078651D01*
X112005491Y81078654D01*
X112005489Y81078658D01*
X111894906Y81244156D01*
X111894903Y81244160D01*
X111754159Y81384904D01*
X111754155Y81384907D01*
X111588657Y81495490D01*
X111588647Y81495495D01*
X111404752Y81571667D01*
X111404744Y81571669D01*
X111209529Y81610500D01*
X111209526Y81610500D01*
X111010474Y81610500D01*
X111010471Y81610500D01*
X110815255Y81571669D01*
X110815247Y81571667D01*
X110631352Y81495495D01*
X110631342Y81495490D01*
X110465844Y81384907D01*
X110465840Y81384904D01*
X110325096Y81244160D01*
X110325093Y81244156D01*
X110214510Y81078658D01*
X110214505Y81078648D01*
X110138333Y80894753D01*
X110138331Y80894745D01*
X110099500Y80699531D01*
X66293323Y80699531D01*
X68833323Y83239531D01*
X110099500Y83239531D01*
X110099500Y83040470D01*
X110138331Y82845256D01*
X110138333Y82845248D01*
X110214505Y82661353D01*
X110214510Y82661343D01*
X110325093Y82495845D01*
X110325096Y82495841D01*
X110465840Y82355097D01*
X110465844Y82355094D01*
X110631342Y82244511D01*
X110631346Y82244509D01*
X110631349Y82244507D01*
X110815248Y82168333D01*
X111010469Y82129501D01*
X111010472Y82129500D01*
X111010474Y82129500D01*
X111209528Y82129500D01*
X111209529Y82129501D01*
X111404752Y82168333D01*
X111588651Y82244507D01*
X111754156Y82355094D01*
X111894906Y82495844D01*
X112005493Y82661349D01*
X112081667Y82845248D01*
X112120500Y83040474D01*
X112120500Y83239526D01*
X112120500Y83239529D01*
X112120499Y83239531D01*
X127879500Y83239531D01*
X127879500Y83040470D01*
X127918331Y82845256D01*
X127918333Y82845248D01*
X127994505Y82661353D01*
X127994510Y82661343D01*
X128105093Y82495845D01*
X128105096Y82495841D01*
X128245840Y82355097D01*
X128245844Y82355094D01*
X128411342Y82244511D01*
X128411346Y82244509D01*
X128411349Y82244507D01*
X128595248Y82168333D01*
X128790469Y82129501D01*
X128790472Y82129500D01*
X128790474Y82129500D01*
X128989528Y82129500D01*
X128989529Y82129501D01*
X129184752Y82168333D01*
X129368651Y82244507D01*
X129534156Y82355094D01*
X129674906Y82495844D01*
X129785493Y82661349D01*
X129861667Y82845248D01*
X129900500Y83040474D01*
X129900500Y83239526D01*
X129900500Y83239529D01*
X129900499Y83239531D01*
X129878625Y83349500D01*
X129861667Y83434752D01*
X129785493Y83618651D01*
X129785491Y83618654D01*
X129785489Y83618658D01*
X129674906Y83784156D01*
X129674903Y83784160D01*
X129534159Y83924904D01*
X129534155Y83924907D01*
X129368657Y84035490D01*
X129368647Y84035495D01*
X129184752Y84111667D01*
X129184744Y84111669D01*
X128989529Y84150500D01*
X128989526Y84150500D01*
X128790474Y84150500D01*
X128790471Y84150500D01*
X128595255Y84111669D01*
X128595247Y84111667D01*
X128411352Y84035495D01*
X128411342Y84035490D01*
X128245844Y83924907D01*
X128245840Y83924904D01*
X128105096Y83784160D01*
X128105093Y83784156D01*
X127994510Y83618658D01*
X127994505Y83618648D01*
X127918333Y83434753D01*
X127918331Y83434745D01*
X127879500Y83239531D01*
X112120499Y83239531D01*
X112098625Y83349500D01*
X112081667Y83434752D01*
X112005493Y83618651D01*
X112005491Y83618654D01*
X112005489Y83618658D01*
X111894906Y83784156D01*
X111894903Y83784160D01*
X111754159Y83924904D01*
X111754155Y83924907D01*
X111588657Y84035490D01*
X111588647Y84035495D01*
X111404752Y84111667D01*
X111404744Y84111669D01*
X111209529Y84150500D01*
X111209526Y84150500D01*
X111010474Y84150500D01*
X111010471Y84150500D01*
X110815255Y84111669D01*
X110815247Y84111667D01*
X110631352Y84035495D01*
X110631342Y84035490D01*
X110465844Y83924907D01*
X110465840Y83924904D01*
X110325096Y83784160D01*
X110325093Y83784156D01*
X110214510Y83618658D01*
X110214505Y83618648D01*
X110138333Y83434753D01*
X110138331Y83434745D01*
X110099500Y83239531D01*
X68833323Y83239531D01*
X71373323Y85779531D01*
X110099500Y85779531D01*
X110099500Y85580470D01*
X110138331Y85385256D01*
X110138333Y85385248D01*
X110214505Y85201353D01*
X110214510Y85201343D01*
X110325093Y85035845D01*
X110325096Y85035841D01*
X110465840Y84895097D01*
X110465844Y84895094D01*
X110631342Y84784511D01*
X110631346Y84784509D01*
X110631349Y84784507D01*
X110815248Y84708333D01*
X111010469Y84669501D01*
X111010472Y84669500D01*
X111010474Y84669500D01*
X111209528Y84669500D01*
X111209529Y84669501D01*
X111404752Y84708333D01*
X111588651Y84784507D01*
X111754156Y84895094D01*
X111894906Y85035844D01*
X112005493Y85201349D01*
X112081667Y85385248D01*
X112120500Y85580474D01*
X112120500Y85779526D01*
X112120500Y85779529D01*
X112120499Y85779531D01*
X112098625Y85889500D01*
X112081667Y85974752D01*
X112005493Y86158651D01*
X112005491Y86158654D01*
X112005489Y86158658D01*
X111894906Y86324156D01*
X111894903Y86324160D01*
X111754159Y86464904D01*
X111754155Y86464907D01*
X111588657Y86575490D01*
X111588647Y86575495D01*
X111404752Y86651667D01*
X111404744Y86651669D01*
X111209529Y86690500D01*
X111209526Y86690500D01*
X111010474Y86690500D01*
X111010471Y86690500D01*
X110815255Y86651669D01*
X110815247Y86651667D01*
X110631352Y86575495D01*
X110631342Y86575490D01*
X110465844Y86464907D01*
X110465840Y86464904D01*
X110325096Y86324160D01*
X110325093Y86324156D01*
X110214510Y86158658D01*
X110214505Y86158648D01*
X110138333Y85974753D01*
X110138331Y85974745D01*
X110099500Y85779531D01*
X71373323Y85779531D01*
X73918198Y88324406D01*
X110050000Y88324406D01*
X110050000Y88115595D01*
X110090733Y87910817D01*
X110090735Y87910809D01*
X110170639Y87717904D01*
X110232491Y87625335D01*
X110232492Y87625334D01*
X110633814Y88026657D01*
X110634755Y88023147D01*
X110701898Y87906853D01*
X110796853Y87811898D01*
X110913147Y87744755D01*
X110916656Y87743815D01*
X110515333Y87342493D01*
X110515333Y87342492D01*
X110607903Y87280640D01*
X110800808Y87200736D01*
X110800816Y87200734D01*
X111005594Y87160001D01*
X111005598Y87160000D01*
X111214402Y87160000D01*
X111214405Y87160001D01*
X111419183Y87200734D01*
X111419191Y87200736D01*
X111612095Y87280639D01*
X111612103Y87280644D01*
X111704665Y87342492D01*
X111704665Y87342493D01*
X111303343Y87743815D01*
X111306853Y87744755D01*
X111423147Y87811898D01*
X111518102Y87906853D01*
X111585245Y88023147D01*
X111586185Y88026657D01*
X111987507Y87625335D01*
X111987508Y87625335D01*
X112049356Y87717897D01*
X112049361Y87717905D01*
X112129264Y87910809D01*
X112129266Y87910817D01*
X112169999Y88115595D01*
X112170000Y88115598D01*
X112170000Y88324402D01*
X112169999Y88324406D01*
X112129266Y88529184D01*
X112129264Y88529192D01*
X112049360Y88722097D01*
X111987507Y88814667D01*
X111586185Y88413345D01*
X111585245Y88416853D01*
X111518102Y88533147D01*
X111423147Y88628102D01*
X111306853Y88695245D01*
X111303343Y88696186D01*
X111704666Y89097508D01*
X111704665Y89097509D01*
X111612096Y89159361D01*
X111419191Y89239265D01*
X111419183Y89239267D01*
X111214405Y89280000D01*
X111005594Y89280000D01*
X110800816Y89239267D01*
X110800808Y89239265D01*
X110607900Y89159360D01*
X110515333Y89097510D01*
X110515332Y89097509D01*
X110916656Y88696186D01*
X110913147Y88695245D01*
X110796853Y88628102D01*
X110701898Y88533147D01*
X110634755Y88416853D01*
X110633814Y88413345D01*
X110232491Y88814668D01*
X110232490Y88814667D01*
X110170640Y88722100D01*
X110090735Y88529192D01*
X110090733Y88529184D01*
X110050000Y88324406D01*
X73918198Y88324406D01*
X76453323Y90859531D01*
X110099500Y90859531D01*
X110099500Y90660470D01*
X110138331Y90465256D01*
X110138333Y90465248D01*
X110214505Y90281353D01*
X110214510Y90281343D01*
X110325093Y90115845D01*
X110325096Y90115841D01*
X110465840Y89975097D01*
X110465844Y89975094D01*
X110631342Y89864511D01*
X110631346Y89864509D01*
X110631349Y89864507D01*
X110815248Y89788333D01*
X111010469Y89749501D01*
X111010472Y89749500D01*
X111010474Y89749500D01*
X111209528Y89749500D01*
X111209529Y89749501D01*
X111404752Y89788333D01*
X111588651Y89864507D01*
X111754156Y89975094D01*
X111894906Y90115844D01*
X112005493Y90281349D01*
X112081667Y90465248D01*
X112120500Y90660474D01*
X112120500Y90859526D01*
X112120500Y90859529D01*
X112120499Y90859531D01*
X112098625Y90969500D01*
X112081667Y91054752D01*
X112005493Y91238651D01*
X112005491Y91238654D01*
X112005489Y91238658D01*
X111894906Y91404156D01*
X111894903Y91404160D01*
X111754159Y91544904D01*
X111754155Y91544907D01*
X111588657Y91655490D01*
X111588647Y91655495D01*
X111404752Y91731667D01*
X111404744Y91731669D01*
X111209529Y91770500D01*
X111209526Y91770500D01*
X111010474Y91770500D01*
X111010471Y91770500D01*
X110815255Y91731669D01*
X110815247Y91731667D01*
X110631352Y91655495D01*
X110631342Y91655490D01*
X110465844Y91544907D01*
X110465840Y91544904D01*
X110325096Y91404160D01*
X110325093Y91404156D01*
X110214510Y91238658D01*
X110214505Y91238648D01*
X110138333Y91054753D01*
X110138331Y91054745D01*
X110099500Y90859531D01*
X76453323Y90859531D01*
X78993322Y93399531D01*
X110099500Y93399531D01*
X110099500Y93200470D01*
X110138331Y93005256D01*
X110138333Y93005248D01*
X110214505Y92821353D01*
X110214510Y92821343D01*
X110325093Y92655845D01*
X110325096Y92655841D01*
X110465840Y92515097D01*
X110465844Y92515094D01*
X110631342Y92404511D01*
X110631346Y92404509D01*
X110631349Y92404507D01*
X110815248Y92328333D01*
X110970537Y92297444D01*
X111010469Y92289501D01*
X111010472Y92289500D01*
X111010474Y92289500D01*
X111209528Y92289500D01*
X111209529Y92289501D01*
X111404752Y92328333D01*
X111588651Y92404507D01*
X111754156Y92515094D01*
X111894906Y92655844D01*
X112005493Y92821349D01*
X112081667Y93005248D01*
X112120500Y93200474D01*
X112120500Y93399526D01*
X112120500Y93399529D01*
X112120499Y93399531D01*
X112098625Y93509500D01*
X112081667Y93594752D01*
X112005493Y93778651D01*
X112005491Y93778654D01*
X112005489Y93778658D01*
X111894906Y93944156D01*
X111894903Y93944160D01*
X111754159Y94084904D01*
X111754155Y94084907D01*
X111588657Y94195490D01*
X111588647Y94195495D01*
X111404752Y94271667D01*
X111404744Y94271669D01*
X111209529Y94310500D01*
X111209526Y94310500D01*
X111010474Y94310500D01*
X111010471Y94310500D01*
X110815255Y94271669D01*
X110815247Y94271667D01*
X110631352Y94195495D01*
X110631342Y94195490D01*
X110465844Y94084907D01*
X110465840Y94084904D01*
X110325096Y93944160D01*
X110325093Y93944156D01*
X110214510Y93778658D01*
X110214505Y93778648D01*
X110138333Y93594753D01*
X110138331Y93594745D01*
X110099500Y93399531D01*
X78993322Y93399531D01*
X82266973Y96673182D01*
X82328296Y96706666D01*
X82354654Y96709500D01*
X110251075Y96709500D01*
X110318114Y96689815D01*
X110363869Y96637011D01*
X110373813Y96567853D01*
X110344788Y96504297D01*
X110338756Y96497819D01*
X110325096Y96484160D01*
X110325093Y96484156D01*
X110214510Y96318658D01*
X110214505Y96318648D01*
X110138333Y96134753D01*
X110138331Y96134745D01*
X110099500Y95939531D01*
X110099500Y95740470D01*
X110138331Y95545256D01*
X110138333Y95545248D01*
X110214505Y95361353D01*
X110214510Y95361343D01*
X110325093Y95195845D01*
X110325096Y95195841D01*
X110465840Y95055097D01*
X110465844Y95055094D01*
X110631342Y94944511D01*
X110631346Y94944509D01*
X110631349Y94944507D01*
X110815248Y94868333D01*
X111010469Y94829501D01*
X111010472Y94829500D01*
X111010474Y94829500D01*
X111209528Y94829500D01*
X111209529Y94829501D01*
X111404752Y94868333D01*
X111588651Y94944507D01*
X111754156Y95055094D01*
X111894906Y95195844D01*
X112005493Y95361349D01*
X112081667Y95545248D01*
X112120500Y95740474D01*
X112120500Y95939526D01*
X112120500Y95939529D01*
X112120499Y95939531D01*
X127879500Y95939531D01*
X127879500Y95740470D01*
X127918331Y95545256D01*
X127918333Y95545248D01*
X127994505Y95361353D01*
X127994510Y95361343D01*
X128105093Y95195845D01*
X128105096Y95195841D01*
X128245840Y95055097D01*
X128245844Y95055094D01*
X128411342Y94944511D01*
X128411346Y94944509D01*
X128411349Y94944507D01*
X128595248Y94868333D01*
X128790469Y94829501D01*
X128790472Y94829500D01*
X128790474Y94829500D01*
X128989528Y94829500D01*
X128989529Y94829501D01*
X129184752Y94868333D01*
X129368651Y94944507D01*
X129534156Y95055094D01*
X129674906Y95195844D01*
X129785493Y95361349D01*
X129861667Y95545248D01*
X129900500Y95740474D01*
X129900500Y95939526D01*
X129900500Y95939529D01*
X129900499Y95939531D01*
X129878625Y96049500D01*
X129861667Y96134752D01*
X129785493Y96318651D01*
X129785491Y96318654D01*
X129785489Y96318658D01*
X129674906Y96484156D01*
X129674903Y96484160D01*
X129534159Y96624904D01*
X129534155Y96624907D01*
X129368657Y96735490D01*
X129368647Y96735495D01*
X129184752Y96811667D01*
X129184744Y96811669D01*
X128989529Y96850500D01*
X128989526Y96850500D01*
X128790474Y96850500D01*
X128790471Y96850500D01*
X128595255Y96811669D01*
X128595247Y96811667D01*
X128411352Y96735495D01*
X128411342Y96735490D01*
X128245844Y96624907D01*
X128245840Y96624904D01*
X128105096Y96484160D01*
X128105093Y96484156D01*
X127994510Y96318658D01*
X127994505Y96318648D01*
X127918333Y96134753D01*
X127918331Y96134745D01*
X127879500Y95939531D01*
X112120499Y95939531D01*
X112098625Y96049500D01*
X112081667Y96134752D01*
X112005493Y96318651D01*
X112005491Y96318654D01*
X112005489Y96318658D01*
X111894906Y96484156D01*
X111894903Y96484160D01*
X111881244Y96497819D01*
X111847759Y96559142D01*
X111852743Y96628834D01*
X111894615Y96684767D01*
X111960079Y96709184D01*
X111968925Y96709500D01*
X122592725Y96709500D01*
X122592727Y96709500D01*
X122694588Y96736793D01*
X122785913Y96789520D01*
X124475924Y98479531D01*
X127879500Y98479531D01*
X127879500Y98280470D01*
X127918331Y98085256D01*
X127918333Y98085248D01*
X127994505Y97901353D01*
X127994510Y97901343D01*
X128105093Y97735845D01*
X128105096Y97735841D01*
X128245840Y97595097D01*
X128245844Y97595094D01*
X128411342Y97484511D01*
X128411346Y97484509D01*
X128411349Y97484507D01*
X128595248Y97408333D01*
X128790469Y97369501D01*
X128790472Y97369500D01*
X128790474Y97369500D01*
X128989528Y97369500D01*
X128989529Y97369501D01*
X129184752Y97408333D01*
X129368651Y97484507D01*
X129534156Y97595094D01*
X129674906Y97735844D01*
X129785493Y97901349D01*
X129861667Y98085248D01*
X129900500Y98280474D01*
X129900500Y98479526D01*
X129900500Y98479529D01*
X129900499Y98479531D01*
X129878625Y98589500D01*
X129861667Y98674752D01*
X129785493Y98858651D01*
X129785491Y98858654D01*
X129785489Y98858658D01*
X129674906Y99024156D01*
X129674903Y99024160D01*
X129534159Y99164904D01*
X129534155Y99164907D01*
X129368657Y99275490D01*
X129368647Y99275495D01*
X129184752Y99351667D01*
X129184744Y99351669D01*
X128989529Y99390500D01*
X128989526Y99390500D01*
X128790474Y99390500D01*
X128790471Y99390500D01*
X128595255Y99351669D01*
X128595247Y99351667D01*
X128411352Y99275495D01*
X128411342Y99275490D01*
X128245844Y99164907D01*
X128245840Y99164904D01*
X128105096Y99024160D01*
X128105093Y99024156D01*
X127994510Y98858658D01*
X127994505Y98858648D01*
X127918333Y98674753D01*
X127918331Y98674745D01*
X127879500Y98479531D01*
X124475924Y98479531D01*
X127020798Y101024406D01*
X127830000Y101024406D01*
X127830000Y100815595D01*
X127870733Y100610817D01*
X127870735Y100610809D01*
X127950639Y100417904D01*
X128012491Y100325335D01*
X128012492Y100325334D01*
X128413814Y100726657D01*
X128414755Y100723147D01*
X128481898Y100606853D01*
X128576853Y100511898D01*
X128693147Y100444755D01*
X128696656Y100443815D01*
X128295333Y100042493D01*
X128295333Y100042492D01*
X128387903Y99980640D01*
X128580808Y99900736D01*
X128580816Y99900734D01*
X128785594Y99860001D01*
X128785598Y99860000D01*
X128994402Y99860000D01*
X128994405Y99860001D01*
X129199183Y99900734D01*
X129199191Y99900736D01*
X129392095Y99980639D01*
X129392103Y99980644D01*
X129484665Y100042492D01*
X129484665Y100042493D01*
X129083343Y100443815D01*
X129086853Y100444755D01*
X129203147Y100511898D01*
X129298102Y100606853D01*
X129365245Y100723147D01*
X129366185Y100726657D01*
X129767507Y100325335D01*
X129767508Y100325335D01*
X129829356Y100417897D01*
X129829361Y100417905D01*
X129909264Y100610809D01*
X129909266Y100610817D01*
X129949999Y100815595D01*
X129950000Y100815598D01*
X129950000Y101024402D01*
X129949999Y101024406D01*
X129909266Y101229184D01*
X129909264Y101229192D01*
X129829360Y101422097D01*
X129767507Y101514667D01*
X129366185Y101113345D01*
X129365245Y101116853D01*
X129298102Y101233147D01*
X129203147Y101328102D01*
X129086853Y101395245D01*
X129083343Y101396186D01*
X129484666Y101797508D01*
X129484665Y101797509D01*
X129392096Y101859361D01*
X129199191Y101939265D01*
X129199183Y101939267D01*
X128994405Y101980000D01*
X128785594Y101980000D01*
X128580816Y101939267D01*
X128580808Y101939265D01*
X128387900Y101859360D01*
X128295333Y101797510D01*
X128295332Y101797509D01*
X128696656Y101396186D01*
X128693147Y101395245D01*
X128576853Y101328102D01*
X128481898Y101233147D01*
X128414755Y101116853D01*
X128413814Y101113345D01*
X128012491Y101514668D01*
X128012490Y101514667D01*
X127950640Y101422100D01*
X127870735Y101229192D01*
X127870733Y101229184D01*
X127830000Y101024406D01*
X127020798Y101024406D01*
X128458511Y102462120D01*
X128519832Y102495603D01*
X128589524Y102490619D01*
X128593636Y102489001D01*
X128595248Y102488333D01*
X128790469Y102449501D01*
X128790472Y102449500D01*
X128790474Y102449500D01*
X128989528Y102449500D01*
X128989529Y102449501D01*
X129184752Y102488333D01*
X129368651Y102564507D01*
X129534156Y102675094D01*
X129674906Y102815844D01*
X129785493Y102981349D01*
X129861667Y103165248D01*
X129900500Y103360474D01*
X129900500Y103559526D01*
X129900500Y103559529D01*
X129900499Y103559531D01*
X129878625Y103669500D01*
X129861667Y103754752D01*
X129785493Y103938651D01*
X129785491Y103938654D01*
X129785489Y103938658D01*
X129674906Y104104156D01*
X129674903Y104104160D01*
X129534159Y104244904D01*
X129534155Y104244907D01*
X129368657Y104355490D01*
X129368647Y104355495D01*
X129184752Y104431667D01*
X129184744Y104431669D01*
X128989529Y104470500D01*
X128989526Y104470500D01*
X128790474Y104470500D01*
X128790471Y104470500D01*
X128595255Y104431669D01*
X128595247Y104431667D01*
X128411352Y104355495D01*
X128411342Y104355490D01*
X128245844Y104244907D01*
X128245840Y104244904D01*
X128105096Y104104160D01*
X128105093Y104104156D01*
X127994510Y103938658D01*
X127994505Y103938648D01*
X127918333Y103754753D01*
X127918331Y103754745D01*
X127879500Y103559531D01*
X127879500Y103360470D01*
X127913527Y103189409D01*
X127918333Y103165248D01*
X127918996Y103163647D01*
X127919093Y103162742D01*
X127920101Y103159421D01*
X127919471Y103159230D01*
X127926466Y103094180D01*
X127895193Y103031700D01*
X127892117Y103028512D01*
X122410426Y97546819D01*
X122349103Y97513334D01*
X122322745Y97510500D01*
X111968925Y97510500D01*
X111901886Y97530185D01*
X111856131Y97582989D01*
X111846187Y97652147D01*
X111875212Y97715703D01*
X111881244Y97722181D01*
X111894903Y97735841D01*
X111894906Y97735844D01*
X112005493Y97901349D01*
X112081667Y98085248D01*
X112120500Y98280474D01*
X112120500Y98479526D01*
X112120500Y98479529D01*
X112120499Y98479531D01*
X112098625Y98589500D01*
X112081667Y98674752D01*
X112005493Y98858651D01*
X112005491Y98858654D01*
X112005489Y98858658D01*
X111894906Y99024156D01*
X111894903Y99024160D01*
X111754159Y99164904D01*
X111754155Y99164907D01*
X111588657Y99275490D01*
X111588647Y99275495D01*
X111404752Y99351667D01*
X111404744Y99351669D01*
X111209529Y99390500D01*
X111209526Y99390500D01*
X111010474Y99390500D01*
X111010471Y99390500D01*
X110815255Y99351669D01*
X110815247Y99351667D01*
X110631352Y99275495D01*
X110631342Y99275490D01*
X110465844Y99164907D01*
X110465840Y99164904D01*
X110325096Y99024160D01*
X110325093Y99024156D01*
X110214510Y98858658D01*
X110214505Y98858648D01*
X110138333Y98674753D01*
X110138331Y98674745D01*
X110099500Y98479531D01*
X110099500Y98280470D01*
X110138331Y98085256D01*
X110138333Y98085248D01*
X110214505Y97901353D01*
X110214510Y97901343D01*
X110325093Y97735845D01*
X110325096Y97735841D01*
X110338756Y97722181D01*
X110372241Y97660858D01*
X110367257Y97591166D01*
X110325385Y97535233D01*
X110259921Y97510816D01*
X110251075Y97510500D01*
X82197739Y97510500D01*
X82197723Y97510501D01*
X82190127Y97510501D01*
X82084673Y97510501D01*
X81982816Y97483209D01*
X81982809Y97483206D01*
X81976854Y97479767D01*
X81976852Y97479766D01*
X81891490Y97430483D01*
X81891484Y97430478D01*
X50419322Y65958316D01*
X50419318Y65958310D01*
X50366592Y65866988D01*
X50366593Y65866987D01*
X50339300Y65765127D01*
X50339300Y62309655D01*
X50319615Y62242616D01*
X50302981Y62221974D01*
X32060726Y43979719D01*
X31999403Y43946234D01*
X31973045Y43943400D01*
X27363252Y43943400D01*
X27296213Y43963085D01*
X27278166Y43983912D01*
X27275707Y43981452D01*
X26733344Y44523815D01*
X26736853Y44524755D01*
X26853147Y44591898D01*
X26948102Y44686853D01*
X27015245Y44803147D01*
X27016185Y44806656D01*
X27518126Y44304715D01*
X27518126Y44304716D01*
X27566331Y44371063D01*
X27652085Y44539363D01*
X27710451Y44718998D01*
X27740000Y44905553D01*
X27740000Y45094448D01*
X27710451Y45281003D01*
X27652085Y45460638D01*
X27566329Y45628941D01*
X27518127Y45695286D01*
X27518126Y45695287D01*
X27016185Y45193345D01*
X27015245Y45196853D01*
X26948102Y45313147D01*
X26853147Y45408102D01*
X26736853Y45475245D01*
X26733342Y45476186D01*
X27235284Y45978128D01*
X27168933Y46026334D01*
X27000637Y46112086D01*
X26821002Y46170452D01*
X26699159Y46189751D01*
X26636025Y46219681D01*
X26599094Y46278993D01*
X26600092Y46348855D01*
X26630873Y46399900D01*
X27086255Y46855281D01*
X27147578Y46888766D01*
X27173936Y46891600D01*
X34052022Y46891600D01*
X34246426Y46922391D01*
X34433626Y46983216D01*
X34609005Y47072576D01*
X34768246Y47188272D01*
X48202628Y60622654D01*
X48318324Y60781895D01*
X48407684Y60957274D01*
X48468509Y61144474D01*
X48492881Y61298353D01*
X48499300Y61338878D01*
X48499300Y70355664D01*
X48518985Y70422703D01*
X48535619Y70443345D01*
X48661155Y70568881D01*
X48796008Y70703735D01*
X48857329Y70737218D01*
X48927020Y70732234D01*
X48982954Y70690363D01*
X49007371Y70624898D01*
X48992519Y70556625D01*
X48984008Y70543170D01*
X48973668Y70528939D01*
X48887914Y70360638D01*
X48829548Y70181003D01*
X48800000Y69994448D01*
X48800000Y69805553D01*
X48829548Y69618998D01*
X48887914Y69439363D01*
X48973666Y69271067D01*
X49021872Y69204716D01*
X49523814Y69706658D01*
X49524755Y69703147D01*
X49591898Y69586853D01*
X49686853Y69491898D01*
X49803147Y69424755D01*
X49806655Y69423815D01*
X49304713Y68921874D01*
X49304714Y68921873D01*
X49371059Y68873671D01*
X49539362Y68787915D01*
X49718997Y68729549D01*
X49905553Y68700000D01*
X50094447Y68700000D01*
X50281002Y68729549D01*
X50460637Y68787915D01*
X50628937Y68873669D01*
X50695284Y68921874D01*
X50695285Y68921874D01*
X50193344Y69423815D01*
X50196853Y69424755D01*
X50313147Y69491898D01*
X50408102Y69586853D01*
X50475245Y69703147D01*
X50476185Y69706656D01*
X50978126Y69204715D01*
X50978126Y69204716D01*
X51026331Y69271063D01*
X51112085Y69439363D01*
X51170451Y69618998D01*
X51200000Y69805553D01*
X51200000Y69994448D01*
X51170451Y70181003D01*
X51112085Y70360638D01*
X51026329Y70528941D01*
X50978127Y70595286D01*
X50978126Y70595287D01*
X50476185Y70093345D01*
X50475245Y70096853D01*
X50408102Y70213147D01*
X50313147Y70308102D01*
X50196853Y70375245D01*
X50193342Y70376186D01*
X50695284Y70878128D01*
X50628933Y70926334D01*
X50460638Y71012085D01*
X50455598Y71013723D01*
X50397925Y71053165D01*
X50370731Y71117525D01*
X50382650Y71186370D01*
X50406238Y71219327D01*
X50745062Y71558153D01*
X50746939Y71559886D01*
X50749497Y71562445D01*
X50749501Y71562447D01*
X50877553Y71690499D01*
X50983996Y71837006D01*
X51066211Y71998361D01*
X51122171Y72170591D01*
X51146405Y72323598D01*
X51150500Y72349449D01*
X51150500Y72530552D01*
X51134019Y72634603D01*
X51122171Y72709409D01*
X51066591Y72880470D01*
X51066212Y72881637D01*
X51066211Y72881640D01*
X51037740Y72937516D01*
X50983996Y73042994D01*
X50957452Y73079529D01*
X50877558Y73189495D01*
X50877554Y73189500D01*
X50749499Y73317555D01*
X50749494Y73317559D01*
X50602997Y73423994D01*
X50602996Y73423995D01*
X50602994Y73423996D01*
X50534980Y73458651D01*
X50441639Y73506212D01*
X50441636Y73506213D01*
X50269410Y73562171D01*
X50109321Y73587527D01*
X50046186Y73617456D01*
X50009255Y73676768D01*
X50010253Y73746630D01*
X50048863Y73804863D01*
X50109321Y73832473D01*
X50179425Y73843578D01*
X50269409Y73857829D01*
X50441639Y73913789D01*
X50602994Y73996004D01*
X50749501Y74102447D01*
X50877553Y74230499D01*
X50983996Y74377006D01*
X51066211Y74538361D01*
X51122171Y74710591D01*
X51141148Y74830409D01*
X51150500Y74889449D01*
X51150500Y75070552D01*
X51128911Y75206853D01*
X51122171Y75249409D01*
X51093480Y75337712D01*
X51066212Y75421637D01*
X51066211Y75421640D01*
X51037740Y75477516D01*
X50983996Y75582994D01*
X50970396Y75601713D01*
X50877558Y75729495D01*
X50877554Y75729500D01*
X50749499Y75857555D01*
X50749494Y75857559D01*
X50602997Y75963994D01*
X50602996Y75963995D01*
X50602994Y75963996D01*
X50541665Y75995245D01*
X50441639Y76046212D01*
X50441636Y76046213D01*
X50269410Y76102171D01*
X50109321Y76127527D01*
X50046186Y76157456D01*
X50009255Y76216768D01*
X50010253Y76286630D01*
X50048863Y76344863D01*
X50109321Y76372473D01*
X50179425Y76383578D01*
X50269409Y76397829D01*
X50441639Y76453789D01*
X50602994Y76536004D01*
X50749501Y76642447D01*
X50877553Y76770499D01*
X50983996Y76917006D01*
X51066211Y77078361D01*
X51122171Y77250591D01*
X51136765Y77342741D01*
X51150500Y77429449D01*
X51150500Y77610552D01*
X51126249Y77763661D01*
X51122171Y77789409D01*
X51066591Y77960470D01*
X51066212Y77961637D01*
X51066211Y77961640D01*
X51037740Y78017516D01*
X50983996Y78122994D01*
X50957452Y78159529D01*
X50877558Y78269495D01*
X50877554Y78269500D01*
X50749499Y78397555D01*
X50749494Y78397559D01*
X50602997Y78503994D01*
X50602996Y78503995D01*
X50602994Y78503996D01*
X50534980Y78538651D01*
X50441639Y78586212D01*
X50441636Y78586213D01*
X50269410Y78642171D01*
X50109321Y78667527D01*
X50046186Y78697456D01*
X50009255Y78756768D01*
X50010253Y78826630D01*
X50048863Y78884863D01*
X50109321Y78912473D01*
X50179425Y78923578D01*
X50269409Y78937829D01*
X50441639Y78993789D01*
X50602994Y79076004D01*
X50749501Y79182447D01*
X50877553Y79310499D01*
X50983996Y79457006D01*
X51066211Y79618361D01*
X51122171Y79790591D01*
X51143396Y79924600D01*
X51150500Y79969449D01*
X51150500Y80150552D01*
X51134019Y80254603D01*
X51122171Y80329409D01*
X51077987Y80465397D01*
X51066212Y80501637D01*
X51066211Y80501640D01*
X51037740Y80557516D01*
X50983996Y80662994D01*
X50957452Y80699529D01*
X50877558Y80809495D01*
X50877554Y80809500D01*
X50749499Y80937555D01*
X50749494Y80937559D01*
X50602997Y81043994D01*
X50602996Y81043995D01*
X50602994Y81043996D01*
X50534980Y81078651D01*
X50441639Y81126212D01*
X50441636Y81126213D01*
X50269410Y81182171D01*
X50109321Y81207527D01*
X50046186Y81237456D01*
X50009255Y81296768D01*
X50010253Y81366630D01*
X50048863Y81424863D01*
X50109321Y81452473D01*
X50179425Y81463578D01*
X50269409Y81477829D01*
X50441639Y81533789D01*
X50602994Y81616004D01*
X50749501Y81722447D01*
X50877553Y81850499D01*
X50983996Y81997006D01*
X51066211Y82158361D01*
X51122171Y82330591D01*
X51147340Y82489500D01*
X51150500Y82509449D01*
X51150500Y82690552D01*
X51128116Y82831873D01*
X51122171Y82869409D01*
X51066591Y83040470D01*
X51066212Y83041637D01*
X51066211Y83041640D01*
X51037740Y83097516D01*
X50983996Y83202994D01*
X50957452Y83239529D01*
X50877558Y83349495D01*
X50877554Y83349500D01*
X50749499Y83477555D01*
X50749494Y83477559D01*
X50602997Y83583994D01*
X50602996Y83583995D01*
X50602994Y83583996D01*
X50534980Y83618651D01*
X50441639Y83666212D01*
X50441636Y83666213D01*
X50269410Y83722171D01*
X50109321Y83747527D01*
X50046186Y83777456D01*
X50009255Y83836768D01*
X50010253Y83906630D01*
X50048863Y83964863D01*
X50109321Y83992473D01*
X50179425Y84003578D01*
X50269409Y84017829D01*
X50441639Y84073789D01*
X50602994Y84156004D01*
X50749501Y84262447D01*
X50877553Y84390499D01*
X50983996Y84537006D01*
X51066211Y84698361D01*
X51122171Y84870591D01*
X51142667Y84999999D01*
X51150500Y85049449D01*
X51150500Y85230552D01*
X51132161Y85346332D01*
X51122171Y85409409D01*
X51080839Y85536617D01*
X51066212Y85581637D01*
X51066211Y85581640D01*
X51028625Y85655405D01*
X50983996Y85742994D01*
X50957452Y85779529D01*
X50877558Y85889495D01*
X50877554Y85889500D01*
X50749499Y86017555D01*
X50749494Y86017559D01*
X50602997Y86123994D01*
X50602996Y86123995D01*
X50602994Y86123996D01*
X50534980Y86158651D01*
X50441639Y86206212D01*
X50441636Y86206213D01*
X50269410Y86262171D01*
X50109321Y86287527D01*
X50046186Y86317456D01*
X50009255Y86376768D01*
X50010253Y86446630D01*
X50048863Y86504863D01*
X50109321Y86532473D01*
X50179425Y86543578D01*
X50269409Y86557829D01*
X50441639Y86613789D01*
X50602994Y86696004D01*
X50749501Y86802447D01*
X50877553Y86930499D01*
X50983996Y87077006D01*
X51066211Y87238361D01*
X51122171Y87410591D01*
X51136765Y87502741D01*
X51150500Y87589449D01*
X51150500Y87770552D01*
X51128911Y87906853D01*
X51122171Y87949409D01*
X51066211Y88121639D01*
X51066211Y88121640D01*
X51016093Y88220000D01*
X50983996Y88282994D01*
X50970396Y88301713D01*
X50877558Y88429495D01*
X50877554Y88429500D01*
X50749499Y88557555D01*
X50749494Y88557559D01*
X50602997Y88663994D01*
X50602996Y88663995D01*
X50602994Y88663996D01*
X50541665Y88695245D01*
X50441639Y88746212D01*
X50441636Y88746213D01*
X50269410Y88802171D01*
X50109321Y88827527D01*
X50046186Y88857456D01*
X50009255Y88916768D01*
X50010253Y88986630D01*
X50048863Y89044863D01*
X50109321Y89072473D01*
X50179425Y89083578D01*
X50269409Y89097829D01*
X50441639Y89153789D01*
X50602994Y89236004D01*
X50749501Y89342447D01*
X50877553Y89470499D01*
X50983996Y89617006D01*
X51066211Y89778361D01*
X51122171Y89950591D01*
X51136765Y90042741D01*
X51150500Y90129449D01*
X51150500Y90310552D01*
X51126249Y90463661D01*
X51122171Y90489409D01*
X51066591Y90660470D01*
X51066212Y90661637D01*
X51066211Y90661640D01*
X51037740Y90717516D01*
X50983996Y90822994D01*
X50957452Y90859529D01*
X50877558Y90969495D01*
X50877554Y90969500D01*
X50749499Y91097555D01*
X50749494Y91097559D01*
X50602997Y91203994D01*
X50602996Y91203995D01*
X50602994Y91203996D01*
X50534980Y91238651D01*
X50441639Y91286212D01*
X50441636Y91286213D01*
X50269410Y91342171D01*
X50109321Y91367527D01*
X50046186Y91397456D01*
X50009255Y91456768D01*
X50010253Y91526630D01*
X50048863Y91584863D01*
X50109321Y91612473D01*
X50179425Y91623578D01*
X50269409Y91637829D01*
X50441639Y91693789D01*
X50602994Y91776004D01*
X50749501Y91882447D01*
X50877553Y92010499D01*
X50983996Y92157006D01*
X51066211Y92318361D01*
X51122171Y92490591D01*
X51136765Y92582741D01*
X51150500Y92669449D01*
X51150500Y92850552D01*
X51134019Y92954603D01*
X51122171Y93029409D01*
X51066591Y93200470D01*
X51066212Y93201637D01*
X51066211Y93201640D01*
X51037740Y93257516D01*
X50983996Y93362994D01*
X50957452Y93399529D01*
X50877558Y93509495D01*
X50877554Y93509500D01*
X50749499Y93637555D01*
X50749494Y93637559D01*
X50602997Y93743994D01*
X50602996Y93743995D01*
X50602994Y93743996D01*
X50534980Y93778651D01*
X50441639Y93826212D01*
X50441636Y93826213D01*
X50269410Y93882171D01*
X50109321Y93907527D01*
X50046186Y93937456D01*
X50009255Y93996768D01*
X50010253Y94066630D01*
X50048863Y94124863D01*
X50109321Y94152473D01*
X50179425Y94163578D01*
X50269409Y94177829D01*
X50441639Y94233789D01*
X50602994Y94316004D01*
X50749501Y94422447D01*
X50877553Y94550499D01*
X50983996Y94697006D01*
X51066211Y94858361D01*
X51122171Y95030591D01*
X51136765Y95122741D01*
X51150500Y95209449D01*
X51150500Y95390552D01*
X51134019Y95494603D01*
X51122171Y95569409D01*
X51066591Y95740470D01*
X51066212Y95741637D01*
X51066211Y95741640D01*
X51037740Y95797516D01*
X50983996Y95902994D01*
X50957452Y95939529D01*
X50877558Y96049495D01*
X50877554Y96049500D01*
X50749499Y96177555D01*
X50749494Y96177559D01*
X50602997Y96283994D01*
X50602996Y96283995D01*
X50602994Y96283996D01*
X50534980Y96318651D01*
X50441639Y96366212D01*
X50441636Y96366213D01*
X50269410Y96422171D01*
X50109321Y96447527D01*
X50046186Y96477456D01*
X50009255Y96536768D01*
X50010253Y96606630D01*
X50048863Y96664863D01*
X50109321Y96692473D01*
X50179425Y96703578D01*
X50269409Y96717829D01*
X50441639Y96773789D01*
X50602994Y96856004D01*
X50749501Y96962447D01*
X50877553Y97090499D01*
X50983996Y97237006D01*
X51066211Y97398361D01*
X51122171Y97570591D01*
X51136765Y97662741D01*
X51150500Y97749449D01*
X51150500Y97930552D01*
X51134019Y98034603D01*
X51122171Y98109409D01*
X51066591Y98280470D01*
X51066212Y98281637D01*
X51066211Y98281640D01*
X51037740Y98337516D01*
X50983996Y98442994D01*
X50957452Y98479529D01*
X50877558Y98589495D01*
X50877554Y98589500D01*
X50749499Y98717555D01*
X50749494Y98717559D01*
X50602997Y98823994D01*
X50602996Y98823995D01*
X50602994Y98823996D01*
X50534980Y98858651D01*
X50441639Y98906212D01*
X50441636Y98906213D01*
X50269410Y98962171D01*
X50109321Y98987527D01*
X50046186Y99017456D01*
X50009255Y99076768D01*
X50010253Y99146630D01*
X50048863Y99204863D01*
X50109321Y99232473D01*
X50179425Y99243578D01*
X50269409Y99257829D01*
X50441639Y99313789D01*
X50602994Y99396004D01*
X50749501Y99502447D01*
X50877553Y99630499D01*
X50983996Y99777006D01*
X51052675Y99911795D01*
X51100650Y99962591D01*
X51163160Y99979500D01*
X103002725Y99979500D01*
X103002727Y99979500D01*
X103104588Y100006793D01*
X103195913Y100059520D01*
X104160799Y101024406D01*
X110050000Y101024406D01*
X110050000Y100815595D01*
X110090733Y100610817D01*
X110090735Y100610809D01*
X110170639Y100417904D01*
X110232491Y100325335D01*
X110232492Y100325334D01*
X110633814Y100726657D01*
X110634755Y100723147D01*
X110701898Y100606853D01*
X110796853Y100511898D01*
X110913147Y100444755D01*
X110916656Y100443815D01*
X110515333Y100042493D01*
X110515333Y100042492D01*
X110607903Y99980640D01*
X110800808Y99900736D01*
X110800816Y99900734D01*
X111005594Y99860001D01*
X111005598Y99860000D01*
X111214402Y99860000D01*
X111214405Y99860001D01*
X111419183Y99900734D01*
X111419191Y99900736D01*
X111612095Y99980639D01*
X111612103Y99980644D01*
X111704665Y100042492D01*
X111704665Y100042493D01*
X111303343Y100443815D01*
X111306853Y100444755D01*
X111423147Y100511898D01*
X111518102Y100606853D01*
X111585245Y100723147D01*
X111586185Y100726657D01*
X111987507Y100325335D01*
X111987508Y100325335D01*
X112049356Y100417897D01*
X112049361Y100417905D01*
X112129264Y100610809D01*
X112129266Y100610817D01*
X112169999Y100815595D01*
X112170000Y100815598D01*
X112170000Y101024402D01*
X112169999Y101024406D01*
X112129266Y101229184D01*
X112129264Y101229192D01*
X112049360Y101422097D01*
X111987507Y101514667D01*
X111586185Y101113345D01*
X111585245Y101116853D01*
X111518102Y101233147D01*
X111423147Y101328102D01*
X111306853Y101395245D01*
X111303343Y101396186D01*
X111704666Y101797508D01*
X111704665Y101797509D01*
X111612096Y101859361D01*
X111419191Y101939265D01*
X111419183Y101939267D01*
X111214405Y101980000D01*
X111005594Y101980000D01*
X110800816Y101939267D01*
X110800808Y101939265D01*
X110607900Y101859360D01*
X110515333Y101797510D01*
X110515332Y101797509D01*
X110916656Y101396186D01*
X110913147Y101395245D01*
X110796853Y101328102D01*
X110701898Y101233147D01*
X110634755Y101116853D01*
X110633814Y101113345D01*
X110232491Y101514668D01*
X110232490Y101514667D01*
X110170640Y101422100D01*
X110090735Y101229192D01*
X110090733Y101229184D01*
X110050000Y101024406D01*
X104160799Y101024406D01*
X105116393Y101980000D01*
X106695923Y103559531D01*
X110099500Y103559531D01*
X110099500Y103360470D01*
X110138331Y103165256D01*
X110138333Y103165248D01*
X110214505Y102981353D01*
X110214510Y102981343D01*
X110325093Y102815845D01*
X110325096Y102815841D01*
X110465840Y102675097D01*
X110465844Y102675094D01*
X110631342Y102564511D01*
X110631346Y102564509D01*
X110631349Y102564507D01*
X110815248Y102488333D01*
X111010469Y102449501D01*
X111010472Y102449500D01*
X111010474Y102449500D01*
X111209528Y102449500D01*
X111209529Y102449501D01*
X111404752Y102488333D01*
X111588651Y102564507D01*
X111754156Y102675094D01*
X111894906Y102815844D01*
X112005493Y102981349D01*
X112081667Y103165248D01*
X112120500Y103360474D01*
X112120500Y103559526D01*
X112120500Y103559529D01*
X112120499Y103559531D01*
X112098625Y103669500D01*
X112081667Y103754752D01*
X112005493Y103938651D01*
X112005491Y103938654D01*
X112005489Y103938658D01*
X111894906Y104104156D01*
X111894903Y104104160D01*
X111754159Y104244904D01*
X111754155Y104244907D01*
X111588657Y104355490D01*
X111588647Y104355495D01*
X111404752Y104431667D01*
X111404744Y104431669D01*
X111209529Y104470500D01*
X111209526Y104470500D01*
X111010474Y104470500D01*
X111010471Y104470500D01*
X110815255Y104431669D01*
X110815247Y104431667D01*
X110631352Y104355495D01*
X110631342Y104355490D01*
X110465844Y104244907D01*
X110465840Y104244904D01*
X110325096Y104104160D01*
X110325093Y104104156D01*
X110214510Y103938658D01*
X110214505Y103938648D01*
X110138333Y103754753D01*
X110138331Y103754745D01*
X110099500Y103559531D01*
X106695923Y103559531D01*
X106789691Y103653299D01*
X107993398Y104857006D01*
X109235922Y106099531D01*
X110099500Y106099531D01*
X110099500Y105900470D01*
X110138331Y105705256D01*
X110138333Y105705248D01*
X110214505Y105521353D01*
X110214510Y105521343D01*
X110325093Y105355845D01*
X110325096Y105355841D01*
X110465840Y105215097D01*
X110465844Y105215094D01*
X110631342Y105104511D01*
X110631346Y105104509D01*
X110631349Y105104507D01*
X110815248Y105028333D01*
X111010469Y104989501D01*
X111010472Y104989500D01*
X111010474Y104989500D01*
X111209528Y104989500D01*
X111209529Y104989501D01*
X111404752Y105028333D01*
X111588651Y105104507D01*
X111754156Y105215094D01*
X111894906Y105355844D01*
X112005493Y105521349D01*
X112081667Y105705248D01*
X112120500Y105900474D01*
X112120500Y106099526D01*
X112120500Y106099528D01*
X112120500Y106099529D01*
X112120499Y106099531D01*
X112101251Y106196296D01*
X112081667Y106294752D01*
X112005493Y106478651D01*
X112005491Y106478654D01*
X112005489Y106478658D01*
X111894906Y106644156D01*
X111894903Y106644160D01*
X111754159Y106784904D01*
X111754155Y106784907D01*
X111588657Y106895490D01*
X111588647Y106895495D01*
X111404752Y106971667D01*
X111404744Y106971669D01*
X111209529Y107010500D01*
X111209526Y107010500D01*
X111010474Y107010500D01*
X111010471Y107010500D01*
X110815255Y106971669D01*
X110815247Y106971667D01*
X110631352Y106895495D01*
X110631342Y106895490D01*
X110465844Y106784907D01*
X110465840Y106784904D01*
X110325096Y106644160D01*
X110325093Y106644156D01*
X110214510Y106478658D01*
X110214505Y106478648D01*
X110138333Y106294753D01*
X110138331Y106294745D01*
X110099500Y106099531D01*
X109235922Y106099531D01*
X110678511Y107542121D01*
X110739832Y107575604D01*
X110809524Y107570620D01*
X110813628Y107569004D01*
X110815248Y107568333D01*
X111010469Y107529501D01*
X111010472Y107529500D01*
X111010474Y107529500D01*
X111209528Y107529500D01*
X111209529Y107529501D01*
X111404752Y107568333D01*
X111588651Y107644507D01*
X111754156Y107755094D01*
X111894906Y107895844D01*
X112005493Y108061349D01*
X112081667Y108245248D01*
X112120500Y108440474D01*
X112120500Y108639526D01*
X112120500Y108639529D01*
X112120499Y108639531D01*
X112081668Y108834745D01*
X112081667Y108834752D01*
X112005493Y109018651D01*
X112005491Y109018654D01*
X112005489Y109018658D01*
X111894906Y109184156D01*
X111894903Y109184160D01*
X111754159Y109324904D01*
X111754155Y109324907D01*
X111588657Y109435490D01*
X111588647Y109435495D01*
X111404752Y109511667D01*
X111404744Y109511669D01*
X111209529Y109550500D01*
X111209526Y109550500D01*
X111010474Y109550500D01*
X111010471Y109550500D01*
X110815255Y109511669D01*
X110815247Y109511667D01*
X110631352Y109435495D01*
X110631342Y109435490D01*
X110465844Y109324907D01*
X110465840Y109324904D01*
X110325096Y109184160D01*
X110325093Y109184156D01*
X110214510Y109018658D01*
X110214505Y109018648D01*
X110138333Y108834753D01*
X110138331Y108834745D01*
X110099500Y108639531D01*
X110099500Y108440470D01*
X110138331Y108245256D01*
X110138334Y108245244D01*
X110138998Y108243642D01*
X110139095Y108242736D01*
X110140101Y108239421D01*
X110139472Y108239231D01*
X110146465Y108174173D01*
X110115189Y108111694D01*
X110112117Y108108511D01*
X102820426Y100816819D01*
X102759103Y100783334D01*
X102732745Y100780500D01*
X60380301Y100780500D01*
X60313262Y100800185D01*
X60267507Y100852989D01*
X60257563Y100922147D01*
X60265740Y100951952D01*
X60290799Y101012452D01*
X60290801Y101012456D01*
X60302008Y101068796D01*
X60315800Y101138129D01*
X60315800Y101266272D01*
X60290802Y101391939D01*
X60290801Y101391940D01*
X60290801Y101391944D01*
X60241765Y101510327D01*
X60241764Y101510328D01*
X60241761Y101510334D01*
X60170576Y101616869D01*
X60170573Y101616873D01*
X60079972Y101707474D01*
X60079968Y101707477D01*
X59973433Y101778662D01*
X59973424Y101778667D01*
X59855044Y101827701D01*
X59855038Y101827703D01*
X59729371Y101852700D01*
X59729369Y101852700D01*
X59632554Y101852700D01*
X59565515Y101872385D01*
X59544873Y101889019D01*
X51797015Y109636878D01*
X51797014Y109636879D01*
X51797013Y109636880D01*
X51751350Y109663244D01*
X51705689Y109689607D01*
X51654757Y109703254D01*
X51603827Y109716900D01*
X39500427Y109716900D01*
X39394973Y109716900D01*
X39293113Y109689607D01*
X39293110Y109689606D01*
X39201785Y109636879D01*
X39127221Y109562315D01*
X39074494Y109470990D01*
X39074493Y109470987D01*
X39047200Y109369127D01*
X39047200Y104506655D01*
X39027515Y104439616D01*
X39010881Y104418974D01*
X21139522Y86547616D01*
X21139518Y86547610D01*
X21086792Y86456287D01*
X21082563Y86440502D01*
X21082563Y86440500D01*
X21059500Y86354427D01*
X21059500Y86274500D01*
X21039815Y86207461D01*
X20987011Y86161706D01*
X20935500Y86150500D01*
X20535323Y86150500D01*
X20462264Y86135968D01*
X20462260Y86135967D01*
X20379399Y86080601D01*
X20324033Y85997740D01*
X20324032Y85997736D01*
X20309500Y85924679D01*
X20309500Y84075322D01*
X20324032Y84002265D01*
X20324033Y84002261D01*
X20324034Y84002260D01*
X20379399Y83919399D01*
X20428360Y83886685D01*
X20462260Y83864034D01*
X20462264Y83864033D01*
X20535321Y83849501D01*
X20535324Y83849500D01*
X20535326Y83849500D01*
X22384676Y83849500D01*
X22384677Y83849501D01*
X22457740Y83864034D01*
X22540601Y83919399D01*
X22595966Y84002260D01*
X22597067Y84007797D01*
X22629452Y84069708D01*
X22690167Y84104282D01*
X22759937Y84100543D01*
X22816609Y84059677D01*
X22836614Y84021928D01*
X22839353Y84013499D01*
X22841117Y84008070D01*
X22917887Y83857403D01*
X22930476Y83832695D01*
X23046172Y83673454D01*
X25271754Y81447872D01*
X25430995Y81332176D01*
X25606374Y81242816D01*
X25766712Y81190719D01*
X25766714Y81190718D01*
X25793566Y81181993D01*
X25793569Y81181993D01*
X25793574Y81181991D01*
X25883613Y81167731D01*
X25987978Y81151200D01*
X25987983Y81151200D01*
X35202764Y81151200D01*
X35269803Y81131515D01*
X35290445Y81114881D01*
X45961981Y70443345D01*
X45995466Y70382022D01*
X45998300Y70355664D01*
X45998300Y62006636D01*
X45978615Y61939597D01*
X45961981Y61918955D01*
X37211681Y53168655D01*
X37150358Y53135170D01*
X37080666Y53140154D01*
X37024733Y53182026D01*
X37000316Y53247490D01*
X37000000Y53256336D01*
X37000000Y79000000D01*
X11000000Y79000000D01*
X500500Y79000000D01*
X500500Y114000000D01*
X2000000Y114000000D01*
X2019261Y113607932D01*
X2019261Y113607926D01*
X2019262Y113607924D01*
X2076859Y113219632D01*
X2172241Y112838852D01*
X2304473Y112469287D01*
X2304481Y112469267D01*
X2472315Y112114411D01*
X2674119Y111777723D01*
X2674121Y111777720D01*
X2836593Y111558651D01*
X2907962Y111462422D01*
X3171571Y111171573D01*
X3382422Y110980470D01*
X3462426Y110907959D01*
X3777719Y110674122D01*
X3777721Y110674121D01*
X4114409Y110472317D01*
X4114412Y110472316D01*
X4114413Y110472315D01*
X4469266Y110304482D01*
X4469280Y110304477D01*
X4469285Y110304475D01*
X4749681Y110204148D01*
X4838861Y110172239D01*
X5219638Y110076859D01*
X5607931Y110019262D01*
X6000000Y110000000D01*
X6392068Y110019262D01*
X6780361Y110076859D01*
X7161138Y110172239D01*
X7530733Y110304482D01*
X7885586Y110472315D01*
X8222280Y110674122D01*
X8537573Y110907959D01*
X8828427Y111171573D01*
X8835640Y111179531D01*
X110099500Y111179531D01*
X110099500Y110980470D01*
X110138331Y110785256D01*
X110138333Y110785248D01*
X110214505Y110601353D01*
X110214510Y110601343D01*
X110325093Y110435845D01*
X110325096Y110435841D01*
X110465840Y110295097D01*
X110465844Y110295094D01*
X110631342Y110184511D01*
X110631346Y110184509D01*
X110631349Y110184507D01*
X110815248Y110108333D01*
X110973468Y110076861D01*
X111010469Y110069501D01*
X111010472Y110069500D01*
X111010474Y110069500D01*
X111209528Y110069500D01*
X111209529Y110069501D01*
X111404752Y110108333D01*
X111588651Y110184507D01*
X111754156Y110295094D01*
X111894906Y110435844D01*
X112005493Y110601349D01*
X112081667Y110785248D01*
X112120500Y110980474D01*
X112120500Y111179526D01*
X112120500Y111179529D01*
X112120499Y111179531D01*
X127879500Y111179531D01*
X127879500Y110980470D01*
X127918331Y110785256D01*
X127918333Y110785248D01*
X127994505Y110601353D01*
X127994510Y110601343D01*
X128105093Y110435845D01*
X128105096Y110435841D01*
X128245840Y110295097D01*
X128245844Y110295094D01*
X128411342Y110184511D01*
X128411346Y110184509D01*
X128411349Y110184507D01*
X128595248Y110108333D01*
X128753468Y110076861D01*
X128790469Y110069501D01*
X128790472Y110069500D01*
X128790474Y110069500D01*
X128989528Y110069500D01*
X128989529Y110069501D01*
X129184752Y110108333D01*
X129368651Y110184507D01*
X129534156Y110295094D01*
X129674906Y110435844D01*
X129785493Y110601349D01*
X129861667Y110785248D01*
X129900500Y110980474D01*
X129900500Y111179526D01*
X129900500Y111179529D01*
X129900499Y111179531D01*
X129861668Y111374745D01*
X129861667Y111374752D01*
X129785493Y111558651D01*
X129785491Y111558654D01*
X129785489Y111558658D01*
X129674906Y111724156D01*
X129674903Y111724160D01*
X129534159Y111864904D01*
X129534155Y111864907D01*
X129368657Y111975490D01*
X129368647Y111975495D01*
X129184752Y112051667D01*
X129184744Y112051669D01*
X128989529Y112090500D01*
X128989526Y112090500D01*
X128790474Y112090500D01*
X128790471Y112090500D01*
X128595255Y112051669D01*
X128595247Y112051667D01*
X128411352Y111975495D01*
X128411342Y111975490D01*
X128245844Y111864907D01*
X128245840Y111864904D01*
X128105096Y111724160D01*
X128105093Y111724156D01*
X127994510Y111558658D01*
X127994505Y111558648D01*
X127918333Y111374753D01*
X127918331Y111374745D01*
X127879500Y111179531D01*
X112120499Y111179531D01*
X112081668Y111374745D01*
X112081667Y111374752D01*
X112005493Y111558651D01*
X112005491Y111558654D01*
X112005489Y111558658D01*
X111894906Y111724156D01*
X111894903Y111724160D01*
X111754159Y111864904D01*
X111754155Y111864907D01*
X111588657Y111975490D01*
X111588647Y111975495D01*
X111404752Y112051667D01*
X111404744Y112051669D01*
X111209529Y112090500D01*
X111209526Y112090500D01*
X111010474Y112090500D01*
X111010471Y112090500D01*
X110815255Y112051669D01*
X110815247Y112051667D01*
X110631352Y111975495D01*
X110631342Y111975490D01*
X110465844Y111864907D01*
X110465840Y111864904D01*
X110325096Y111724160D01*
X110325093Y111724156D01*
X110214510Y111558658D01*
X110214505Y111558648D01*
X110138333Y111374753D01*
X110138331Y111374745D01*
X110099500Y111179531D01*
X8835640Y111179531D01*
X9092041Y111462427D01*
X9325878Y111777720D01*
X9527685Y112114414D01*
X9695518Y112469267D01*
X9827761Y112838862D01*
X9923141Y113219639D01*
X9980738Y113607932D01*
X9986460Y113724406D01*
X110050000Y113724406D01*
X110050000Y113515595D01*
X110090733Y113310817D01*
X110090735Y113310809D01*
X110170639Y113117904D01*
X110232491Y113025335D01*
X110232492Y113025334D01*
X110633814Y113426657D01*
X110634755Y113423147D01*
X110701898Y113306853D01*
X110796853Y113211898D01*
X110913147Y113144755D01*
X110916656Y113143815D01*
X110515333Y112742493D01*
X110515333Y112742492D01*
X110607903Y112680640D01*
X110800808Y112600736D01*
X110800816Y112600734D01*
X111005594Y112560001D01*
X111005598Y112560000D01*
X111214402Y112560000D01*
X111214405Y112560001D01*
X111419183Y112600734D01*
X111419191Y112600736D01*
X111612095Y112680639D01*
X111612103Y112680644D01*
X111704665Y112742492D01*
X111704665Y112742493D01*
X111303343Y113143815D01*
X111306853Y113144755D01*
X111423147Y113211898D01*
X111518102Y113306853D01*
X111585245Y113423147D01*
X111586185Y113426657D01*
X111987507Y113025335D01*
X111987508Y113025335D01*
X112049356Y113117897D01*
X112049361Y113117905D01*
X112129264Y113310809D01*
X112129266Y113310817D01*
X112169999Y113515595D01*
X112170000Y113515598D01*
X112170000Y113724402D01*
X112169999Y113724406D01*
X112129266Y113929184D01*
X112129264Y113929192D01*
X112049360Y114122097D01*
X111987507Y114214667D01*
X111586185Y113813345D01*
X111585245Y113816853D01*
X111518102Y113933147D01*
X111423147Y114028102D01*
X111306853Y114095245D01*
X111303343Y114096186D01*
X111704666Y114497508D01*
X111704665Y114497509D01*
X111612096Y114559361D01*
X111419191Y114639265D01*
X111419183Y114639267D01*
X111214405Y114680000D01*
X111005594Y114680000D01*
X110800816Y114639267D01*
X110800808Y114639265D01*
X110607900Y114559360D01*
X110515333Y114497510D01*
X110515332Y114497509D01*
X110916656Y114096186D01*
X110913147Y114095245D01*
X110796853Y114028102D01*
X110701898Y113933147D01*
X110634755Y113816853D01*
X110633814Y113813345D01*
X110232491Y114214668D01*
X110232490Y114214667D01*
X110170640Y114122100D01*
X110090735Y113929192D01*
X110090733Y113929184D01*
X110050000Y113724406D01*
X9986460Y113724406D01*
X10000000Y114000000D01*
X9980738Y114392069D01*
X9923141Y114780362D01*
X9827761Y115161139D01*
X9700846Y115515844D01*
X9695525Y115530715D01*
X9695523Y115530720D01*
X9695518Y115530734D01*
X9527685Y115885587D01*
X9505244Y115923027D01*
X9422863Y116060472D01*
X9325878Y116222281D01*
X9298252Y116259531D01*
X110099500Y116259531D01*
X110099500Y116060470D01*
X110138331Y115865256D01*
X110138333Y115865248D01*
X110214505Y115681353D01*
X110214510Y115681343D01*
X110325093Y115515845D01*
X110325096Y115515841D01*
X110465840Y115375097D01*
X110465844Y115375094D01*
X110631342Y115264511D01*
X110631346Y115264509D01*
X110631349Y115264507D01*
X110815248Y115188333D01*
X111010469Y115149501D01*
X111010472Y115149500D01*
X111010474Y115149500D01*
X111209528Y115149500D01*
X111209529Y115149501D01*
X111404752Y115188333D01*
X111588651Y115264507D01*
X111754156Y115375094D01*
X111894906Y115515844D01*
X112005493Y115681349D01*
X112081667Y115865248D01*
X112120500Y116060474D01*
X112120500Y116259526D01*
X112120500Y116259529D01*
X112120499Y116259531D01*
X112081667Y116454752D01*
X112005493Y116638651D01*
X112005491Y116638654D01*
X112005489Y116638658D01*
X111894906Y116804156D01*
X111894903Y116804160D01*
X111754159Y116944904D01*
X111754155Y116944907D01*
X111588657Y117055490D01*
X111588647Y117055495D01*
X111404752Y117131667D01*
X111404744Y117131669D01*
X111209529Y117170500D01*
X111209526Y117170500D01*
X111010474Y117170500D01*
X111010471Y117170500D01*
X110815255Y117131669D01*
X110815247Y117131667D01*
X110631352Y117055495D01*
X110631342Y117055490D01*
X110465844Y116944907D01*
X110465840Y116944904D01*
X110325096Y116804160D01*
X110325093Y116804156D01*
X110214510Y116638658D01*
X110214505Y116638648D01*
X110138333Y116454753D01*
X110138331Y116454745D01*
X110099500Y116259531D01*
X9298252Y116259531D01*
X9092041Y116537574D01*
X9092036Y116537580D01*
X8828427Y116828429D01*
X8537578Y117092038D01*
X8484144Y117131667D01*
X8222280Y117325879D01*
X8222277Y117325881D01*
X7885589Y117527685D01*
X7530733Y117695519D01*
X7530713Y117695527D01*
X7161148Y117827759D01*
X7161142Y117827761D01*
X7161138Y117827762D01*
X7010145Y117865584D01*
X6780368Y117923141D01*
X6392076Y117980738D01*
X6392074Y117980739D01*
X6392068Y117980739D01*
X6000000Y118000000D01*
X5999999Y118000000D01*
X5968266Y117998442D01*
X5607931Y117980739D01*
X5607925Y117980739D01*
X5607922Y117980738D01*
X5219630Y117923141D01*
X4913458Y117846448D01*
X4838861Y117827762D01*
X4838858Y117827762D01*
X4838850Y117827759D01*
X4469285Y117695527D01*
X4469265Y117695519D01*
X4114409Y117527685D01*
X3777721Y117325881D01*
X3462420Y117092038D01*
X3171571Y116828429D01*
X2907962Y116537580D01*
X2674119Y116222279D01*
X2472315Y115885591D01*
X2304481Y115530735D01*
X2304473Y115530715D01*
X2172241Y115161150D01*
X2076859Y114780370D01*
X2025348Y114433102D01*
X2019261Y114392069D01*
X2000000Y114000000D01*
X500500Y114000000D01*
X500500Y119375500D01*
X520185Y119442539D01*
X572989Y119488294D01*
X624500Y119499500D01*
X109975500Y119499500D01*
X110042539Y119479815D01*
G37*
%TD.AperFunction*%
%TD*%
M02*
