%TF.GenerationSoftware,KiCad,Pcbnew,10.0.6*%
%TF.CreationDate,2026-10-08T08:39:05-05:00*%
%TF.ProjectId,make_music,6d616b65-5f6d-4757-9369-632e6b696361,P1 routed - review hold*%
%TF.SameCoordinates,PX1312d00PY8583b00*%
%TF.FileFunction,Legend,Bot*%
%TF.FilePolarity,Positive*%
%FSLAX46Y46*%
G04 Gerber Fmt 4.6, Leading zero omitted, Abs format (unit mm)*
G04 Created by KiCad (PCBNEW 10.0.6) date 2026-10-08 08:39:05*
%MOMM*%
%LPD*%
G01*
G04 APERTURE LIST*
G04 Aperture macros list*
%AMRoundRect*
0 Rectangle with rounded corners*
0 $1 Rounding radius*
0 $2 $3 $4 $5 $6 $7 $8 $9 X,Y pos of 4 corners*
0 Add a 4 corners polygon primitive as box body*
4,1,4,$2,$3,$4,$5,$6,$7,$8,$9,$2,$3,0*
0 Add four circle primitives for the rounded corners*
1,1,$1+$1,$2,$3*
1,1,$1+$1,$4,$5*
1,1,$1+$1,$6,$7*
1,1,$1+$1,$8,$9*
0 Add four rect primitives between the rounded corners*
20,1,$1+$1,$2,$3,$4,$5,0*
20,1,$1+$1,$4,$5,$6,$7,0*
20,1,$1+$1,$6,$7,$8,$9,0*
20,1,$1+$1,$8,$9,$2,$3,0*%
G04 Aperture macros list end*
%ADD10C,0.150000*%
%ADD11C,0.120000*%
%ADD12C,3.200000*%
%ADD13R,3.200000X3.200000*%
%ADD14R,1.800000X1.800000*%
%ADD15C,1.800000*%
%ADD16R,1.520000X1.520000*%
%ADD17C,1.520000*%
%ADD18RoundRect,0.250000X-0.350000X-0.625000X0.350000X-0.625000X0.350000X0.625000X-0.350000X0.625000X0*%
%ADD19O,1.200000X1.750000*%
G04 APERTURE END LIST*
D10*
X228971428Y95405729D02*
X228928571Y95448586D01*
X228928571Y95448586D02*
X228842857Y95491443D01*
X228842857Y95491443D02*
X228628571Y95491443D01*
X228628571Y95491443D02*
X228542857Y95448586D01*
X228542857Y95448586D02*
X228499999Y95405729D01*
X228499999Y95405729D02*
X228457142Y95320015D01*
X228457142Y95320015D02*
X228457142Y95234300D01*
X228457142Y95234300D02*
X228499999Y95105729D01*
X228499999Y95105729D02*
X229014285Y94591443D01*
X229014285Y94591443D02*
X228457142Y94591443D01*
X226914285Y95448586D02*
X227000000Y95491443D01*
X227000000Y95491443D02*
X227128571Y95491443D01*
X227128571Y95491443D02*
X227257142Y95448586D01*
X227257142Y95448586D02*
X227342857Y95362872D01*
X227342857Y95362872D02*
X227385714Y95277158D01*
X227385714Y95277158D02*
X227428571Y95105729D01*
X227428571Y95105729D02*
X227428571Y94977158D01*
X227428571Y94977158D02*
X227385714Y94805729D01*
X227385714Y94805729D02*
X227342857Y94720015D01*
X227342857Y94720015D02*
X227257142Y94634300D01*
X227257142Y94634300D02*
X227128571Y94591443D01*
X227128571Y94591443D02*
X227042857Y94591443D01*
X227042857Y94591443D02*
X226914285Y94634300D01*
X226914285Y94634300D02*
X226871428Y94677158D01*
X226871428Y94677158D02*
X226871428Y94977158D01*
X226871428Y94977158D02*
X227042857Y94977158D01*
X226485714Y94591443D02*
X226485714Y95491443D01*
X226485714Y95491443D02*
X225971428Y94591443D01*
X225971428Y94591443D02*
X225971428Y95491443D01*
X225542857Y94591443D02*
X225542857Y95491443D01*
X225542857Y95491443D02*
X225328571Y95491443D01*
X225328571Y95491443D02*
X225200000Y95448586D01*
X225200000Y95448586D02*
X225114285Y95362872D01*
X225114285Y95362872D02*
X225071428Y95277158D01*
X225071428Y95277158D02*
X225028571Y95105729D01*
X225028571Y95105729D02*
X225028571Y94977158D01*
X225028571Y94977158D02*
X225071428Y94805729D01*
X225071428Y94805729D02*
X225114285Y94720015D01*
X225114285Y94720015D02*
X225200000Y94634300D01*
X225200000Y94634300D02*
X225328571Y94591443D01*
X225328571Y94591443D02*
X225542857Y94591443D01*
X229642856Y104591443D02*
X230157142Y104591443D01*
X229899999Y104591443D02*
X229899999Y105491443D01*
X229899999Y105491443D02*
X229985713Y105362872D01*
X229985713Y105362872D02*
X230071428Y105277158D01*
X230071428Y105277158D02*
X230157142Y105234300D01*
X228571428Y104934300D02*
X227885714Y104934300D01*
X228228571Y104591443D02*
X228228571Y105277158D01*
X265128571Y91591443D02*
X265128571Y92491443D01*
X265128571Y92491443D02*
X264785714Y92491443D01*
X264785714Y92491443D02*
X264699999Y92448586D01*
X264699999Y92448586D02*
X264657142Y92405729D01*
X264657142Y92405729D02*
X264614285Y92320015D01*
X264614285Y92320015D02*
X264614285Y92191443D01*
X264614285Y92191443D02*
X264657142Y92105729D01*
X264657142Y92105729D02*
X264699999Y92062872D01*
X264699999Y92062872D02*
X264785714Y92020015D01*
X264785714Y92020015D02*
X265128571Y92020015D01*
X263714285Y91591443D02*
X264014285Y92020015D01*
X264228571Y91591443D02*
X264228571Y92491443D01*
X264228571Y92491443D02*
X263885714Y92491443D01*
X263885714Y92491443D02*
X263799999Y92448586D01*
X263799999Y92448586D02*
X263757142Y92405729D01*
X263757142Y92405729D02*
X263714285Y92320015D01*
X263714285Y92320015D02*
X263714285Y92191443D01*
X263714285Y92191443D02*
X263757142Y92105729D01*
X263757142Y92105729D02*
X263799999Y92062872D01*
X263799999Y92062872D02*
X263885714Y92020015D01*
X263885714Y92020015D02*
X264228571Y92020015D01*
X263157142Y92491443D02*
X262985714Y92491443D01*
X262985714Y92491443D02*
X262899999Y92448586D01*
X262899999Y92448586D02*
X262814285Y92362872D01*
X262814285Y92362872D02*
X262771428Y92191443D01*
X262771428Y92191443D02*
X262771428Y91891443D01*
X262771428Y91891443D02*
X262814285Y91720015D01*
X262814285Y91720015D02*
X262899999Y91634300D01*
X262899999Y91634300D02*
X262985714Y91591443D01*
X262985714Y91591443D02*
X263157142Y91591443D01*
X263157142Y91591443D02*
X263242857Y91634300D01*
X263242857Y91634300D02*
X263328571Y91720015D01*
X263328571Y91720015D02*
X263371428Y91891443D01*
X263371428Y91891443D02*
X263371428Y92191443D01*
X263371428Y92191443D02*
X263328571Y92362872D01*
X263328571Y92362872D02*
X263242857Y92448586D01*
X263242857Y92448586D02*
X263157142Y92491443D01*
X262514285Y92491443D02*
X262000000Y92491443D01*
X262257142Y91591443D02*
X262257142Y92491443D01*
X261700000Y92062872D02*
X261400000Y92062872D01*
X261271428Y91591443D02*
X261700000Y91591443D01*
X261700000Y91591443D02*
X261700000Y92491443D01*
X261700000Y92491443D02*
X261271428Y92491443D01*
X260371428Y91677158D02*
X260414285Y91634300D01*
X260414285Y91634300D02*
X260542857Y91591443D01*
X260542857Y91591443D02*
X260628571Y91591443D01*
X260628571Y91591443D02*
X260757142Y91634300D01*
X260757142Y91634300D02*
X260842857Y91720015D01*
X260842857Y91720015D02*
X260885714Y91805729D01*
X260885714Y91805729D02*
X260928571Y91977158D01*
X260928571Y91977158D02*
X260928571Y92105729D01*
X260928571Y92105729D02*
X260885714Y92277158D01*
X260885714Y92277158D02*
X260842857Y92362872D01*
X260842857Y92362872D02*
X260757142Y92448586D01*
X260757142Y92448586D02*
X260628571Y92491443D01*
X260628571Y92491443D02*
X260542857Y92491443D01*
X260542857Y92491443D02*
X260414285Y92448586D01*
X260414285Y92448586D02*
X260371428Y92405729D01*
X260114285Y92491443D02*
X259600000Y92491443D01*
X259857142Y91591443D02*
X259857142Y92491443D01*
X259300000Y92062872D02*
X259000000Y92062872D01*
X258871428Y91591443D02*
X259300000Y91591443D01*
X259300000Y91591443D02*
X259300000Y92491443D01*
X259300000Y92491443D02*
X258871428Y92491443D01*
X258485714Y91591443D02*
X258485714Y92491443D01*
X258485714Y92491443D02*
X258271428Y92491443D01*
X258271428Y92491443D02*
X258142857Y92448586D01*
X258142857Y92448586D02*
X258057142Y92362872D01*
X258057142Y92362872D02*
X258014285Y92277158D01*
X258014285Y92277158D02*
X257971428Y92105729D01*
X257971428Y92105729D02*
X257971428Y91977158D01*
X257971428Y91977158D02*
X258014285Y91805729D01*
X258014285Y91805729D02*
X258057142Y91720015D01*
X258057142Y91720015D02*
X258142857Y91634300D01*
X258142857Y91634300D02*
X258271428Y91591443D01*
X258271428Y91591443D02*
X258485714Y91591443D01*
X256428571Y91591443D02*
X256942857Y91591443D01*
X256685714Y91591443D02*
X256685714Y92491443D01*
X256685714Y92491443D02*
X256771428Y92362872D01*
X256771428Y92362872D02*
X256857143Y92277158D01*
X256857143Y92277158D02*
X256942857Y92234300D01*
X256085714Y91634300D02*
X255957143Y91591443D01*
X255957143Y91591443D02*
X255742857Y91591443D01*
X255742857Y91591443D02*
X255657143Y91634300D01*
X255657143Y91634300D02*
X255614285Y91677158D01*
X255614285Y91677158D02*
X255571428Y91762872D01*
X255571428Y91762872D02*
X255571428Y91848586D01*
X255571428Y91848586D02*
X255614285Y91934300D01*
X255614285Y91934300D02*
X255657143Y91977158D01*
X255657143Y91977158D02*
X255742857Y92020015D01*
X255742857Y92020015D02*
X255914285Y92062872D01*
X255914285Y92062872D02*
X256000000Y92105729D01*
X256000000Y92105729D02*
X256042857Y92148586D01*
X256042857Y92148586D02*
X256085714Y92234300D01*
X256085714Y92234300D02*
X256085714Y92320015D01*
X256085714Y92320015D02*
X256042857Y92405729D01*
X256042857Y92405729D02*
X256000000Y92448586D01*
X256000000Y92448586D02*
X255914285Y92491443D01*
X255914285Y92491443D02*
X255700000Y92491443D01*
X255700000Y92491443D02*
X255571428Y92448586D01*
X253857143Y92534300D02*
X254628571Y91377158D01*
X252871429Y92062872D02*
X252571429Y92062872D01*
X252442857Y91591443D02*
X252871429Y91591443D01*
X252871429Y91591443D02*
X252871429Y92491443D01*
X252871429Y92491443D02*
X252442857Y92491443D01*
X252142857Y92491443D02*
X251542857Y91591443D01*
X251542857Y92491443D02*
X252142857Y91591443D01*
X251328571Y92491443D02*
X250814286Y92491443D01*
X251071428Y91591443D02*
X251071428Y92491443D01*
X250514286Y92062872D02*
X250214286Y92062872D01*
X250085714Y91591443D02*
X250514286Y91591443D01*
X250514286Y91591443D02*
X250514286Y92491443D01*
X250514286Y92491443D02*
X250085714Y92491443D01*
X249185714Y91591443D02*
X249485714Y92020015D01*
X249700000Y91591443D02*
X249700000Y92491443D01*
X249700000Y92491443D02*
X249357143Y92491443D01*
X249357143Y92491443D02*
X249271428Y92448586D01*
X249271428Y92448586D02*
X249228571Y92405729D01*
X249228571Y92405729D02*
X249185714Y92320015D01*
X249185714Y92320015D02*
X249185714Y92191443D01*
X249185714Y92191443D02*
X249228571Y92105729D01*
X249228571Y92105729D02*
X249271428Y92062872D01*
X249271428Y92062872D02*
X249357143Y92020015D01*
X249357143Y92020015D02*
X249700000Y92020015D01*
X248800000Y91591443D02*
X248800000Y92491443D01*
X248800000Y92491443D02*
X248285714Y91591443D01*
X248285714Y91591443D02*
X248285714Y92491443D01*
X247900000Y91848586D02*
X247471429Y91848586D01*
X247985714Y91591443D02*
X247685714Y92491443D01*
X247685714Y92491443D02*
X247385714Y91591443D01*
X246657142Y91591443D02*
X247085714Y91591443D01*
X247085714Y91591443D02*
X247085714Y92491443D01*
X245157143Y91677158D02*
X245200000Y91634300D01*
X245200000Y91634300D02*
X245328572Y91591443D01*
X245328572Y91591443D02*
X245414286Y91591443D01*
X245414286Y91591443D02*
X245542857Y91634300D01*
X245542857Y91634300D02*
X245628572Y91720015D01*
X245628572Y91720015D02*
X245671429Y91805729D01*
X245671429Y91805729D02*
X245714286Y91977158D01*
X245714286Y91977158D02*
X245714286Y92105729D01*
X245714286Y92105729D02*
X245671429Y92277158D01*
X245671429Y92277158D02*
X245628572Y92362872D01*
X245628572Y92362872D02*
X245542857Y92448586D01*
X245542857Y92448586D02*
X245414286Y92491443D01*
X245414286Y92491443D02*
X245328572Y92491443D01*
X245328572Y92491443D02*
X245200000Y92448586D01*
X245200000Y92448586D02*
X245157143Y92405729D01*
X244771429Y91591443D02*
X244771429Y92491443D01*
X244771429Y92062872D02*
X244257143Y92062872D01*
X244257143Y91591443D02*
X244257143Y92491443D01*
X243871429Y91848586D02*
X243442858Y91848586D01*
X243957143Y91591443D02*
X243657143Y92491443D01*
X243657143Y92491443D02*
X243357143Y91591443D01*
X242542857Y91591443D02*
X242842857Y92020015D01*
X243057143Y91591443D02*
X243057143Y92491443D01*
X243057143Y92491443D02*
X242714286Y92491443D01*
X242714286Y92491443D02*
X242628571Y92448586D01*
X242628571Y92448586D02*
X242585714Y92405729D01*
X242585714Y92405729D02*
X242542857Y92320015D01*
X242542857Y92320015D02*
X242542857Y92191443D01*
X242542857Y92191443D02*
X242585714Y92105729D01*
X242585714Y92105729D02*
X242628571Y92062872D01*
X242628571Y92062872D02*
X242714286Y92020015D01*
X242714286Y92020015D02*
X243057143Y92020015D01*
X241685714Y92448586D02*
X241771429Y92491443D01*
X241771429Y92491443D02*
X241900000Y92491443D01*
X241900000Y92491443D02*
X242028571Y92448586D01*
X242028571Y92448586D02*
X242114286Y92362872D01*
X242114286Y92362872D02*
X242157143Y92277158D01*
X242157143Y92277158D02*
X242200000Y92105729D01*
X242200000Y92105729D02*
X242200000Y91977158D01*
X242200000Y91977158D02*
X242157143Y91805729D01*
X242157143Y91805729D02*
X242114286Y91720015D01*
X242114286Y91720015D02*
X242028571Y91634300D01*
X242028571Y91634300D02*
X241900000Y91591443D01*
X241900000Y91591443D02*
X241814286Y91591443D01*
X241814286Y91591443D02*
X241685714Y91634300D01*
X241685714Y91634300D02*
X241642857Y91677158D01*
X241642857Y91677158D02*
X241642857Y91977158D01*
X241642857Y91977158D02*
X241814286Y91977158D01*
X241257143Y92062872D02*
X240957143Y92062872D01*
X240828571Y91591443D02*
X241257143Y91591443D01*
X241257143Y91591443D02*
X241257143Y92491443D01*
X241257143Y92491443D02*
X240828571Y92491443D01*
X230761904Y96645181D02*
X230761904Y97645181D01*
X230761904Y97168991D02*
X230190476Y97168991D01*
X230190476Y96645181D02*
X230190476Y97645181D01*
X229190476Y96645181D02*
X229761904Y96645181D01*
X229476190Y96645181D02*
X229476190Y97645181D01*
X229476190Y97645181D02*
X229571428Y97502324D01*
X229571428Y97502324D02*
X229666666Y97407086D01*
X229666666Y97407086D02*
X229761904Y97359467D01*
%TO.C,H1*%
D11*
X226640000Y97890000D02*
X226640000Y99140000D01*
X226940000Y100800000D02*
X227550000Y100800000D01*
X226940000Y99500000D02*
X227550000Y99500000D01*
X227550000Y102300000D02*
X232450000Y102300000D01*
X227550000Y98800000D02*
X227550000Y102300000D01*
X227890000Y97890000D02*
X226640000Y97890000D01*
X228400000Y97990000D02*
X228400000Y98190000D01*
X228700000Y98190000D02*
X228700000Y97990000D01*
X228700000Y98090000D02*
X228400000Y98090000D01*
X228700000Y97990000D02*
X228400000Y97990000D01*
X229500000Y98800000D02*
X227550000Y98800000D01*
X229500000Y98190000D02*
X229500000Y98800000D01*
X229900000Y102300000D02*
X229900000Y101800000D01*
X229900000Y101800000D02*
X230100000Y101800000D01*
X230000000Y102300000D02*
X230000000Y101800000D01*
X230100000Y101800000D02*
X230100000Y102300000D01*
X230500000Y98800000D02*
X230500000Y98190000D01*
X232450000Y102300000D02*
X232450000Y98800000D01*
X232450000Y98800000D02*
X230500000Y98800000D01*
X233060000Y100800000D02*
X232450000Y100800000D01*
X233060000Y99500000D02*
X232450000Y99500000D01*
X226940000Y102910000D02*
X233060000Y102910000D01*
X233060000Y98190000D01*
X226940000Y98190000D01*
X226940000Y102910000D01*
%TD*%
%LPC*%
D12*
%TO.C,MH7*%
X150000000Y77000000D03*
%TD*%
%TO.C,MH4*%
X324000000Y6000000D03*
%TD*%
%TO.C,MH9*%
X8000000Y46000000D03*
%TD*%
%TO.C,MH6*%
X210000000Y103000000D03*
%TD*%
D13*
%TO.C,S1*%
X250000000Y60300000D03*
D12*
X250000000Y65000000D03*
X250000000Y69700000D03*
%TD*%
%TO.C,MH5*%
X150000000Y103000000D03*
%TD*%
%TO.C,MH13*%
X257000000Y6000000D03*
%TD*%
D14*
%TO.C,J9*%
X271460000Y45000000D03*
D15*
X274000000Y45000000D03*
X276540000Y45000000D03*
%TD*%
D14*
%TO.C,J4*%
X101460000Y45000000D03*
D15*
X104000000Y45000000D03*
X106540000Y45000000D03*
%TD*%
D14*
%TO.C,J13*%
X58460000Y71000000D03*
D15*
X61000000Y71000000D03*
X63540000Y71000000D03*
%TD*%
D14*
%TO.C,J5*%
X135460000Y45000000D03*
D15*
X138000000Y45000000D03*
X140540000Y45000000D03*
%TD*%
D16*
%TO.C,J1*%
X111110000Y118700000D03*
D17*
X111110000Y116160000D03*
X111110000Y113620000D03*
X111110000Y111080000D03*
X111110000Y108540000D03*
X111110000Y106000000D03*
X111110000Y103460000D03*
X111110000Y100920000D03*
X111110000Y98380000D03*
X111110000Y95840000D03*
X111110000Y93300000D03*
X111110000Y90760000D03*
X111110000Y88220000D03*
X111110000Y85680000D03*
X111110000Y83140000D03*
X111110000Y80600000D03*
X111110000Y78060000D03*
X111110000Y75520000D03*
X111110000Y72980000D03*
X111110000Y70440000D03*
%TD*%
D12*
%TO.C,MH16*%
X189000000Y47000000D03*
%TD*%
%TO.C,MH10*%
X45000000Y37000000D03*
%TD*%
D14*
%TO.C,J7*%
X203460000Y45000000D03*
D15*
X206000000Y45000000D03*
X208540000Y45000000D03*
%TD*%
D14*
%TO.C,J6*%
X169460000Y45000000D03*
D15*
X172000000Y45000000D03*
X174540000Y45000000D03*
%TD*%
D12*
%TO.C,MH14*%
X291000000Y6000000D03*
%TD*%
%TO.C,MH2*%
X324000000Y114000000D03*
%TD*%
D14*
%TO.C,J12*%
X21460000Y45000000D03*
D15*
X24000000Y45000000D03*
X26540000Y45000000D03*
%TD*%
D14*
%TO.C,J15*%
X50000000Y108000000D03*
D15*
X50000000Y105460000D03*
X50000000Y102920000D03*
X50000000Y100380000D03*
X50000000Y97840000D03*
X50000000Y95300000D03*
X50000000Y92760000D03*
X50000000Y90220000D03*
X50000000Y87680000D03*
X50000000Y85140000D03*
X50000000Y82600000D03*
X50000000Y80060000D03*
X50000000Y77520000D03*
X50000000Y74980000D03*
X50000000Y72440000D03*
X50000000Y69900000D03*
%TD*%
D12*
%TO.C,MH1*%
X6000000Y114000000D03*
%TD*%
D16*
%TO.C,J2*%
X128890000Y70440000D03*
D17*
X128890000Y72980000D03*
X128890000Y75520000D03*
X128890000Y78060000D03*
X128890000Y80600000D03*
X128890000Y83140000D03*
X128890000Y85680000D03*
X128890000Y88220000D03*
X128890000Y90760000D03*
X128890000Y93300000D03*
X128890000Y95840000D03*
X128890000Y98380000D03*
X128890000Y100920000D03*
X128890000Y103460000D03*
X128890000Y106000000D03*
X128890000Y108540000D03*
X128890000Y111080000D03*
X128890000Y113620000D03*
X128890000Y116160000D03*
X128890000Y118700000D03*
%TD*%
D12*
%TO.C,MH15*%
X155000000Y47000000D03*
%TD*%
%TO.C,MH12*%
X155000000Y6000000D03*
%TD*%
D14*
%TO.C,J14*%
X96460000Y71000000D03*
D15*
X99000000Y71000000D03*
X101540000Y71000000D03*
%TD*%
D14*
%TO.C,J8*%
X237460000Y45000000D03*
D15*
X240000000Y45000000D03*
X242540000Y45000000D03*
%TD*%
D14*
%TO.C,J11*%
X21460000Y85000000D03*
D15*
X24000000Y85000000D03*
X26540000Y85000000D03*
%TD*%
D12*
%TO.C,MH3*%
X6000000Y6000000D03*
%TD*%
D14*
%TO.C,J3*%
X67460000Y45000000D03*
D15*
X70000000Y45000000D03*
X72540000Y45000000D03*
%TD*%
D12*
%TO.C,MH11*%
X50000000Y6000000D03*
%TD*%
D14*
%TO.C,J10*%
X305460000Y45000000D03*
D15*
X308000000Y45000000D03*
X310540000Y45000000D03*
%TD*%
D12*
%TO.C,MH17*%
X291000000Y47000000D03*
%TD*%
%TO.C,MH8*%
X210000000Y77000000D03*
%TD*%
D18*
%TO.C,H1*%
X229000000Y100000000D03*
D19*
X231000000Y100000000D03*
%TD*%
%LPD*%
M02*
