%TF.GenerationSoftware,KiCad,Pcbnew,10.0.6*%
%TF.CreationDate,2026-10-09T13:40:34-05:00*%
%TF.ProjectId,make_music,6d616b65-5f6d-4757-9369-632e6b696361,P1 routed - review hold*%
%TF.SameCoordinates,PX1312d00PY8583b00*%
%TF.FileFunction,Soldermask,Top*%
%TF.FilePolarity,Negative*%
%FSLAX46Y46*%
G04 Gerber Fmt 4.6, Leading zero omitted, Abs format (unit mm)*
G04 Created by KiCad (PCBNEW 10.0.6) date 2026-10-09 13:40:34*
%MOMM*%
%LPD*%
G01*
G04 APERTURE LIST*
G04 Aperture macros list*
%AMRoundRect*
0 Rectangle with rounded corners*
0 $1 Rounding radius*
0 $2 $3 $4 $5 $6 $7 $8 $9 X,Y pos of 4 corners*
0 Add a 4 corners polygon primitive as box body*
4,1,4,$2,$3,$4,$5,$6,$7,$8,$9,$2,$3,0*
0 Add four circle primitives for the rounded corners*
1,1,$1+$1,$2,$3*
1,1,$1+$1,$4,$5*
1,1,$1+$1,$6,$7*
1,1,$1+$1,$8,$9*
0 Add four rect primitives between the rounded corners*
20,1,$1+$1,$2,$3,$4,$5,0*
20,1,$1+$1,$4,$5,$6,$7,0*
20,1,$1+$1,$6,$7,$8,$9,0*
20,1,$1+$1,$8,$9,$2,$3,0*%
%AMFreePoly0*
4,1,172,0.252456,0.549940,0.257357,0.549699,0.262237,0.549218,0.267091,0.548498,0.271903,0.547541,0.276662,0.546349,0.281358,0.544924,0.285978,0.543271,0.290511,0.541394,0.294947,0.539296,0.299277,0.536981,0.303486,0.534458,0.307558,0.531737,0.311499,0.528815,0.315306,0.525691,0.318941,0.522395,0.322395,0.518941,0.325691,0.515306,0.328815,0.511499,0.331737,0.507558,
0.334458,0.503486,0.336981,0.499277,0.339296,0.494947,0.341394,0.490511,0.343271,0.485978,0.344924,0.481358,0.346349,0.476662,0.347541,0.471903,0.348498,0.467091,0.349218,0.462237,0.349699,0.457357,0.349940,0.452456,0.350000,0.450000,0.350000,-0.100000,0.349940,-0.102456,0.349699,-0.107357,0.349218,-0.112237,0.348498,-0.117091,0.347541,-0.121903,0.346349,-0.126662,
0.344924,-0.131358,0.343271,-0.135978,0.341394,-0.140511,0.339296,-0.144947,0.336981,-0.149277,0.334458,-0.153486,0.331737,-0.157558,0.328815,-0.161499,0.325691,-0.165306,0.322395,-0.168941,0.318941,-0.172395,0.315306,-0.175691,0.311499,-0.178815,0.307558,-0.181737,0.303486,-0.184458,0.299277,-0.186981,0.294947,-0.189296,0.290511,-0.191394,0.285978,-0.193271,0.281358,-0.194924,
0.276662,-0.196349,0.271903,-0.197541,0.267091,-0.198498,0.262237,-0.199218,0.257357,-0.199699,0.252456,-0.199940,0.250000,-0.200000,-0.250000,-0.200000,-0.252456,-0.199940,-0.257357,-0.199699,-0.262237,-0.199218,-0.267091,-0.198498,-0.271903,-0.197541,-0.276662,-0.196349,-0.281358,-0.194924,-0.285978,-0.193271,-0.290511,-0.191394,-0.294947,-0.189296,-0.299277,-0.186981,-0.303486,-0.184458,
-0.307558,-0.181737,-0.311499,-0.178815,-0.315306,-0.175691,-0.318941,-0.172395,-0.322395,-0.168941,-0.325691,-0.165306,-0.328815,-0.161499,-0.331737,-0.157558,-0.334458,-0.153486,-0.336981,-0.149277,-0.339296,-0.144947,-0.341394,-0.140511,-0.343271,-0.135978,-0.344924,-0.131358,-0.346349,-0.126662,-0.347541,-0.121903,-0.348498,-0.117091,-0.349218,-0.112237,-0.349699,-0.107357,-0.349940,-0.102456,
-0.350000,-0.100000,-0.350000,0.100000,-0.349940,0.102456,-0.349699,0.107357,-0.349218,0.112237,-0.348498,0.117091,-0.347541,0.121903,-0.346349,0.126662,-0.344924,0.131358,-0.343271,0.135978,-0.341394,0.140511,-0.339296,0.144947,-0.336981,0.149277,-0.334458,0.153486,-0.331737,0.157558,-0.328815,0.161499,-0.325691,0.165306,-0.322395,0.168941,-0.318941,0.172395,-0.315306,0.175691,
-0.311499,0.178815,-0.307558,0.181737,-0.303486,0.184458,-0.299277,0.186981,-0.294947,0.189296,-0.290511,0.191394,-0.285978,0.193271,-0.281358,0.194924,-0.276662,0.196349,-0.271903,0.197541,-0.267091,0.198498,-0.262237,0.199218,-0.257357,0.199699,-0.252456,0.199940,-0.250000,0.200000,0.000000,0.200000,0.000000,0.450000,0.000060,0.452456,0.000301,0.457357,0.000782,0.462237,
0.001502,0.467091,0.002459,0.471903,0.003651,0.476662,0.005076,0.481358,0.006729,0.485978,0.008606,0.490511,0.010704,0.494947,0.013019,0.499277,0.015542,0.503486,0.018263,0.507558,0.021185,0.511499,0.024309,0.515306,0.027605,0.518941,0.031059,0.522395,0.034694,0.525691,0.038501,0.528815,0.042442,0.531737,0.046514,0.534458,0.050723,0.536981,0.055053,0.539296,
0.059489,0.541394,0.064022,0.543271,0.068642,0.544924,0.073338,0.546349,0.078097,0.547541,0.082909,0.548498,0.087763,0.549218,0.092643,0.549699,0.097544,0.549940,0.100000,0.550000,0.250000,0.550000,0.252456,0.549940,0.252456,0.549940,$1*%
%AMFreePoly1*
4,1,172,0.252456,0.199940,0.257357,0.199699,0.262237,0.199218,0.267091,0.198498,0.271903,0.197541,0.276662,0.196349,0.281358,0.194924,0.285978,0.193271,0.290511,0.191394,0.294947,0.189296,0.299277,0.186981,0.303486,0.184458,0.307558,0.181737,0.311499,0.178815,0.315306,0.175691,0.318941,0.172395,0.322395,0.168941,0.325691,0.165306,0.328815,0.161499,0.331737,0.157558,
0.334458,0.153486,0.336981,0.149277,0.339296,0.144947,0.341394,0.140511,0.343271,0.135978,0.344924,0.131358,0.346349,0.126662,0.347541,0.121903,0.348498,0.117091,0.349218,0.112237,0.349699,0.107357,0.349940,0.102456,0.350000,0.100000,0.350000,-0.450000,0.349940,-0.452456,0.349699,-0.457357,0.349218,-0.462237,0.348498,-0.467091,0.347541,-0.471903,0.346349,-0.476662,
0.344924,-0.481358,0.343271,-0.485978,0.341394,-0.490511,0.339296,-0.494947,0.336981,-0.499277,0.334458,-0.503486,0.331737,-0.507558,0.328815,-0.511499,0.325691,-0.515306,0.322395,-0.518941,0.318941,-0.522395,0.315306,-0.525691,0.311499,-0.528815,0.307558,-0.531737,0.303486,-0.534458,0.299277,-0.536981,0.294947,-0.539296,0.290511,-0.541394,0.285978,-0.543271,0.281358,-0.544924,
0.276662,-0.546349,0.271903,-0.547541,0.267091,-0.548498,0.262237,-0.549218,0.257357,-0.549699,0.252456,-0.549940,0.250000,-0.550000,0.100000,-0.550000,0.097544,-0.549940,0.092643,-0.549699,0.087763,-0.549218,0.082909,-0.548498,0.078097,-0.547541,0.073338,-0.546349,0.068642,-0.544924,0.064022,-0.543271,0.059489,-0.541394,0.055053,-0.539296,0.050723,-0.536981,0.046514,-0.534458,
0.042442,-0.531737,0.038501,-0.528815,0.034694,-0.525691,0.031059,-0.522395,0.027605,-0.518941,0.024309,-0.515306,0.021185,-0.511499,0.018263,-0.507558,0.015542,-0.503486,0.013019,-0.499277,0.010704,-0.494947,0.008606,-0.490511,0.006729,-0.485978,0.005076,-0.481358,0.003651,-0.476662,0.002459,-0.471903,0.001502,-0.467091,0.000782,-0.462237,0.000301,-0.457357,0.000060,-0.452456,
0.000000,-0.450000,0.000000,-0.200000,-0.250000,-0.200000,-0.252456,-0.199940,-0.257357,-0.199699,-0.262237,-0.199218,-0.267091,-0.198498,-0.271903,-0.197541,-0.276662,-0.196349,-0.281358,-0.194924,-0.285978,-0.193271,-0.290511,-0.191394,-0.294947,-0.189296,-0.299277,-0.186981,-0.303486,-0.184458,-0.307558,-0.181737,-0.311499,-0.178815,-0.315306,-0.175691,-0.318941,-0.172395,-0.322395,-0.168941,
-0.325691,-0.165306,-0.328815,-0.161499,-0.331737,-0.157558,-0.334458,-0.153486,-0.336981,-0.149277,-0.339296,-0.144947,-0.341394,-0.140511,-0.343271,-0.135978,-0.344924,-0.131358,-0.346349,-0.126662,-0.347541,-0.121903,-0.348498,-0.117091,-0.349218,-0.112237,-0.349699,-0.107357,-0.349940,-0.102456,-0.350000,-0.100000,-0.350000,0.100000,-0.349940,0.102456,-0.349699,0.107357,-0.349218,0.112237,
-0.348498,0.117091,-0.347541,0.121903,-0.346349,0.126662,-0.344924,0.131358,-0.343271,0.135978,-0.341394,0.140511,-0.339296,0.144947,-0.336981,0.149277,-0.334458,0.153486,-0.331737,0.157558,-0.328815,0.161499,-0.325691,0.165306,-0.322395,0.168941,-0.318941,0.172395,-0.315306,0.175691,-0.311499,0.178815,-0.307558,0.181737,-0.303486,0.184458,-0.299277,0.186981,-0.294947,0.189296,
-0.290511,0.191394,-0.285978,0.193271,-0.281358,0.194924,-0.276662,0.196349,-0.271903,0.197541,-0.267091,0.198498,-0.262237,0.199218,-0.257357,0.199699,-0.252456,0.199940,-0.250000,0.200000,0.250000,0.200000,0.252456,0.199940,0.252456,0.199940,$1*%
%AMFreePoly2*
4,1,172,0.252456,0.199940,0.257357,0.199699,0.262237,0.199218,0.267091,0.198498,0.271903,0.197541,0.276662,0.196349,0.281358,0.194924,0.285978,0.193271,0.290511,0.191394,0.294947,0.189296,0.299277,0.186981,0.303486,0.184458,0.307558,0.181737,0.311499,0.178815,0.315306,0.175691,0.318941,0.172395,0.322395,0.168941,0.325691,0.165306,0.328815,0.161499,0.331737,0.157558,
0.334458,0.153486,0.336981,0.149277,0.339296,0.144947,0.341394,0.140511,0.343271,0.135978,0.344924,0.131358,0.346349,0.126662,0.347541,0.121903,0.348498,0.117091,0.349218,0.112237,0.349699,0.107357,0.349940,0.102456,0.350000,0.100000,0.350000,-0.100000,0.349940,-0.102456,0.349699,-0.107357,0.349218,-0.112237,0.348498,-0.117091,0.347541,-0.121903,0.346349,-0.126662,
0.344924,-0.131358,0.343271,-0.135978,0.341394,-0.140511,0.339296,-0.144947,0.336981,-0.149277,0.334458,-0.153486,0.331737,-0.157558,0.328815,-0.161499,0.325691,-0.165306,0.322395,-0.168941,0.318941,-0.172395,0.315306,-0.175691,0.311499,-0.178815,0.307558,-0.181737,0.303486,-0.184458,0.299277,-0.186981,0.294947,-0.189296,0.290511,-0.191394,0.285978,-0.193271,0.281358,-0.194924,
0.276662,-0.196349,0.271903,-0.197541,0.267091,-0.198498,0.262237,-0.199218,0.257357,-0.199699,0.252456,-0.199940,0.250000,-0.200000,0.000000,-0.200000,0.000000,-0.450000,-0.000060,-0.452456,-0.000301,-0.457357,-0.000782,-0.462237,-0.001502,-0.467091,-0.002459,-0.471903,-0.003651,-0.476662,-0.005076,-0.481358,-0.006729,-0.485978,-0.008606,-0.490511,-0.010704,-0.494947,-0.013019,-0.499277,
-0.015542,-0.503486,-0.018263,-0.507558,-0.021185,-0.511499,-0.024309,-0.515306,-0.027605,-0.518941,-0.031059,-0.522395,-0.034694,-0.525691,-0.038501,-0.528815,-0.042442,-0.531737,-0.046514,-0.534458,-0.050723,-0.536981,-0.055053,-0.539296,-0.059489,-0.541394,-0.064022,-0.543271,-0.068642,-0.544924,-0.073338,-0.546349,-0.078097,-0.547541,-0.082909,-0.548498,-0.087763,-0.549218,-0.092643,-0.549699,
-0.097544,-0.549940,-0.100000,-0.550000,-0.250000,-0.550000,-0.252456,-0.549940,-0.257357,-0.549699,-0.262237,-0.549218,-0.267091,-0.548498,-0.271903,-0.547541,-0.276662,-0.546349,-0.281358,-0.544924,-0.285978,-0.543271,-0.290511,-0.541394,-0.294947,-0.539296,-0.299277,-0.536981,-0.303486,-0.534458,-0.307558,-0.531737,-0.311499,-0.528815,-0.315306,-0.525691,-0.318941,-0.522395,-0.322395,-0.518941,
-0.325691,-0.515306,-0.328815,-0.511499,-0.331737,-0.507558,-0.334458,-0.503486,-0.336981,-0.499277,-0.339296,-0.494947,-0.341394,-0.490511,-0.343271,-0.485978,-0.344924,-0.481358,-0.346349,-0.476662,-0.347541,-0.471903,-0.348498,-0.467091,-0.349218,-0.462237,-0.349699,-0.457357,-0.349940,-0.452456,-0.350000,-0.450000,-0.350000,0.100000,-0.349940,0.102456,-0.349699,0.107357,-0.349218,0.112237,
-0.348498,0.117091,-0.347541,0.121903,-0.346349,0.126662,-0.344924,0.131358,-0.343271,0.135978,-0.341394,0.140511,-0.339296,0.144947,-0.336981,0.149277,-0.334458,0.153486,-0.331737,0.157558,-0.328815,0.161499,-0.325691,0.165306,-0.322395,0.168941,-0.318941,0.172395,-0.315306,0.175691,-0.311499,0.178815,-0.307558,0.181737,-0.303486,0.184458,-0.299277,0.186981,-0.294947,0.189296,
-0.290511,0.191394,-0.285978,0.193271,-0.281358,0.194924,-0.276662,0.196349,-0.271903,0.197541,-0.267091,0.198498,-0.262237,0.199218,-0.257357,0.199699,-0.252456,0.199940,-0.250000,0.200000,0.250000,0.200000,0.252456,0.199940,0.252456,0.199940,$1*%
%AMFreePoly3*
4,1,172,-0.097544,0.549940,-0.092643,0.549699,-0.087763,0.549218,-0.082909,0.548498,-0.078097,0.547541,-0.073338,0.546349,-0.068642,0.544924,-0.064022,0.543271,-0.059489,0.541394,-0.055053,0.539296,-0.050723,0.536981,-0.046514,0.534458,-0.042442,0.531737,-0.038501,0.528815,-0.034694,0.525691,-0.031059,0.522395,-0.027605,0.518941,-0.024309,0.515306,-0.021185,0.511499,-0.018263,0.507558,
-0.015542,0.503486,-0.013019,0.499277,-0.010704,0.494947,-0.008606,0.490511,-0.006729,0.485978,-0.005076,0.481358,-0.003651,0.476662,-0.002459,0.471903,-0.001502,0.467091,-0.000782,0.462237,-0.000301,0.457357,-0.000060,0.452456,0.000000,0.450000,0.000000,0.200000,0.250000,0.200000,0.252456,0.199940,0.257357,0.199699,0.262237,0.199218,0.267091,0.198498,0.271903,0.197541,
0.276662,0.196349,0.281358,0.194924,0.285978,0.193271,0.290511,0.191394,0.294947,0.189296,0.299277,0.186981,0.303486,0.184458,0.307558,0.181737,0.311499,0.178815,0.315306,0.175691,0.318941,0.172395,0.322395,0.168941,0.325691,0.165306,0.328815,0.161499,0.331737,0.157558,0.334458,0.153486,0.336981,0.149277,0.339296,0.144947,0.341394,0.140511,0.343271,0.135978,
0.344924,0.131358,0.346349,0.126662,0.347541,0.121903,0.348498,0.117091,0.349218,0.112237,0.349699,0.107357,0.349940,0.102456,0.350000,0.100000,0.350000,-0.100000,0.349940,-0.102456,0.349699,-0.107357,0.349218,-0.112237,0.348498,-0.117091,0.347541,-0.121903,0.346349,-0.126662,0.344924,-0.131358,0.343271,-0.135978,0.341394,-0.140511,0.339296,-0.144947,0.336981,-0.149277,
0.334458,-0.153486,0.331737,-0.157558,0.328815,-0.161499,0.325691,-0.165306,0.322395,-0.168941,0.318941,-0.172395,0.315306,-0.175691,0.311499,-0.178815,0.307558,-0.181737,0.303486,-0.184458,0.299277,-0.186981,0.294947,-0.189296,0.290511,-0.191394,0.285978,-0.193271,0.281358,-0.194924,0.276662,-0.196349,0.271903,-0.197541,0.267091,-0.198498,0.262237,-0.199218,0.257357,-0.199699,
0.252456,-0.199940,0.250000,-0.200000,-0.250000,-0.200000,-0.252456,-0.199940,-0.257357,-0.199699,-0.262237,-0.199218,-0.267091,-0.198498,-0.271903,-0.197541,-0.276662,-0.196349,-0.281358,-0.194924,-0.285978,-0.193271,-0.290511,-0.191394,-0.294947,-0.189296,-0.299277,-0.186981,-0.303486,-0.184458,-0.307558,-0.181737,-0.311499,-0.178815,-0.315306,-0.175691,-0.318941,-0.172395,-0.322395,-0.168941,
-0.325691,-0.165306,-0.328815,-0.161499,-0.331737,-0.157558,-0.334458,-0.153486,-0.336981,-0.149277,-0.339296,-0.144947,-0.341394,-0.140511,-0.343271,-0.135978,-0.344924,-0.131358,-0.346349,-0.126662,-0.347541,-0.121903,-0.348498,-0.117091,-0.349218,-0.112237,-0.349699,-0.107357,-0.349940,-0.102456,-0.350000,-0.100000,-0.350000,0.450000,-0.349940,0.452456,-0.349699,0.457357,-0.349218,0.462237,
-0.348498,0.467091,-0.347541,0.471903,-0.346349,0.476662,-0.344924,0.481358,-0.343271,0.485978,-0.341394,0.490511,-0.339296,0.494947,-0.336981,0.499277,-0.334458,0.503486,-0.331737,0.507558,-0.328815,0.511499,-0.325691,0.515306,-0.322395,0.518941,-0.318941,0.522395,-0.315306,0.525691,-0.311499,0.528815,-0.307558,0.531737,-0.303486,0.534458,-0.299277,0.536981,-0.294947,0.539296,
-0.290511,0.541394,-0.285978,0.543271,-0.281358,0.544924,-0.276662,0.546349,-0.271903,0.547541,-0.267091,0.548498,-0.262237,0.549218,-0.257357,0.549699,-0.252456,0.549940,-0.250000,0.550000,-0.100000,0.550000,-0.097544,0.549940,-0.097544,0.549940,$1*%
G04 Aperture macros list end*
%ADD10FreePoly0,0.000000*%
%ADD11RoundRect,0.100000X-0.250000X-0.075000X0.250000X-0.075000X0.250000X0.075000X-0.250000X0.075000X0*%
%ADD12FreePoly1,0.000000*%
%ADD13RoundRect,0.100000X-0.100000X-1.150000X0.100000X-1.150000X0.100000X1.150000X-0.100000X1.150000X0*%
%ADD14FreePoly2,0.000000*%
%ADD15FreePoly3,0.000000*%
%ADD16C,3.200000*%
%ADD17RoundRect,0.200000X-0.200000X-0.275000X0.200000X-0.275000X0.200000X0.275000X-0.200000X0.275000X0*%
%ADD18R,0.950000X1.000000*%
%ADD19RoundRect,0.250000X0.250000X0.475000X-0.250000X0.475000X-0.250000X-0.475000X0.250000X-0.475000X0*%
%ADD20R,3.200000X3.200000*%
%ADD21RoundRect,0.250000X-0.250000X-0.475000X0.250000X-0.475000X0.250000X0.475000X-0.250000X0.475000X0*%
%ADD22R,1.800000X1.800000*%
%ADD23C,1.800000*%
%ADD24R,1.520000X1.520000*%
%ADD25C,1.520000*%
%ADD26RoundRect,0.225000X-0.225000X-0.250000X0.225000X-0.250000X0.225000X0.250000X-0.225000X0.250000X0*%
%ADD27R,3.750000X5.600000*%
%ADD28R,1.700000X1.800000*%
%ADD29C,2.000000*%
%ADD30R,2.100000X1.800000*%
%ADD31RoundRect,0.200000X0.200000X0.275000X-0.200000X0.275000X-0.200000X-0.275000X0.200000X-0.275000X0*%
%ADD32RoundRect,0.250000X-0.350000X-0.625000X0.350000X-0.625000X0.350000X0.625000X-0.350000X0.625000X0*%
%ADD33O,1.200000X1.750000*%
G04 APERTURE END LIST*
D10*
%TO.C,U2*%
X239100000Y-75300000D03*
D11*
X239100000Y-75775000D03*
X239100000Y-76225000D03*
D12*
X239100000Y-76700000D03*
D13*
X239750000Y-76000000D03*
X240250000Y-76000000D03*
D14*
X240900000Y-76700000D03*
D11*
X240900000Y-76225000D03*
X240900000Y-75775000D03*
D15*
X240900000Y-75300000D03*
%TD*%
D16*
%TO.C,MH7*%
X170000000Y-63000000D03*
%TD*%
%TO.C,MH4*%
X344000000Y-134000000D03*
%TD*%
D17*
%TO.C,R7*%
X243175000Y-74300000D03*
X244825000Y-74300000D03*
%TD*%
D18*
%TO.C,C4*%
X197660000Y-95000000D03*
X199260000Y-95000000D03*
%TD*%
D16*
%TO.C,MH9*%
X28000000Y-94000000D03*
%TD*%
D19*
%TO.C,C16*%
X239950000Y-87000000D03*
X238050000Y-87000000D03*
%TD*%
D16*
%TO.C,MH6*%
X230000000Y-37000000D03*
%TD*%
D20*
%TO.C,S1*%
X270000000Y-79700000D03*
D16*
X270000000Y-75000000D03*
X270000000Y-70300000D03*
%TD*%
D21*
%TO.C,C18*%
X124510000Y-65500000D03*
X126410000Y-65500000D03*
%TD*%
D16*
%TO.C,MH5*%
X170000000Y-37000000D03*
%TD*%
D18*
%TO.C,C7*%
X299660000Y-95000000D03*
X301260000Y-95000000D03*
%TD*%
D16*
%TO.C,MH13*%
X277000000Y-134000000D03*
%TD*%
D21*
%TO.C,C14*%
X240250000Y-80500000D03*
X242150000Y-80500000D03*
%TD*%
D22*
%TO.C,J9*%
X291460000Y-95000000D03*
D23*
X294000000Y-95000000D03*
X296540000Y-95000000D03*
%TD*%
D18*
%TO.C,C2*%
X129660000Y-95000000D03*
X131260000Y-95000000D03*
%TD*%
D22*
%TO.C,J4*%
X121460000Y-98000000D03*
D23*
X124000000Y-98000000D03*
X126540000Y-98000000D03*
%TD*%
D22*
%TO.C,J13*%
X78460000Y-69000000D03*
D23*
X81000000Y-69000000D03*
X83540000Y-69000000D03*
%TD*%
D22*
%TO.C,J5*%
X155460000Y-95000000D03*
D23*
X158000000Y-95000000D03*
X160540000Y-95000000D03*
%TD*%
D17*
%TO.C,R3*%
X234175000Y-73000000D03*
X235825000Y-73000000D03*
%TD*%
D24*
%TO.C,J1*%
X131110000Y-21300000D03*
D25*
X131110000Y-23840000D03*
X131110000Y-26380000D03*
X131110000Y-28920000D03*
X131110000Y-31460000D03*
X131110000Y-34000000D03*
X131110000Y-36540000D03*
X131110000Y-39080000D03*
X131110000Y-41620000D03*
X131110000Y-44160000D03*
X131110000Y-46700000D03*
X131110000Y-49240000D03*
X131110000Y-51780000D03*
X131110000Y-54320000D03*
X131110000Y-56860000D03*
X131110000Y-59400000D03*
X131110000Y-61940000D03*
X131110000Y-64480000D03*
X131110000Y-67020000D03*
X131110000Y-69560000D03*
%TD*%
D18*
%TO.C,C1*%
X95660000Y-95000000D03*
X97260000Y-95000000D03*
%TD*%
D26*
%TO.C,C15*%
X246225000Y-78000000D03*
X247775000Y-78000000D03*
%TD*%
D18*
%TO.C,C9*%
X49660000Y-55000000D03*
X51260000Y-55000000D03*
%TD*%
%TO.C,C5*%
X231660000Y-95000000D03*
X233260000Y-95000000D03*
%TD*%
D16*
%TO.C,MH16*%
X209000000Y-93000000D03*
%TD*%
%TO.C,MH10*%
X65000000Y-103000000D03*
%TD*%
D22*
%TO.C,J7*%
X223460000Y-95000000D03*
D23*
X226000000Y-95000000D03*
X228540000Y-95000000D03*
%TD*%
D27*
%TO.C,F1*%
X243125000Y-50000000D03*
X256875000Y-50000000D03*
%TD*%
D22*
%TO.C,J6*%
X189460000Y-95000000D03*
D23*
X192000000Y-95000000D03*
X194540000Y-95000000D03*
%TD*%
D16*
%TO.C,MH14*%
X311000000Y-134000000D03*
%TD*%
%TO.C,MH2*%
X344000000Y-26000000D03*
%TD*%
D18*
%TO.C,C12*%
X124660000Y-69000000D03*
X126260000Y-69000000D03*
%TD*%
D21*
%TO.C,C17*%
X86510000Y-65500000D03*
X88410000Y-65500000D03*
%TD*%
D17*
%TO.C,R2*%
X116175000Y-63000000D03*
X117825000Y-63000000D03*
%TD*%
D18*
%TO.C,C6*%
X265660000Y-95000000D03*
X267260000Y-95000000D03*
%TD*%
D22*
%TO.C,J12*%
X41460000Y-95000000D03*
D23*
X44000000Y-95000000D03*
X46540000Y-95000000D03*
%TD*%
D18*
%TO.C,C10*%
X49660000Y-95000000D03*
X51260000Y-95000000D03*
%TD*%
D17*
%TO.C,R5*%
X234175000Y-78500000D03*
X235825000Y-78500000D03*
%TD*%
D22*
%TO.C,J15*%
X70000000Y-32000000D03*
D23*
X70000000Y-34540000D03*
X70000000Y-37080000D03*
X70000000Y-39620000D03*
X70000000Y-42160000D03*
X70000000Y-44700000D03*
X70000000Y-47240000D03*
X70000000Y-49780000D03*
X70000000Y-52320000D03*
X70000000Y-54860000D03*
X70000000Y-57400000D03*
X70000000Y-59940000D03*
X70000000Y-62480000D03*
X70000000Y-65020000D03*
X70000000Y-67560000D03*
X70000000Y-70100000D03*
%TD*%
D18*
%TO.C,C11*%
X86660000Y-69000000D03*
X88260000Y-69000000D03*
%TD*%
%TO.C,C8*%
X333660000Y-95000000D03*
X335260000Y-95000000D03*
%TD*%
D17*
%TO.C,R1*%
X78175000Y-63000000D03*
X79825000Y-63000000D03*
%TD*%
D16*
%TO.C,MH1*%
X26000000Y-26000000D03*
%TD*%
D28*
%TO.C,D2*%
X244210000Y-83500000D03*
X247790000Y-83500000D03*
%TD*%
D29*
%TO.C,TP1*%
X157000000Y-23000000D03*
%TD*%
D30*
%TO.C,D3*%
X245800000Y-71500000D03*
X250200000Y-71500000D03*
%TD*%
D18*
%TO.C,C3*%
X163660000Y-95000000D03*
X165260000Y-95000000D03*
%TD*%
D31*
%TO.C,R6*%
X235825000Y-80500000D03*
X234175000Y-80500000D03*
%TD*%
D24*
%TO.C,J2*%
X148890000Y-69560000D03*
D25*
X148890000Y-67020000D03*
X148890000Y-64480000D03*
X148890000Y-61940000D03*
X148890000Y-59400000D03*
X148890000Y-56860000D03*
X148890000Y-54320000D03*
X148890000Y-51780000D03*
X148890000Y-49240000D03*
X148890000Y-46700000D03*
X148890000Y-44160000D03*
X148890000Y-41620000D03*
X148890000Y-39080000D03*
X148890000Y-36540000D03*
X148890000Y-34000000D03*
X148890000Y-31460000D03*
X148890000Y-28920000D03*
X148890000Y-26380000D03*
X148890000Y-23840000D03*
X148890000Y-21300000D03*
%TD*%
D16*
%TO.C,MH15*%
X175000000Y-93000000D03*
%TD*%
D17*
%TO.C,R8*%
X243175000Y-78000000D03*
X244825000Y-78000000D03*
%TD*%
D16*
%TO.C,MH12*%
X175000000Y-134000000D03*
%TD*%
D22*
%TO.C,J14*%
X116460000Y-69000000D03*
D23*
X119000000Y-69000000D03*
X121540000Y-69000000D03*
%TD*%
D22*
%TO.C,J8*%
X257460000Y-95000000D03*
D23*
X260000000Y-95000000D03*
X262540000Y-95000000D03*
%TD*%
D22*
%TO.C,J11*%
X41460000Y-55000000D03*
D23*
X44000000Y-55000000D03*
X46540000Y-55000000D03*
%TD*%
D16*
%TO.C,MH3*%
X26000000Y-134000000D03*
%TD*%
D22*
%TO.C,J3*%
X87460000Y-98000000D03*
D23*
X90000000Y-98000000D03*
X92540000Y-98000000D03*
%TD*%
D16*
%TO.C,MH11*%
X70000000Y-134000000D03*
%TD*%
D19*
%TO.C,C13*%
X239750000Y-71500000D03*
X237850000Y-71500000D03*
%TD*%
D31*
%TO.C,R4*%
X235825000Y-75000000D03*
X234175000Y-75000000D03*
%TD*%
D22*
%TO.C,J10*%
X325460000Y-95000000D03*
D23*
X328000000Y-95000000D03*
X330540000Y-95000000D03*
%TD*%
D16*
%TO.C,MH17*%
X311000000Y-93000000D03*
%TD*%
%TO.C,MH8*%
X230000000Y-63000000D03*
%TD*%
D32*
%TO.C,H1*%
X289000000Y-40000000D03*
D33*
X291000000Y-40000000D03*
%TD*%
M02*
