M48
; DRILL file KiCad 10.0.6 date 2026-10-08T08:39:05
; FORMAT={-:-/ absolute / metric / decimal}
; #@! TF.CreationDate,2026-10-08T08:39:05-05:00
; #@! TF.GenerationSoftware,Kicad,Pcbnew,10.0.6
; #@! TF.FileFunction,Plated,1,2,PTH
FMAT,2
METRIC
; #@! TA.AperFunction,Plated,PTH,ViaDrill
T1C0.400
; #@! TA.AperFunction,Plated,PTH,ViaDrill
T2C0.600
; #@! TA.AperFunction,Plated,PTH,ComponentDrill
T3C0.750
; #@! TA.AperFunction,Plated,PTH,ComponentDrill
T4C1.020
; #@! TA.AperFunction,Plated,PTH,ComponentDrill
T5C1.800
%
G90
G05
T1
X32.26Y85.0
X32.26Y45.0
X59.665Y101.202
X69.26Y71.0
X78.26Y45.0
X103.2Y71.7
X107.26Y71.0
X112.26Y45.0
X134.652Y52.066
X136.335Y51.224
X139.42Y80.525
X144.347Y83.14
X146.26Y45.0
X180.26Y45.0
X213.3Y65.0
X213.3Y59.5
X214.26Y45.0
X216.85Y69.5
X217.15Y53.0
X217.75Y62.4
X223.2Y59.5
X224.0Y63.775
X225.7Y65.7
X228.7Y62.0
X229.0Y56.5
X232.0Y67.5
X248.26Y45.0
X263.023Y101.28
X282.26Y45.0
X316.26Y45.0
T2
X95.088Y78.087
X220.25Y56.5
T3
X229.0Y100.0
X231.0Y100.0
T4
X21.46Y85.0
X21.46Y45.0
X24.0Y85.0
X24.0Y45.0
X26.54Y85.0
X26.54Y45.0
X50.0Y108.0
X50.0Y105.46
X50.0Y102.92
X50.0Y100.38
X50.0Y97.84
X50.0Y95.3
X50.0Y92.76
X50.0Y90.22
X50.0Y87.68
X50.0Y85.14
X50.0Y82.6
X50.0Y80.06
X50.0Y77.52
X50.0Y74.98
X50.0Y72.44
X50.0Y69.9
X58.46Y71.0
X61.0Y71.0
X63.54Y71.0
X67.46Y45.0
X70.0Y45.0
X72.54Y45.0
X96.46Y71.0
X99.0Y71.0
X101.46Y45.0
X101.54Y71.0
X104.0Y45.0
X106.54Y45.0
X111.11Y118.7
X111.11Y116.16
X111.11Y113.62
X111.11Y111.08
X111.11Y108.54
X111.11Y106.0
X111.11Y103.46
X111.11Y100.92
X111.11Y98.38
X111.11Y95.84
X111.11Y93.3
X111.11Y90.76
X111.11Y88.22
X111.11Y85.68
X111.11Y83.14
X111.11Y80.6
X111.11Y78.06
X111.11Y75.52
X111.11Y72.98
X111.11Y70.44
X128.89Y118.7
X128.89Y116.16
X128.89Y113.62
X128.89Y111.08
X128.89Y108.54
X128.89Y106.0
X128.89Y103.46
X128.89Y100.92
X128.89Y98.38
X128.89Y95.84
X128.89Y93.3
X128.89Y90.76
X128.89Y88.22
X128.89Y85.68
X128.89Y83.14
X128.89Y80.6
X128.89Y78.06
X128.89Y75.52
X128.89Y72.98
X128.89Y70.44
X135.46Y45.0
X138.0Y45.0
X140.54Y45.0
X169.46Y45.0
X172.0Y45.0
X174.54Y45.0
X203.46Y45.0
X206.0Y45.0
X208.54Y45.0
X237.46Y45.0
X240.0Y45.0
X242.54Y45.0
X271.46Y45.0
X274.0Y45.0
X276.54Y45.0
X305.46Y45.0
X308.0Y45.0
X310.54Y45.0
T5
X250.0Y69.7
X250.0Y65.0
X250.0Y60.3
M30
