<svg xmlns="http://www.w3.org/2000/svg" width="1100" height="560" viewBox="0 0 1100 560">
<rect width="1100" height="560" fill="#f5f5f0" />
<style>text{font-family:Arial,sans-serif;fill:#17352d}.title{font-size:24px;font-weight:bold}.label{font-size:17px}.small{font-size:14px}</style>
<text x="40" y="40" class="title">Make Music · proposed component arrangement</text>
<text x="40" y="68" class="small">Concept only · not to scale · module dimensions and battery mounting to be confirmed</text>
<rect x="35" y="90" width="1030" height="410" rx="20" fill="#e0eee4" stroke="#315f48" stroke-width="3" />
<circle cx="53" cy="108" r="7" fill="#f5f5f0" stroke="#315f48" />
<circle cx="1047" cy="108" r="7" fill="#f5f5f0" stroke="#315f48" />
<circle cx="53" cy="482" r="7" fill="#f5f5f0" stroke="#315f48" />
<circle cx="1047" cy="482" r="7" fill="#f5f5f0" stroke="#315f48" />
<rect x="85" y="115" width="245" height="37" rx="7" fill="#d2dcea" stroke="#315f48" stroke-width="2" />
<text x="207.5" y="139.5" text-anchor="middle" class="label">USB access at board edge</text>
<rect x="85" y="162" width="245" height="114" rx="7" fill="#d2dcea" stroke="#315f48" stroke-width="2" />
<text x="207.5" y="225.0" text-anchor="middle" class="label">Pico in female sockets</text>
<rect x="360" y="135" width="128" height="110" rx="7" fill="#f4deb9" stroke="#315f48" stroke-width="2" />
<text x="424.0" y="196.0" text-anchor="middle" class="label">Buzzer 1</text>
<rect x="510" y="135" width="128" height="110" rx="7" fill="#f4deb9" stroke="#315f48" stroke-width="2" />
<text x="574.0" y="196.0" text-anchor="middle" class="label">Buzzer 2</text>
<rect x="680" y="125" width="325" height="48" rx="7" fill="#d5d3eb" stroke="#315f48" stroke-width="2" />
<text x="842.5" y="155.0" text-anchor="middle" class="label">Exposed GPIO + 3V3 + GND</text>
<rect x="680" y="195" width="160" height="48" rx="7" fill="#f4deb9" stroke="#315f48" stroke-width="2" />
<text x="760.0" y="225.0" text-anchor="middle" class="label">Battery / power</text>
<rect x="870" y="195" width="135" height="48" rx="7" fill="#fff" stroke="#315f48" stroke-width="2" />
<text x="937.5" y="225.0" text-anchor="middle" class="label">Power switch</text>
<text x="265" y="320" class="label">Eight note touch controls</text>
<rect x="265" y="340" width="78" height="110" rx="7" fill="#fff" stroke="#315f48" stroke-width="2" />
<text x="304.0" y="401.0" text-anchor="middle" class="label">C</text>
<rect x="358" y="340" width="78" height="110" rx="7" fill="#fff" stroke="#315f48" stroke-width="2" />
<text x="397.0" y="401.0" text-anchor="middle" class="label">D</text>
<rect x="451" y="340" width="78" height="110" rx="7" fill="#fff" stroke="#315f48" stroke-width="2" />
<text x="490.0" y="401.0" text-anchor="middle" class="label">E</text>
<rect x="544" y="340" width="78" height="110" rx="7" fill="#fff" stroke="#315f48" stroke-width="2" />
<text x="583.0" y="401.0" text-anchor="middle" class="label">F</text>
<rect x="637" y="340" width="78" height="110" rx="7" fill="#fff" stroke="#315f48" stroke-width="2" />
<text x="676.0" y="401.0" text-anchor="middle" class="label">G</text>
<rect x="730" y="340" width="78" height="110" rx="7" fill="#fff" stroke="#315f48" stroke-width="2" />
<text x="769.0" y="401.0" text-anchor="middle" class="label">A</text>
<rect x="823" y="340" width="78" height="110" rx="7" fill="#fff" stroke="#315f48" stroke-width="2" />
<text x="862.0" y="401.0" text-anchor="middle" class="label">B</text>
<rect x="916" y="340" width="78" height="110" rx="7" fill="#fff" stroke="#315f48" stroke-width="2" />
<text x="955.0" y="401.0" text-anchor="middle" class="label">C↑</text>
<rect x="85" y="320" width="150" height="60" rx="7" fill="#fff" stroke="#315f48" stroke-width="2" />
<text x="160" y="356.0" text-anchor="middle" class="label">Semitone +</text>
<rect x="85" y="398" width="150" height="60" rx="7" fill="#fff" stroke="#315f48" stroke-width="2" />
<text x="160" y="434.0" text-anchor="middle" class="label">Octave +</text>
<text x="40" y="535" class="small">Back-mounted holder for the 18350 option; LiPo option uses a connector and mechanical restraint.</text><rect x="350" y="265" width="655" height="42" rx="7" fill="none" stroke="#826841" stroke-width="2" stroke-dasharray="7 5" /><text x="677.5" y="291" text-anchor="middle" class="label">Underside: battery holder area (18350 option, dimensions TBD)</text></svg>