0
SECTION
2
HEADER
9
$ACADVER
1
AC1015
9
$INSUNITS
70
4
9
$MEASUREMENT
70
1
0
ENDSEC
0
SECTION
2
TABLES
0
TABLE
2
LTYPE
5
10
330
0
100
AcDbSymbolTable
70
1
0
LTYPE
100
AcDbSymbolTableRecord
100
AcDbLinetypeTableRecord
2
CONTINUOUS
70
0
3
Solid line
72
65
73
0
40
0
0
ENDTAB
0
TABLE
2
LAYER
5
20
330
0
100
AcDbSymbolTable
70
5
0
LAYER
100
AcDbSymbolTableRecord
100
AcDbLayerTableRecord
2
0
70
0
62
7
6
CONTINUOUS
0
LAYER
100
AcDbSymbolTableRecord
100
AcDbLayerTableRecord
2
CANDIDATE_OUTLINE
70
0
62
7
6
CONTINUOUS
0
LAYER
100
AcDbSymbolTableRecord
100
AcDbLayerTableRecord
2
CARRIER_HOLES
70
0
62
5
6
CONTINUOUS
0
LAYER
100
AcDbSymbolTableRecord
100
AcDbLayerTableRecord
2
HOLDER_HOLES_PENDING
70
0
62
1
6
CONTINUOUS
0
LAYER
100
AcDbSymbolTableRecord
100
AcDbLayerTableRecord
2
REVIEW_REFERENCE
70
0
62
8
6
CONTINUOUS
0
ENDTAB
0
ENDSEC
0
SECTION
2
ENTITIES
0
LINE
100
AcDbEntity
8
CANDIDATE_OUTLINE
100
AcDbLine
10
154
20
-17
30
0
11
248
21
-17
31
0
0
LINE
100
AcDbEntity
8
CANDIDATE_OUTLINE
100
AcDbLine
10
248
20
-17
30
0
11
248
21
-43
31
0
0
LINE
100
AcDbEntity
8
CANDIDATE_OUTLINE
100
AcDbLine
10
248
20
-43
30
0
11
154
21
-43
31
0
0
LINE
100
AcDbEntity
8
CANDIDATE_OUTLINE
100
AcDbLine
10
154
20
-43
30
0
11
154
21
-17
31
0
0
CIRCLE
100
AcDbEntity
8
HOLDER_HOLES_PENDING
100
AcDbCircle
10
172.83
20
-30
30
0
40
1.6
0
CIRCLE
100
AcDbEntity
8
HOLDER_HOLES_PENDING
100
AcDbCircle
10
228.44
20
-30
30
0
40
1.6
0
TEXT
100
AcDbEntity
8
REVIEW_REFERENCE
100
AcDbText
10
154
20
-12
30
0
40
2.5
1
REVIEW ONLY - platform / holder holes PENDING - mm; x right/y up
50
0
7
STANDARD
0
ENDSEC
0
EOF
